<?xml version="1.0" encoding="UTF-8"?>
<svg version="1.1" xmlns="http://www.w3.org/2000/svg" width="1254" height="1254">
<path d="M0 0 C413.82 0 827.64 0 1254 0 C1254 413.82 1254 827.64 1254 1254 C840.18 1254 426.36 1254 0 1254 C0 840.18 0 426.36 0 0 Z " fill="#EAF4E8" transform="translate(0,0)"/>
<path d="M0 0 C413.82 0 827.64 0 1254 0 C1254 413.82 1254 827.64 1254 1254 C840.18 1254 426.36 1254 0 1254 C0 840.18 0 426.36 0 0 Z M585.4375 74.875 C584.67703369 74.91420563 583.91656738 74.95341125 583.13305664 74.99380493 C575.69050336 75.38825539 568.38407531 75.93198668 561.06323242 77.40673828 C557.04516713 78.18492419 553.00881041 78.81008956 548.96484375 79.4375 C547.74827339 79.62761154 547.74827339 79.62761154 546.50712585 79.82156372 C543.13358396 80.34837062 539.75964401 80.87258459 536.38549805 81.39550781 C520.35200027 83.39375619 520.35200027 83.39375619 505 88 C503.13336522 88.51078401 501.25744084 88.98845414 499.375 89.4375 C488.36373476 92.07718687 477.56270935 95.31085831 466.76586914 98.70629883 C464.43965523 99.43682317 462.11150344 100.16092266 459.78320312 100.88476562 C450.17341989 103.88998153 440.80482056 107.12505214 431.6875 111.4375 C427.96206119 113.15851876 424.23340258 114.66789666 420.375 116.0625 C375.33446938 133.15973582 331.8032908 161.13648082 295 192 C293.16725175 193.47989155 291.33390535 194.9590426 289.5 196.4375 C284.70733414 200.35504285 280.12038362 204.46112987 275.56640625 208.65234375 C273.32441044 210.70324098 271.05208971 212.70477533 268.75 214.6875 C265.60892917 217.41359196 262.68343411 220.29246882 259.7734375 223.26171875 C257.95834397 225.04083025 256.0670711 226.67363763 254.125 228.3125 C250.1049324 231.77271293 246.65180558 235.61963554 243.15234375 239.59765625 C241.32974466 241.63195469 239.46579375 243.54434528 237.5 245.4375 C233.77313245 249.09566953 230.57314862 253.13290096 227.3046875 257.19921875 C225.19592936 259.76189602 223.00958549 262.19573868 220.75 264.625 C214.94086327 271.00999898 209.82475335 277.91712402 204.64648438 284.81396484 C203.08221786 286.89083946 201.50454476 288.95666278 199.921875 291.01953125 C178.16062423 319.49428392 160.21276484 350.78012488 144.625 383 C144.05386475 384.18045898 143.48272949 385.36091797 142.89428711 386.57714844 C137.6775771 397.47946905 132.6029315 408.41424726 129.0546875 419.98828125 C128.1868705 422.46638089 127.22115207 424.75959825 126.12890625 427.140625 C123.73074085 432.45298171 121.8819404 437.90459692 120.0625 443.4375 C119.71622559 444.48139893 119.36995117 445.52529785 119.01318359 446.60083008 C116.64964743 453.80647793 114.48096524 461.04606019 112.54711914 468.37866211 C111.57789395 472.04364085 110.40674158 475.48592618 109 479 C108.31432003 481.43458031 107.66719597 483.85828705 107.0625 486.3125 C106.80364014 487.35059814 106.80364014 487.35059814 106.53955078 488.40966797 C105.00032851 494.72176079 103.81455909 501.07555729 102.7109375 507.4765625 C102.04207952 510.79145207 101.07256786 513.79842525 100 517 C97.74734813 525.76535911 96.70597658 534.7320748 95.5 543.6875 C95.1794243 546.04137919 94.8577934 548.39511204 94.53588867 550.74880981 C94.32381005 552.30386936 94.11304317 553.85910835 93.90356445 555.41452026 C93.45239923 558.75510722 92.98613671 562.08925769 92.46875 565.42041016 C89.13663871 586.90667077 88.6252156 608.45548936 88.68194199 630.15300369 C88.68758321 632.34483158 88.69040336 634.53665172 88.69302368 636.72848511 C88.73046225 658.27602298 89.1636726 679.61233583 92 701 C92.08721313 701.67371643 92.17442627 702.34743286 92.26428223 703.04156494 C99.10371124 755.81450091 112.85762721 807.15777071 134 856 C134.38752441 856.90057129 134.77504883 857.80114258 135.17431641 858.72900391 C146.67341863 885.30105156 160.61846852 910.23082635 175.875 934.8125 C176.46893555 935.7720459 177.06287109 936.7315918 177.67480469 937.72021484 C181.83980976 944.36405849 186.33587033 950.69926159 191 957 C192.11877483 958.54312125 193.23604325 960.08733616 194.3515625 961.6328125 C204.26138149 975.26796999 214.65594044 988.44183265 226.0546875 1000.87109375 C227.9306363 1002.92408992 229.75007915 1005.01592731 231.5625 1007.125 C234.49511889 1010.49785036 237.59779046 1013.64614251 240.8125 1016.75 C242.70655157 1018.69816733 244.46434191 1020.69145446 246.23046875 1022.75390625 C250.00712282 1027.09982429 254.09217839 1031.02704047 258.3125 1034.9375 C259.06378174 1035.63770264 259.81506348 1036.33790527 260.58911133 1037.05932617 C262.7222299 1039.04374564 264.86078664 1041.02215658 267 1043 C267.93585938 1043.87398437 268.87171875 1044.74796875 269.8359375 1045.6484375 C275.42263909 1050.7896878 281.31211365 1055.4741229 287.30859375 1060.12109375 C289.76113309 1062.02387011 292.18909646 1063.95201482 294.59765625 1065.91015625 C304.13057682 1073.65877866 313.94236796 1080.946173 324 1088 C324.59651367 1088.41926758 325.19302734 1088.83853516 325.80761719 1089.27050781 C348.0739125 1104.79882854 371.75178934 1117.88265766 396 1130 C397.38215698 1130.6950061 397.38215698 1130.6950061 398.79223633 1131.40405273 C408.78140773 1136.42086181 418.7418127 1141.37819712 429.3203125 1145.03515625 C432.28667529 1146.10321982 435.16501274 1147.32019312 438.0625 1148.5625 C442.49882517 1150.44161701 446.89948118 1151.97647487 451.55078125 1153.2265625 C454 1154 454 1154 457.0859375 1155.35546875 C482.44600374 1166.42020023 512.00568204 1171.75847631 539.1875 1176.30859375 C543 1177 543 1177 545 1178 C546.82963411 1178.20329268 548.66408368 1178.36472196 550.5 1178.5 C555.77777778 1178.88888889 555.77777778 1178.88888889 558 1180 C560.05930216 1180.18560234 562.12301266 1180.32319505 564.1875 1180.4375 C570.43185392 1180.83892275 576.56063861 1181.56524409 582.74609375 1182.5 C596.64440824 1184.26903562 610.60841789 1184.15619406 624.59155273 1184.13037109 C628.08646892 1184.12496291 631.58125934 1184.13037014 635.07617188 1184.13671875 C637.31250028 1184.13605872 639.54882861 1184.13477912 641.78515625 1184.1328125 C642.82269547 1184.13483673 643.86023468 1184.13686096 644.92921448 1184.13894653 C649.74782528 1184.123323 654.2552165 1183.93155453 659 1183 C660.51104344 1182.88726633 662.0246327 1182.80354051 663.5390625 1182.75390625 C664.36035645 1182.72240479 665.18165039 1182.69090332 666.02783203 1182.65844727 C666.88489746 1182.62678467 667.74196289 1182.59512207 668.625 1182.5625 C675.15050107 1182.27977923 681.43940523 1181.77227931 687.86328125 1180.53515625 C692.74467141 1179.70234124 697.66732453 1179.24856844 702.59619141 1178.78540039 C707.27804071 1178.31203069 711.46325199 1177.30031134 716 1176 C717.87941723 1175.66401383 719.76276735 1175.34968576 721.6484375 1175.05078125 C728.04265543 1174.02949636 734.32140281 1172.66125328 740.625 1171.1875 C742.32124512 1170.79328857 742.32124512 1170.79328857 744.05175781 1170.39111328 C752.77660845 1168.33929984 761.41835117 1166.07086346 770.02441406 1163.5703125 C771.98952458 1163.00302405 773.95855037 1162.45219465 775.9296875 1161.90625 C777.75886719 1161.39578125 777.75886719 1161.39578125 779.625 1160.875 C780.66914062 1160.58367187 781.71328125 1160.29234375 782.7890625 1159.9921875 C786.59341671 1158.81663279 790.28757168 1157.43585014 794 1156 C794.71333496 1155.72542969 795.42666992 1155.45085937 796.16162109 1155.16796875 C798.40094675 1154.3033719 800.63829306 1153.43384781 802.875 1152.5625 C803.66583984 1152.25465576 804.45667969 1151.94681152 805.27148438 1151.62963867 C810.12588465 1149.73743971 814.9756297 1147.8350839 819.8046875 1145.87890625 C821.28267868 1145.2871838 822.76735046 1144.71191168 824.2578125 1144.15234375 C830.30218232 1141.84830179 836.02254184 1139.05074114 841.78173828 1136.12280273 C846.14363186 1133.90947817 850.54030002 1131.82462053 855 1129.8125 C870.51908299 1122.71115756 885.7004182 1114.31354341 900 1105 C900.54785156 1104.64437988 901.09570312 1104.28875977 901.66015625 1103.92236328 C906.14377535 1101.00224335 910.58038242 1098.01595352 915 1095 C915.76763672 1094.47631836 916.53527344 1093.95263672 917.32617188 1093.41308594 C934.67091594 1081.5328389 951.18600492 1068.85030216 967 1055 C967.69738281 1054.40316406 968.39476562 1053.80632813 969.11328125 1053.19140625 C979.84114744 1043.97968389 989.98991346 1034.10294362 1000 1024.125 C1001.18299683 1022.9488916 1001.18299683 1022.9488916 1002.38989258 1021.74902344 C1007.13269215 1016.99362478 1011.6198979 1012.08893874 1016 1007 C1017.45445517 1005.39231627 1018.91220895 1003.78760285 1020.375 1002.1875 C1025.10518353 996.9379551 1029.58457528 991.51563781 1034 986 C1034.41475586 985.4848584 1034.82951172 984.9697168 1035.25683594 984.43896484 C1076.18844028 933.51315011 1106.32468424 876.46116082 1128.24633789 815.10861206 C1128.76120517 813.66810532 1129.27754807 812.22812537 1129.79516602 810.78860474 C1132.81001919 802.40111983 1135.74986232 794.0333605 1138.125 785.4375 C1138.49492065 784.11745972 1138.49492065 784.11745972 1138.87231445 782.77075195 C1142.3442696 770.28552427 1145.36431027 757.79560388 1147.63671875 745.03515625 C1148.26405463 741.52072624 1148.91216644 738.01023414 1149.5625 734.5 C1149.79066406 733.2521875 1150.01882813 732.004375 1150.25390625 730.71875 C1150.74209828 728.28545779 1151.31004935 725.86649975 1151.96484375 723.47265625 C1153.42750153 717.73704229 1154.03706481 711.85373925 1154.75 705.98803711 C1154.99321652 703.99313912 1155.24646552 701.99947231 1155.5 700.00585938 C1156.04301893 695.67510808 1156.53159432 691.33940921 1157 687 C1157.13770813 685.73913071 1157.13770813 685.73913071 1157.27819824 684.45278931 C1158.98480291 668.39169819 1159.31946663 652.45470702 1159.25 636.3125 C1159.2463443 634.45286621 1159.2463443 634.45286621 1159.24261475 632.55566406 C1159.20729651 617.18753806 1159.00660843 601.84488456 1158.125 586.5 C1158.06632751 585.46572372 1158.06632751 585.46572372 1158.00646973 584.41055298 C1157.47733637 575.45212946 1156.54735713 566.56460077 1155.44677734 557.66210938 C1155.09468598 554.77611457 1154.77597406 551.89392674 1154.5 549 C1154.11105075 545.42439637 1153.35651772 542.0022977 1152.53515625 538.50390625 C1151.23463052 532.4189647 1150.4706011 526.21720025 1149.5703125 520.0625 C1148.58792803 513.72008798 1147.20087238 507.53613112 1145.59545898 501.3269043 C1144.51447621 497.12930905 1143.53973236 492.92600982 1142.64916992 488.68408203 C1138.39945571 468.5794055 1131.90563243 449.11779073 1124.99755859 429.79101562 C1124.17281219 427.48350194 1123.35987009 425.17239654 1122.55078125 422.859375 C1115.71924871 403.90341084 1107.50465512 385.00663569 1098.12988281 367.16992188 C1096.76931731 364.55697758 1095.44425381 361.92698832 1094.1171875 359.296875 C1076.75986054 325.11013978 1055.54938719 292.82742551 1030.421875 263.8203125 C1028.15192659 261.17692097 1025.97888885 258.47834686 1023.8125 255.75 C1014.16494956 243.93771651 1003.2523184 233.16920667 992.5 222.375 C991.67588623 221.54621338 990.85177246 220.71742676 990.00268555 219.86352539 C985.16240394 215.03599815 980.19493799 210.44161012 975 206 C973.91695968 205.05062907 972.83488001 204.10016078 971.75390625 203.1484375 C962.81067517 195.34745794 953.52007448 188.08179995 944 181 C943.29391602 180.47293457 942.58783203 179.94586914 941.86035156 179.40283203 C905.76964637 152.5701773 866.0483395 128.86767626 823.8125 113.08203125 C821.30362431 112.11681102 818.87630197 111.06544591 816.4375 109.9375 C812.27363676 108.0536696 808.03486915 106.60213252 803.6875 105.19921875 C800.8232587 104.2677335 797.97324399 103.3104315 795.125 102.33203125 C785.80434704 99.1449471 776.54460511 96.22817172 766.95703125 93.96484375 C762.59709737 92.92937315 758.30546353 91.67680568 754 90.4375 C746.74593213 88.36535804 739.4970467 86.84671829 732.0625 85.578125 C729 85 729 85 727 84 C724.39746322 83.52098678 721.80243474 83.08815145 719.1875 82.6875 C718.36145264 82.55996338 717.53540527 82.43242676 716.68432617 82.30102539 C713.79062018 81.85989727 710.89558246 81.4286374 708 81 C706.34145996 80.7534668 706.34145996 80.7534668 704.64941406 80.50195312 C688.89752794 78.18356944 673.19915522 76.29513821 657.31054688 75.23364258 C655 75 655 75 652.75585938 74.48583984 C648.89314722 73.80486915 645.10275063 73.83778271 641.1875 73.83203125 C640.31761948 73.82788712 639.44773895 73.82374298 638.55149841 73.81947327 C635.7009566 73.80975231 632.85055595 73.80982668 630 73.8125 C628.54003098 73.81240936 628.54003098 73.81240936 627.05056763 73.81231689 C613.15993942 73.82455045 599.30822835 74.12700882 585.4375 74.875 Z " fill="#FEFDFD" transform="translate(0,0)"/>
<path d="M0 0 C0.8765625 0.53109375 1.753125 1.0621875 2.65625 1.609375 C15.42572061 9.99414787 23.86395776 20.72574853 27.3996582 35.71386719 C28.4036856 41.20968206 28.572312 46.67490104 28.6875 52.25 C28.72166016 53.38824219 28.75582031 54.52648437 28.79101562 55.69921875 C28.87239293 58.46604702 28.94189107 61.2326023 29 64 C29.55872803 64.19110352 30.11745605 64.38220703 30.69311523 64.57910156 C33.27603201 65.46522143 35.85675498 66.35757582 38.4375 67.25 C39.31599609 67.55035156 40.19449219 67.85070312 41.09960938 68.16015625 C49.72788688 71.15299051 57.86829994 74.86022542 66 79 C65.38035314 82.77235562 64.26031999 85.89824003 62.6875 89.375 C51.04317774 116.87040834 51.0182897 146.31133039 61.8125 173.9375 C66.91821928 185.85518659 73.2825886 196.33939327 82 206 C82.78632812 206.89203125 83.57265625 207.7840625 84.3828125 208.703125 C102.70809329 228.31733992 128.42538416 239.53253595 155.14807129 240.54772949 C156.15237183 240.57709595 157.15667236 240.6064624 158.19140625 240.63671875 C159.23848755 240.67454468 160.28556885 240.71237061 161.36437988 240.75134277 C163.9094261 240.84215944 166.45444898 240.92493551 169 241 C169.00238835 241.72039145 169.00477671 242.44078289 169.00723743 243.18300438 C169.06662073 260.78944507 169.14231756 278.39574202 169.23571491 296.00203514 C169.28049796 304.51664357 169.31995187 313.0312118 169.34643555 321.54589844 C169.36955844 328.9755744 169.40311282 336.40512125 169.44870156 343.8346945 C169.47244318 347.76109582 169.49129569 351.6873708 169.49761391 355.61384201 C169.53643869 378.95847126 169.53643869 378.95847126 173 402 C173.36929979 403.85660986 173.7379933 405.71334069 174.10546875 407.5703125 C176.63046392 418.62301126 180.29427834 428.21594677 186 438 C186.72050537 439.24015869 186.72050537 439.24015869 187.45556641 440.50537109 C196.86740817 456.52871581 206.92650874 470.13922034 220.21118164 483.09741211 C230.52383623 493.29353953 239.41719818 505.08913426 239.55664062 520.14355469 C239.52860352 521.52655762 239.52860352 521.52655762 239.5 522.9375 C239.47969727 524.38817871 239.47969727 524.38817871 239.45898438 525.86816406 C239.10852735 537.94263106 235.5779477 546.34614125 227 555 C219.43964925 561.25411214 211.49853114 564.47080157 201.73182774 564.38031673 C200.93513447 564.38497665 200.13844119 564.38963657 199.3176057 564.3944377 C196.65537961 564.40636223 193.99366627 564.39700218 191.33143616 564.38768005 C189.40053623 564.39185408 187.46963875 564.39733197 185.53874582 564.40399987 C180.23821069 564.41846406 174.93783093 564.41420666 169.63728726 564.40683305 C163.91871434 564.40210615 158.20017526 564.41460699 152.48161316 564.42485046 C141.28080353 564.44205289 130.08004997 564.44287551 118.87923057 564.43763756 C109.77623111 564.43359747 100.67324822 564.4350375 91.57024956 564.44038582 C90.27506292 564.44113424 88.97987629 564.44188266 87.64544157 564.44265376 C85.01434942 564.44418523 82.38325727 564.44572357 79.75216513 564.44726873 C62.08490468 564.45709846 44.41765193 564.46126019 26.75039005 564.45364285 C26.05966654 564.45334567 25.36894304 564.4530485 24.65728851 564.45274232 C19.04824647 564.45029342 13.4392045 564.44768182 7.83016254 564.44505819 C-14.04969618 564.43495529 -35.92947815 564.4433125 -57.80932617 564.46655273 C-82.39661039 564.49262654 -106.98384413 564.50542349 -131.57114321 564.49836498 C-144.58787294 564.49486967 -157.60453964 564.49712553 -170.62125969 564.51461601 C-181.70156147 564.52931978 -192.78175584 564.52999723 -203.86205547 564.5125451 C-209.51581226 564.50401793 -215.16937703 564.5019276 -220.82312393 564.51719666 C-225.9990346 564.53100226 -231.17458798 564.52633362 -236.35047776 564.50695742 C-238.22252529 564.50318445 -240.09460116 564.50615659 -241.96662354 564.51656907 C-259.77018428 564.60855089 -259.77018428 564.60855089 -267 560 C-268.03125 559.4225 -269.0625 558.845 -270.125 558.25 C-276.43306107 553.31325655 -281.01643312 547.43770702 -284 540 C-284.35707031 539.12988281 -284.71414063 538.25976562 -285.08203125 537.36328125 C-288.04911177 526.49240327 -287.2727989 512.95609233 -282 503 C-281.56429688 502.154375 -281.12859375 501.30875 -280.6796875 500.4375 C-275.87342866 491.82300329 -269.54368024 485.25964956 -262 479 C-252.13980622 468.84620244 -244.1227385 457.19884233 -237.12646484 444.95458984 C-235.97807457 442.96195601 -234.79837777 440.99051867 -233.61328125 439.01953125 C-216.55811309 410.26319585 -215.54480275 377.30490066 -215.55975223 344.6890521 C-215.55777131 340.8791283 -215.53729818 337.06930177 -215.51856995 333.25942993 C-215.47810245 324.44612286 -215.45910093 315.63283666 -215.44239807 306.81945801 C-215.41984897 295.56598311 -215.38613076 284.31256551 -215.33519894 273.05918276 C-215.31551848 268.55989406 -215.30571404 264.06073404 -215.30424678 259.56140399 C-215.30146411 256.75273046 -215.29056705 253.94412662 -215.27773666 251.13548279 C-215.27153698 249.24805701 -215.27501351 247.36060685 -215.27897644 245.47317505 C-215.11294778 217.20667309 -207.70755073 187.62494409 -194.03417969 162.87548828 C-192.96007364 160.92759342 -191.92084533 158.96341764 -190.8828125 156.99609375 C-178.61164903 134.09267641 -161.37487808 114.04625039 -141 98 C-140.03707031 97.20851563 -139.07414063 96.41703125 -138.08203125 95.6015625 C-122.14278057 82.79359681 -96.18275679 65 -75 65 C-75.02094727 64.28046143 -75.04189453 63.56092285 -75.06347656 62.81958008 C-75.61964636 40.83151272 -74.10573772 24.99640691 -58.48046875 8.32421875 C-54.36994809 4.47262852 -49.96436367 1.63229972 -45 -1 C-44.21753906 -1.43441406 -43.43507813 -1.86882812 -42.62890625 -2.31640625 C-30.05005503 -8.09261473 -11.70690935 -7.15422238 0 0 Z " fill="#4FAC43" transform="translate(546,288)"/>
<path d="M0 0 C18.23808057 13.95459625 30.25834739 32.86531275 34.22851562 55.72216797 C35.86678327 82.56264122 31.60452883 105.7449509 13.40820312 126.41821289 C3.89397442 136.70246608 -7.67123532 144.73748201 -20.77148438 149.72216797 C-21.69445312 150.09599609 -22.61742187 150.46982422 -23.56835938 150.85498047 C-40.02243351 156.59384047 -59.45826818 155.37741625 -75.77148438 149.72216797 C-76.57714844 149.45662109 -77.3828125 149.19107422 -78.21289062 148.91748047 C-99.83403576 140.55571163 -115.22209707 122.37368006 -124.58398438 101.84716797 C-133.72153492 80.5878599 -132.87211349 57.82926634 -124.49462891 36.55493164 C-116.17438717 16.73627868 -100.72068344 0.14818772 -81.12695312 -8.92626953 C-53.85902641 -19.90962535 -24.2460894 -17.48953031 0 0 Z " fill="#51AD45" transform="translate(753.771484375,351.27783203125)"/>
<path d="M0 0 C2.6075467 1.50222003 4.93725084 3.16669131 7.32421875 5 C8.31808594 5.72703125 9.31195312 6.4540625 10.3359375 7.203125 C28.44738083 20.62351642 45.62669642 36.04646181 59.32421875 54 C60.24054572 55.16432992 61.15723643 56.32837364 62.07421875 57.4921875 C88.94387618 92.01672754 109.02234063 134.49517923 115.32421875 178 C115.45812012 178.83934082 115.59202148 179.67868164 115.72998047 180.54345703 C122.81320907 225.79166316 118.81582678 273.68407734 103.82421875 316.9375 C103.57631592 317.68233643 103.32841309 318.42717285 103.07299805 319.19458008 C100.70554033 325.51595152 96.68656522 329.22926655 90.7578125 332.3515625 C84.72435085 333.95919433 78.46106473 334.03026502 72.82421875 331.3125 C68.49110578 327.3043705 64.67865305 323.26355742 64.0234375 317.23046875 C64.01957031 316.22628906 64.01570312 315.22210937 64.01171875 314.1875 C63.99496094 313.19105469 63.97820312 312.19460938 63.9609375 311.16796875 C64.31011198 308.1230171 65.14268107 306.00182916 66.41723633 303.24829102 C68.35191884 298.45246566 69.5134453 293.38154992 70.80371094 288.38085938 C71.31120863 286.42513656 71.83701254 284.47419296 72.36328125 282.5234375 C77.32779097 263.71739733 78.87709986 245.09180626 78.76171875 225.6875 C78.76000671 224.66383331 78.75829468 223.64016663 78.75653076 222.58547974 C78.706806 205.25944526 77.91135612 188.54559994 72.32421875 172 C72.06413325 170.48414812 71.83542208 168.96261258 71.63671875 167.4375 C69.17313419 153.32962903 63.64120974 139.56182359 57.22460938 126.8125 C56.29461705 124.94041132 55.40849435 123.05177051 54.52734375 121.15625 C45.55647464 102.14224015 32.9124004 84.84087221 18.62109375 69.484375 C16.64463925 67.34657727 14.75867219 65.166016 12.88671875 62.9375 C5.3761989 54.36891615 -3.49067726 47.44226301 -12.57373047 40.6418457 C-27.2809889 29.61914617 -27.2809889 29.61914617 -28.67578125 23 C-29.50334323 16.87773029 -29.74253307 11.68395597 -26.05078125 6.5 C-24.96381157 5.29782155 -23.84060939 4.12690351 -22.67578125 3 C-21.85078125 2.175 -21.02578125 1.35 -20.17578125 0.5 C-13.80378929 -2.2308537 -6.53652041 -2.44284559 0 0 Z " fill="#52AE46" transform="translate(879.67578125,472)"/>
<path d="M0 0 C21.36567134 -0.02332696 42.73134058 -0.04097817 64.09702206 -0.05181217 C74.01675275 -0.05697556 83.93647555 -0.06401907 93.85620117 -0.07543945 C102.49896979 -0.08538498 111.14173268 -0.09185311 119.78450686 -0.09408849 C124.36372463 -0.09539583 128.94292605 -0.09848308 133.5221386 -0.10573006 C137.82711706 -0.11248821 142.13207233 -0.11461738 146.43705559 -0.11310768 C148.02178066 -0.1133841 149.60650646 -0.11539044 151.19122696 -0.11920547 C153.34540411 -0.12413953 155.4994923 -0.12299937 157.65367126 -0.12025452 C158.86214187 -0.12117631 160.07061247 -0.1220981 161.31570339 -0.12304783 C164 0 164 0 165 1 C165.55458697 18.82600973 154.68456433 38.19942483 142.96875 51 C128.32704242 66.18543147 107.4610825 76.63201837 86.31640625 77.16796875 C78.01614946 77.24713355 70.03493576 77.32208324 62 75 C60.97777344 74.731875 59.95554687 74.46375 58.90234375 74.1875 C47.40051748 70.95891719 38.09636208 65.67010321 29 58 C28.19820313 57.35546875 27.39640625 56.7109375 26.5703125 56.046875 C13.32596001 44.90676543 1.93075641 27.5345368 0 10 C-0.03715892 8.24775061 -0.04814913 6.49478268 -0.03515625 4.7421875 C-0.03008057 3.85128418 -0.02500488 2.96038086 -0.01977539 2.04248047 C-0.01324951 1.36846191 -0.00672363 0.69444336 0 0 Z " fill="#52AE46" transform="translate(439,876)"/>
<path d="M0 0 C2.08747559 0.95980837 3.87737267 2.06565101 5.76953125 3.37109375 C6.6203125 3.95375 7.47109375 4.53640625 8.34765625 5.13671875 C11.1999941 7.16044449 13.99059506 9.24786161 16.76953125 11.37109375 C17.58421875 11.98984375 18.39890625 12.60859375 19.23828125 13.24609375 C30.34346271 21.8994819 40.1283201 31.24200991 48.76953125 42.37109375 C49.41019531 43.12261719 50.05085937 43.87414062 50.7109375 44.6484375 C68.34507019 65.48877613 77.79324564 90.34572214 84.76953125 116.37109375 C85.07890625 117.5171106 85.07890625 117.5171106 85.39453125 118.6862793 C91.45240152 141.89970163 91.23298751 171.03847421 85.76953125 194.37109375 C85.54958496 195.33321777 85.32963867 196.2953418 85.10302734 197.28662109 C84.37222364 200.42598912 83.61091079 203.55582136 82.83203125 206.68359375 C82.59145996 207.6576416 82.35088867 208.63168945 82.10302734 209.63525391 C79.84501365 218.18633828 76.77525721 223.72569677 68.98046875 228.45703125 C64.48072924 230.31734758 59.53543017 229.88286813 54.76953125 229.37109375 C49.8624011 227.0513595 46.95842645 223.65332444 43.76953125 219.37109375 C40.9406099 210.88432971 42.78752647 202.39760105 45.14453125 194.05859375 C55.08475285 158.65812793 49.75828457 120.85420349 32.45800781 88.5871582 C25.80014679 76.76625667 17.10652176 66.16667908 7.76953125 56.37109375 C7.24746094 55.78585937 6.72539063 55.200625 6.1875 54.59765625 C-0.42713462 47.46389841 -8.90722791 42.10054991 -16.83984375 36.54296875 C-21.97413361 32.87561885 -25.18637799 29.50336604 -27.23046875 23.37109375 C-27.97536667 16.78406788 -27.79243165 11.52930419 -23.7578125 6.09765625 C-17.21531444 -1.29821112 -9.69057691 -2.73236932 0 0 Z " fill="#52AD46" transform="translate(824.23046875,541.62890625)"/>
<path d="M0 0 C6.22081917 2.79873255 10.98108626 7.76341491 15.84765625 12.421875 C16.46640625 12.96585938 17.08515625 13.50984375 17.72265625 14.0703125 C31.31446922 26.46654932 42.12707092 49.10913401 42.99291992 67.50878906 C43.01756135 71.22990956 43.03331224 74.95066676 43.03515625 78.671875 C43.04740234 79.95707031 43.05964844 81.24226562 43.07226562 82.56640625 C43.10118901 101.36660727 43.10118901 101.36660727 36.84765625 108.421875 C31.37849006 112.72884337 26.2932391 114.19765822 19.359375 113.83984375 C13.01304127 112.78376644 9.50035697 108.29214262 5.84765625 103.421875 C3.73944473 100.04075539 3.64478043 97.49899353 3.7578125 93.546875 C3.77779297 92.39574219 3.79777344 91.24460937 3.81835938 90.05859375 C3.87877159 87.66524155 3.94375239 85.27199958 4.01367188 82.87890625 C4.2888253 65.78144163 -0.87768642 52.23002985 -12.6875 39.81640625 C-14.73509661 37.82721968 -16.79908555 36.0121896 -19.02734375 34.234375 C-23.49839047 30.51378766 -25.73444166 26.45058812 -26.53125 20.67578125 C-26.78106644 14.73659682 -26.27711637 10.96970122 -22.15234375 6.421875 C-15.31465755 -0.0350937 -9.61149928 -2.58167313 0 0 Z " fill="#52AE46" transform="translate(786.15234375,619.578125)"/>
<path d="M0 0 C3.34625024 2.52676039 4.67977847 4.03933542 6 8 C6.10626858 10.57434592 6.15723685 13.12202059 6.16113281 15.69677734 C6.16858017 16.87044609 6.16858017 16.87044609 6.17617798 18.06782532 C6.19078728 20.65720498 6.19759931 23.24652339 6.203125 25.8359375 C6.20887718 27.63571169 6.21463491 29.43548586 6.22039795 31.23526001 C6.23090423 35.00970749 6.23674943 38.7841337 6.24023438 42.55859375 C6.24572031 47.39302372 6.26975199 52.22717222 6.29820633 57.0615139 C6.31683697 60.77957988 6.32203852 64.49757808 6.32357025 68.2156868 C6.32659602 69.99786545 6.334622 71.78004293 6.34775543 73.56217575 C6.36482603 76.05647921 6.36293345 78.55009529 6.35644531 81.04443359 C6.37026749 82.14651405 6.37026749 82.14651405 6.3843689 83.27085876 C6.34831354 87.69970182 5.69190309 90.46314723 3 94 C-0.70983472 97.16427079 -4.13072425 97.52028667 -8.84765625 97.35546875 C-12.12506791 96.81419024 -13.78820981 95.41286203 -16 93 C-18.07496109 89.68762884 -18.24389801 87.09654135 -18.22705078 83.22167969 C-18.22689972 82.0607782 -18.22674866 80.89987671 -18.22659302 79.70379639 C-18.21627045 78.45576233 -18.20594788 77.20772827 -18.1953125 75.921875 C-18.1924826 74.64016418 -18.18965271 73.35845337 -18.18673706 72.03790283 C-18.17911788 68.63810361 -18.15948434 65.23847654 -18.1373291 61.83874512 C-18.11683358 58.36647876 -18.10772744 54.89418447 -18.09765625 51.421875 C-18.07623666 44.61451283 -18.04212156 37.80726469 -18 31 C-18.67764404 31.35441162 -19.35528809 31.70882324 -20.0534668 32.07397461 C-20.94718994 32.53296143 -21.84091309 32.99194824 -22.76171875 33.46484375 C-23.64561279 33.92238037 -24.52950684 34.37991699 -25.44018555 34.85131836 C-28.87524825 36.39275565 -31.29577533 36.65368671 -35 36 C-38.38939556 33.86320715 -39.72582557 32.8225233 -41 29 C-41.2734375 26.9140625 -41.2734375 26.9140625 -41.375 24.625 C-41.42398438 23.87476563 -41.47296875 23.12453125 -41.5234375 22.3515625 C-40.59776378 18.19293877 -37.5721085 16.0578404 -34.14013672 13.74853516 C-32.03347776 12.45333752 -29.90246906 11.21748662 -27.75 10 C-26.99001709 9.56574707 -26.23003418 9.13149414 -25.44702148 8.68408203 C-23.95614761 7.83283857 -22.46392884 6.98394519 -20.97021484 6.13769531 C-19.36884631 5.21298932 -17.79827135 4.23510906 -16.23828125 3.2421875 C-10.99761846 -0.05086811 -6.17579654 -1.36880656 0 0 Z " fill="#E7F3E6" transform="translate(715,374)"/>
<path d="M0 0 C-0.33 0.66 -0.66 1.32 -1 2 C-2.134375 2.12375 -3.26875 2.2475 -4.4375 2.375 C-6.2009375 2.684375 -6.2009375 2.684375 -8 3 C-9.22527948 4.95021083 -9.22527948 4.95021083 -10 7 C-12.125 7.75 -12.125 7.75 -14 8 C-9.74601941 2.56435813 -7.27838066 -0.40435448 0 0 Z " fill="#5DB652" transform="translate(868,471)"/>
<path d="M0 0 C1.12377697 3.30435084 0.89554742 5.0506862 -0.4375 8.25 C-0.72496094 8.95640625 -1.01242187 9.6628125 -1.30859375 10.390625 C-1.53675781 10.92171875 -1.76492188 11.4528125 -2 12 C-3.1171875 10.265625 -3.1171875 10.265625 -4 8 C-3.3203125 5.859375 -3.3203125 5.859375 -2.125 3.75 C-1.73570312 3.04359375 -1.34640625 2.3371875 -0.9453125 1.609375 C-0.63335937 1.07828125 -0.32140625 0.5471875 0 0 Z " fill="#64B75B" transform="translate(352,450)"/>
<path d="M0 0 C0.556875 0.226875 1.11375 0.45375 1.6875 0.6875 C0.6875 2.6875 0.6875 2.6875 -2.375 3.8125 C-3.8290625 4.245625 -3.8290625 4.245625 -5.3125 4.6875 C-5.9725 4.0275 -6.6325 3.3675 -7.3125 2.6875 C-2.88173077 -0.38942308 -2.88173077 -0.38942308 0 0 Z " fill="#62B858" transform="translate(811.3125,541.3125)"/>
<path d="M0 0 C0.33 0 0.66 0 1 0 C0.56179109 4.55737263 0.14958831 7.57653445 -3 11 C-4 8 -4 8 -3.22265625 5.95703125 C-2.83980469 5.24933594 -2.45695312 4.54164063 -2.0625 3.8125 C-1.68222656 3.09707031 -1.30195313 2.38164062 -0.91015625 1.64453125 C-0.60980469 1.10183594 -0.30945313 0.55914062 0 0 Z " fill="#58B24F" transform="translate(357,441)"/>
<path d="M0 0 C0.33 0.99 0.66 1.98 1 3 C-1.97 5.475 -1.97 5.475 -5 8 C-5 5 -5 5 -2.5 2.3125 C-1.675 1.549375 -0.85 0.78625 0 0 Z " fill="#5FB655" transform="translate(388,401)"/>
<path d="M0 0 C0.66 0.33 1.32 0.66 2 1 C-0.35380297 4.92300495 -2.64464931 5.83857315 -7 7 C-4.66666667 4.66666667 -2.33333333 2.33333333 0 0 Z " fill="#5EB555" transform="translate(494,291)"/>
<path d="M0 0 C3.29148243 1.13499394 3.9959869 1.99283376 5.75 5.125 C6.1625 6.07375 6.575 7.0225 7 8 C3.64379729 6.61122646 1.92701272 5.08322035 0 2 C0 1.34 0 0.68 0 0 Z " fill="#59B04D" transform="translate(881,598)"/>
<path d="M0 0 C0.99 0.33 1.98 0.66 3 1 C2.67 4.3 2.34 7.6 2 11 C1.67 11 1.34 11 1 11 C0.67 7.37 0.34 3.74 0 0 Z " fill="#77BF6F" transform="translate(872,672)"/>
<path d="M0 0 C1.0326802 2.78823655 1.04509293 3.8677274 0.0625 6.75 C-0.288125 7.4925 -0.63875 8.235 -1 9 C-2.1875 7.3125 -2.1875 7.3125 -3 5 C-1.625 2.25 -1.625 2.25 0 0 Z " fill="#5EB555" transform="translate(801,547)"/>
<path d="M0 0 C-0.33 0.99 -0.66 1.98 -1 3 C-3.5625 4.1875 -3.5625 4.1875 -6 5 C-6.66 4.34 -7.32 3.68 -8 3 C-2.25 0 -2.25 0 0 0 Z " fill="#DBF1DA" transform="translate(707,374)"/>
</svg>
