<?xml version="1.0" encoding="UTF-8"?>
<svg version="1.1" xmlns="http://www.w3.org/2000/svg" width="1254" height="1254">
<path d="M0 0 C413.82 0 827.64 0 1254 0 C1254 413.82 1254 827.64 1254 1254 C840.18 1254 426.36 1254 0 1254 C0 840.18 0 426.36 0 0 Z " fill="#EAF6EA" transform="translate(0,0)"/>
<path d="M0 0 C413.82 0 827.64 0 1254 0 C1254 413.82 1254 827.64 1254 1254 C840.18 1254 426.36 1254 0 1254 C0 840.18 0 426.36 0 0 Z M590 79 C586.61133289 79.24374029 583.22668567 79.43536116 579.83398438 79.60546875 C576.12050324 79.81000997 572.6375398 80.27141265 569 81 C565.65070531 81.36620472 562.29400464 81.64595241 558.9375 81.9375 C546.11636643 82.53882958 546.11636643 82.53882958 534 86 C531.66922657 86.30791869 529.33758104 86.50895274 526.99609375 86.71875 C525.00416869 86.79532012 525.00416869 86.79532012 524 88 C522.60875265 88.18452333 521.21122736 88.32269658 519.8125 88.4375 C515.94327723 88.82746891 512.67585704 89.69813397 509 91 C506.00343177 91.68773697 503.00453592 92.34881115 500 93 C488.69400446 95.46458739 477.7276138 98.51751891 466.73095703 102.11425781 C463.68909111 103.10083832 460.64021807 104.0634947 457.58984375 105.0234375 C455.37238567 105.72392616 453.15493766 106.42444669 450.9375 107.125 C449.90302734 107.44952148 448.86855469 107.77404297 447.80273438 108.10839844 C441.40883051 110.14132139 435.20045955 112.44228743 429 115 C427.25842948 115.69425805 425.51622705 116.38693277 423.7734375 117.078125 C413.22629205 121.30491627 402.95561642 125.78851322 392.87695312 131.03369141 C391.00637882 131.996716 389.124095 132.93063939 387.234375 133.85546875 C343.11216452 155.46083578 301.61623848 183.11235057 265.58984375 216.62109375 C264.21872702 217.88053581 262.84148622 219.13455154 261.42211914 220.33935547 C254.78219928 225.98714416 248.6600495 232.15386742 242.50073242 238.31396484 C240.57555298 240.23696182 238.64250969 242.15180574 236.70898438 244.06640625 C230.40004411 250.34734961 224.37337653 256.64980731 218.87182617 263.66064453 C216.92994503 266.08755272 214.8734901 268.35632494 212.75 270.625 C190.18582455 295.46126257 171.65560974 325.01630513 155 354 C154.56816406 354.74652832 154.13632813 355.49305664 153.69140625 356.26220703 C144.01681828 373.01114427 136.00471437 390.29129046 128.30664062 408.03051758 C127.00268126 410.99390655 125.65664636 413.93505239 124.30078125 416.875 C122.60188482 420.59478405 121.098621 424.27962933 119.875 428.1875 C118.6203383 432.15689432 117.25006223 436.05290287 115.77636719 439.94458008 C109.35120915 456.95508496 103.93431205 474.23050527 99.9375 491.97265625 C99.0366593 495.93578277 97.96504434 499.83465691 96.875 503.75 C95.316214 509.47366733 94.24278904 515.11773483 93.4921875 521 C93 524 93 524 92.0390625 527.3046875 C90.8430185 531.55828758 90.13594357 535.75856218 89.5 540.125 C89.30772827 541.4229248 89.30772827 541.4229248 89.11157227 542.74707031 C88.07926908 549.95051179 87.34378344 557.16618171 86.70141602 564.41357422 C86.29614665 568.97317356 85.84504151 573.5126011 85.22851562 578.04882812 C83.13771907 593.8631081 82.76194694 609.69181813 82.75 625.625 C82.74899292 626.57110138 82.74798584 627.51720276 82.74694824 628.49197388 C82.76803679 658.18929755 85.22897148 687.68691293 90 717 C90.14518066 717.89605957 90.29036133 718.79211914 90.43994141 719.71533203 C91.46247501 725.84699548 92.68797626 731.92423105 94 738 C94.2573291 739.20124512 94.5146582 740.40249023 94.77978516 741.64013672 C100.98754838 770.36243606 109.15408788 798.66448332 120 826 C120.32645508 826.83112305 120.65291016 827.66224609 120.98925781 828.51855469 C135.8270571 866.13065056 153.8878085 902.74719206 177 936 C177.46229004 936.66805664 177.92458008 937.33611328 178.40087891 938.02441406 C192.1022671 957.77820178 206.49548234 977.01504728 222.8515625 994.66796875 C224.72353637 996.6999113 226.52497729 998.76921105 228.3125 1000.875 C233.08018747 1006.37092613 238.33576671 1011.41259481 243.50732422 1016.52392578 C246.75366714 1019.73416282 249.9727769 1022.96950278 253.1640625 1026.234375 C259.3586423 1032.54408242 265.56830916 1038.52141361 272.51171875 1044.0078125 C274.80599104 1045.844671 276.96470235 1047.75905646 279.125 1049.75 C285.35365217 1055.34579446 292.10090038 1060.29590833 298.78466797 1065.32861328 C300.90550048 1066.92870358 303.01814274 1068.53900519 305.12890625 1070.15234375 C313.22771894 1076.32005268 321.4625837 1082.18859916 330.01318359 1087.71386719 C331.35798189 1088.58440017 332.69937309 1089.46021532 334.03759766 1090.34082031 C355.25318831 1104.29443475 377.64992083 1116.27337421 400.68994141 1126.91210938 C402.82135589 1127.91586999 404.91688718 1128.96938361 407.01171875 1130.046875 C411.55340342 1132.34058584 416.26529701 1134.14843007 421 1136 C422.63266738 1136.66382823 424.26419273 1137.33047257 425.89453125 1138 C435.1763495 1141.78471976 444.3677965 1145.21064578 454 1148 C455.50299371 1148.49092759 457.0032676 1148.99030194 458.5 1149.5 C463.17936267 1151.07971185 467.8969958 1152.5251708 472.62109375 1153.96484375 C474.80414747 1154.63364055 476.98411623 1155.31263025 479.16015625 1156.00390625 C490.66195148 1159.63830251 502.20652213 1162.68153649 514.140625 1164.50390625 C517.14436453 1165.02504685 520.05018807 1165.73197902 523 1166.5 C527.98601615 1167.7919495 532.95101864 1168.74382809 538.0390625 1169.53515625 C539.91313787 1169.82937125 541.78383772 1170.14682506 543.6484375 1170.49609375 C551.53318818 1171.95330412 559.45075589 1172.64921966 567.43505859 1173.30273438 C568.35367676 1173.37943359 569.27229492 1173.45613281 570.21875 1173.53515625 C571.04310547 1173.600979 571.86746094 1173.66680176 572.71679688 1173.73461914 C575 1174 575 1174 576.75030518 1174.48222351 C586.95071134 1176.82988882 598.13455353 1176.17463425 608.546875 1176.203125 C609.62080883 1176.20736607 609.62080883 1176.20736607 610.71643829 1176.21169281 C614.51359909 1176.22655197 618.31072326 1176.23586208 622.10791016 1176.24023438 C625.18127478 1176.24459364 628.25435466 1176.25840521 631.32763672 1176.28125 C649.57287977 1176.41411403 667.32064522 1175.89243117 685.4317627 1173.35162354 C688.81372315 1172.88859121 692.19736437 1172.53239527 695.59375 1172.19140625 C706.53054008 1171.03914203 717.15778407 1169.55602936 727.84765625 1166.96484375 C732.03597736 1165.95638025 736.2493331 1165.25059624 740.5 1164.5625 C748.04104545 1163.30944827 755.28855209 1161.36807657 762.625 1159.2421875 C766.57780021 1158.10022905 770.55709841 1157.13043829 774.5625 1156.1875 C781.72095077 1154.45613663 788.73187692 1152.28967829 795.75 1150.0625 C796.77939697 1149.73854248 797.80879395 1149.41458496 798.86938477 1149.08081055 C805.13342743 1147.06327077 811.18814271 1144.74276287 817.24121094 1142.16235352 C820.86967294 1140.63358293 824.54907354 1139.27822368 828.25 1137.9375 C832.98963843 1136.19237518 837.59125171 1134.37256291 842.04370117 1131.97729492 C844.07177214 1130.96414528 846.10914307 1130.16616721 848.23046875 1129.3671875 C855.66537673 1126.41839527 862.78951421 1122.82463916 869.9375 1119.25 C870.67900299 1118.87994843 871.42050598 1118.50989685 872.18447876 1118.12863159 C892.2318802 1108.08948603 911.61375276 1096.85428007 930 1084 C930.67675781 1083.53142578 931.35351562 1083.06285156 932.05078125 1082.58007812 C941.57768609 1075.97990711 950.89606187 1069.17317004 960 1062 C960.84691406 1061.33613281 961.69382812 1060.67226562 962.56640625 1059.98828125 C973.03604977 1051.70331455 983.13836651 1042.99739018 993 1034 C994.31291016 1032.82630859 994.31291016 1032.82630859 995.65234375 1031.62890625 C1002.04896914 1025.86404633 1008.2132417 1019.89123674 1014.3125 1013.8125 C1015.44171875 1012.69016968 1015.44171875 1012.69016968 1016.59375 1011.54516602 C1020.70782798 1007.41971061 1024.64996952 1003.20345938 1028.4519043 998.78881836 C1030.49353279 996.42972485 1032.62246223 994.15660085 1034.75 991.875 C1039.49875287 986.6671532 1043.85233192 981.22300397 1048.16015625 975.6484375 C1050.03096799 973.22936232 1051.93228548 970.84147526 1053.87109375 968.4765625 C1083.13336611 932.72839813 1106.36743409 891.66795173 1124.89892578 849.47265625 C1125.6409777 847.80624786 1126.40019995 846.14739288 1127.17529297 844.49609375 C1133.2211744 831.58153285 1137.78109667 818.0246156 1142.41479492 804.5534668 C1143.19146869 802.30099018 1143.97753999 800.05192473 1144.76367188 797.80273438 C1147.39409809 790.20493689 1149.66581172 782.71091493 1151.34741211 774.8347168 C1151.93182112 772.29615601 1152.65254087 769.92043843 1153.5234375 767.46875 C1155.46153721 761.93998576 1156.49944519 756.23893998 1157.625 750.5 C1158.05130899 748.3430795 1158.48081548 746.18678762 1158.9140625 744.03125 C1159.1917749 742.61682617 1159.1917749 742.61682617 1159.47509766 741.17382812 C1160 739 1160 739 1161 738 C1161.20768229 736.52603261 1161.36716017 735.0450874 1161.5 733.5625 C1161.89041096 729.21917808 1161.89041096 729.21917808 1163 727 C1163.35103201 724.96460432 1163.65551968 722.92110511 1163.9375 720.875 C1164.19853516 718.9878125 1164.19853516 718.9878125 1164.46484375 717.0625 C1165.17072032 711.77419063 1165.81023571 706.47783049 1166.4375 701.1796875 C1166.84827864 697.91378646 1167.39713345 694.68404766 1167.96606445 691.44213867 C1171.34591802 671.20898864 1171.36988137 650.63682594 1171.31745148 630.17794418 C1171.31243015 628.03265706 1171.31095587 625.88738842 1171.30999756 623.74209595 C1171.28602437 598.56690384 1170.33435737 573.854601 1166 549 C1165.77572631 547.6625152 1165.5524839 546.32485722 1165.33007812 544.98706055 C1158.73267985 505.4221265 1149.68960049 466.42460586 1135 429 C1134.67451172 428.16645996 1134.34902344 427.33291992 1134.01367188 426.47412109 C1122.4492654 397.0529105 1109.07084688 367.6218437 1092.16455078 340.84912109 C1090.85440079 338.76881165 1089.56610568 336.67565388 1088.27734375 334.58203125 C1076.92641081 316.25160326 1064.45982288 298.83665365 1051 282 C1050.18917969 280.98550781 1049.37835937 279.97101563 1048.54296875 278.92578125 C1046.38561258 276.26309841 1044.20140078 273.62636684 1042 271 C1041.36408936 270.23671387 1041.36408936 270.23671387 1040.71533203 269.45800781 C1029.61660656 256.16806664 1017.7096358 243.64513659 1005.5 231.375 C1004.54915527 230.417146 1004.54915527 230.417146 1003.57910156 229.43994141 C999.78545354 225.65923759 995.86980487 222.07277695 991.81689453 218.57177734 C989.57074807 216.62865843 987.37947191 214.62886925 985.1875 212.625 C979.93824583 207.89428917 974.5044808 203.42905524 969 199 C967.82007841 198.03934995 966.64040276 197.07839776 965.4609375 196.1171875 C932.04346955 168.99037525 894.46522424 146.01545512 855.36083984 128.09228516 C853.05773931 127.02671413 850.77136566 125.93194305 848.48828125 124.82421875 C839.93817732 120.68663754 831.33705461 117.05287109 822.39257812 113.85986328 C819.63592182 112.86915476 816.88849836 111.8546533 814.140625 110.83984375 C795.94817649 104.15492128 777.79139415 98.50932788 758.90625 94.15625 C754.63327024 93.16560554 750.41419871 92.04710973 746.1875 90.875 C738.52671285 88.7940852 730.81020294 87.37682486 723 86 C721.98808594 85.8040625 720.97617187 85.608125 719.93359375 85.40625 C714.36542899 84.3290517 708.87378247 83.64392445 703.21484375 83.24609375 C701 83 701 83 699 82 C674.64094641 77.9610125 649.99581816 77.62169112 625.375 77.6875 C624.31445593 77.68948458 624.31445593 77.68948458 623.23248672 77.69150925 C618.47514566 77.7010184 613.71815844 77.72625151 608.9609375 77.76171875 C607.13049644 77.7730484 607.13049644 77.7730484 605.26307678 77.78460693 C603.56350075 77.80361053 603.56350075 77.80361053 601.82958984 77.82299805 C600.84437347 77.83284225 599.8591571 77.84268646 598.84408569 77.85282898 C595.83241638 78.00867184 592.96806139 78.47800325 590 79 Z " fill="#FEFDFD" transform="translate(0,0)"/>
<path d="M0 0 C1.01215576 0.00201416 2.02431152 0.00402832 3.06713867 0.00610352 C6.80261855 0.01646818 10.53803319 0.04438972 14.2734375 0.0703125 C22.6471875 0.1115625 31.0209375 0.1528125 39.6484375 0.1953125 C39.3184375 19.9953125 38.9884375 39.7953125 38.6484375 60.1953125 C22.2734375 60.5703125 22.2734375 60.5703125 17.17041016 60.67333984 C3.82384193 60.99061106 -6.238523 61.63706357 -16.3515625 71.1953125 C-22.31555249 78.9017231 -23.50203008 85.3334519 -23.4913702 94.92929935 C-23.49432162 95.81280448 -23.49727305 96.69630961 -23.50031391 97.60658762 C-23.50901073 100.58205888 -23.51058608 103.5574913 -23.51219177 106.53297424 C-23.51692234 108.68188394 -23.5220732 110.83079274 -23.52760941 112.97970051 C-23.54152424 118.89685588 -23.54910156 124.8140051 -23.5555824 130.73117268 C-23.56195137 135.80346393 -23.57202172 140.87574506 -23.58214306 145.94803 C-23.61547262 162.6592378 -23.6370295 179.37045083 -23.65534291 196.08168092 C-23.66011199 200.43226391 -23.66512044 204.7828466 -23.67014813 209.13342929 C-23.70119442 236.14403738 -23.72780883 263.15464796 -23.74456692 290.1652689 C-23.74850408 296.42210965 -23.75251594 302.67895035 -23.7565918 308.93579102 C-23.7573443 310.10177753 -23.7573443 310.10177753 -23.758112 311.29131934 C-23.77452882 336.49201955 -23.81298491 361.69262266 -23.8638789 386.8932751 C-23.91611455 412.80552842 -23.94888341 438.71773003 -23.95614445 464.63003707 C-23.95717302 468.29084832 -23.95840933 471.95165948 -23.95976448 475.61247063 C-23.96002252 476.3329336 -23.96028056 477.05339657 -23.96054641 477.79569176 C-23.96523875 489.38347571 -23.99016247 500.97113152 -24.02251591 512.55886753 C-24.05457109 524.20978799 -24.06402023 535.86052998 -24.05208396 547.51149298 C-24.04625291 553.82187361 -24.05015363 560.13185276 -24.0802536 566.442173 C-24.10759675 572.22169617 -24.10713105 578.00053222 -24.08474315 583.78007054 C-24.08151824 585.86828704 -24.08839996 587.9565494 -24.10654037 590.0446896 C-24.20751862 602.42084318 -24.16960361 612.82858308 -15.27945608 622.43417364 C-8.41143268 628.93079487 -1.53465691 631.31281712 7.8050499 631.33118439 C9.67396586 631.338471 9.67396586 631.338471 11.58063769 631.34590483 C12.96047638 631.34629007 14.34031509 631.34658583 15.72015381 631.34680176 C17.1880617 631.35065256 18.65596849 631.35494018 20.12387395 631.35962725 C24.15820457 631.37126123 28.1925239 631.37674994 32.22686791 631.38126206 C36.57722319 631.38721304 40.92756346 631.39888001 45.27790833 631.40989685 C52.81562657 631.42824453 60.35334516 631.44309053 67.89107513 631.45567322 C78.79048643 631.47395956 89.68987623 631.4986236 100.5892705 631.52504712 C118.27386222 631.56783919 135.95845984 631.60695653 153.64306641 631.64306641 C154.70164483 631.64522921 155.76022326 631.64739201 156.85087982 631.64962035 C165.44278225 631.66714671 174.03468504 631.68449455 182.62658787 631.70182323 C190.14282307 631.71698772 197.65905812 631.7322196 205.17529297 631.74755859 C206.23379738 631.74971746 207.29230179 631.75187633 208.38288209 631.75410062 C226.00559721 631.79016347 243.62830146 631.83011036 261.2510016 631.87286139 C272.12938669 631.8990617 283.00776841 631.92170984 293.88617 631.93984497 C301.33171474 631.95247802 308.77724655 631.96859118 316.22277799 631.98749411 C320.52460313 631.99828771 324.82641567 632.00739329 329.12825203 632.01218987 C333.05965534 632.01659851 336.9910207 632.02551173 340.92240599 632.03813308 C342.35092891 632.04189237 343.77945752 632.04393124 345.20798537 632.04415327 C347.13706013 632.0446885 349.06612975 632.051856 350.99518967 632.05944061 C352.07050532 632.06155658 353.14582098 632.06367255 354.25372195 632.06585264 C356.6484375 632.1953125 356.6484375 632.1953125 357.6484375 633.1953125 C357.71266533 635.03738769 357.70537987 636.88199535 357.67016602 638.72485352 C357.65006973 639.90600235 357.62997345 641.08715118 357.60926819 642.30409241 C357.58223312 643.5894841 357.55519806 644.87487579 357.52734375 646.19921875 C357.50373276 647.50737045 357.48012177 648.81552216 357.45579529 650.16331482 C357.39286014 653.64701773 357.3238205 657.13057431 357.25354004 660.61413574 C357.18294149 664.1665173 357.11807387 667.71900289 357.05273438 671.27148438 C356.92360062 678.24620685 356.78802228 685.22079157 356.6484375 692.1953125 C310.0397817 692.28694193 263.43113547 692.35738874 216.82240731 692.39957382 C211.31519847 692.40457642 205.80798982 692.40975373 200.30078125 692.41503906 C199.20443198 692.4160883 198.10808271 692.41713755 196.97851074 692.41821858 C179.24514355 692.43560626 161.51182843 692.46713491 143.77849209 692.50392368 C125.57165828 692.5413787 107.36485167 692.56355799 89.15798092 692.57166648 C77.93058269 692.57714479 66.70333164 692.59442445 55.47597873 692.62697837 C47.76862839 692.64818258 40.06135373 692.65449921 32.35397637 692.64931801 C27.91250895 692.6467654 23.47129808 692.6505757 19.02987671 692.6721344 C14.95303945 692.69177752 10.87662822 692.69246911 6.79977024 692.67890808 C5.33515281 692.67723515 3.87050742 692.68215806 2.40594399 692.69484523 C-20.47185013 692.881293 -40.23541987 685.34103217 -56.984375 669.58203125 C-72.76620437 653.66998877 -83.46329337 631.81030214 -83.62128788 609.10107237 C-83.61717725 608.26453688 -83.61306661 607.42800139 -83.60883141 606.56611633 C-83.61233748 605.64656046 -83.61584355 604.72700459 -83.61945587 603.77958339 C-83.62872796 600.71147412 -83.62385737 597.64355641 -83.61898804 594.57543945 C-83.62272642 592.34811881 -83.62732869 590.12079947 -83.63271868 587.89348221 C-83.64494108 581.78256025 -83.64468909 575.67169308 -83.64232993 569.56076169 C-83.64196353 563.6437483 -83.65094917 557.72675088 -83.65955571 551.80974536 C-83.67887827 538.21471545 -83.68452331 524.61970065 -83.68566982 511.02465862 C-83.68658974 500.5220924 -83.69071073 490.01953208 -83.69707108 479.51696777 C-83.69886624 476.49120014 -83.70064587 473.46543249 -83.70242083 470.43966484 C-83.70286293 469.68739164 -83.70330502 468.93511843 -83.70376052 468.16004907 C-83.71606604 447.0045983 -83.72396195 425.84914958 -83.72307396 404.69369507 C-83.7230428 403.89638176 -83.72301164 403.09906845 -83.72297954 402.27759413 C-83.72281333 398.23671256 -83.72261525 394.195831 -83.72241013 390.15494943 C-83.72237024 389.35245402 -83.72233035 388.54995861 -83.72228925 387.72314516 C-83.72220837 386.10030322 -83.72212478 384.47746129 -83.72203846 382.85461935 C-83.72081353 357.6177375 -83.73581668 332.38090943 -83.76318359 307.14404297 C-83.79393742 278.77236637 -83.81111405 250.40072511 -83.80925715 222.0290308 C-83.8091079 219.00074832 -83.80901048 215.97246584 -83.80894852 212.94418335 C-83.80892521 212.19857756 -83.8089019 211.45297177 -83.80887788 210.68477186 C-83.80881646 198.71074569 -83.8215624 186.73676638 -83.83881305 174.76275412 C-83.85580754 162.71693123 -83.85771364 150.67117654 -83.8445944 138.62534827 C-83.83787572 132.10569175 -83.83791496 125.58617016 -83.8553009 119.06652641 C-83.87107668 113.08901431 -83.86812175 107.11180457 -83.85073264 101.13429964 C-83.84767266 98.98085914 -83.85125695 96.82739583 -83.86245279 94.67398226 C-83.97798566 70.8602018 -79.92438592 48.97602089 -64.3515625 30.1953125 C-63.66320312 29.34453125 -62.97484375 28.49375 -62.265625 27.6171875 C-46.25255718 8.77148313 -24.32900146 -0.23229706 0 0 Z " fill="#50AF44" transform="translate(390.3515625,289.8046875)"/>
<path d="M0 0 C0.93164474 -0.01283524 1.86328949 -0.02567047 2.82316589 -0.03889465 C3.82422867 -0.04628159 4.82529144 -0.05366852 5.85668945 -0.0612793 C7.41429741 -0.07338692 7.41429741 -0.07338692 9.00337219 -0.08573914 C11.20144999 -0.09956249 13.39954909 -0.11029245 15.59765625 -0.11816406 C17.83697839 -0.12967437 20.0762733 -0.15011096 22.31542969 -0.1796875 C25.55853848 -0.22252056 28.80083231 -0.23855628 32.04418945 -0.2487793 C33.03513107 -0.26628738 34.02607269 -0.28379547 35.04704285 -0.30183411 C44.37127545 -0.27304108 51.61162184 2.50615309 58.2824707 9.17700195 C63.05597846 15.65810598 64.40992941 20.25095081 64.39599609 28.33227539 C64.39614212 29.04487015 64.39628815 29.7574649 64.3964386 30.49165344 C64.39574361 32.8399259 64.38797064 35.1881184 64.38012695 37.53637695 C64.3782613 39.16733761 64.37683809 40.79829883 64.37583923 42.42926025 C64.37202565 46.71675165 64.36220525 51.00420903 64.35113525 55.29168701 C64.34089623 59.66881856 64.33633627 64.04595562 64.33129883 68.4230957 C64.32058194 77.00774671 64.30351942 85.5923701 64.2824707 94.17700195 C65.56460953 94.16034737 65.56460953 94.16034737 66.87265015 94.14335632 C74.96332613 94.04279785 83.05378953 93.96685705 91.14494896 93.91794109 C95.30385569 93.89194644 99.4622422 93.85673678 103.62084961 93.79980469 C107.64093701 93.745119 111.66052689 93.71550539 115.68095779 93.70261574 C117.20786995 93.69344084 118.73475763 93.67552541 120.26145554 93.64835167 C131.37992057 93.45848593 139.70464467 94.77236111 148.1574707 102.42700195 C154.74003326 109.63204015 155.88271201 117.23613126 155.77856445 126.7121582 C155.78001968 127.79025253 155.78147491 128.86834686 155.78297424 129.97911072 C155.78132278 132.24570433 155.76984662 134.51231004 155.74902344 136.77880859 C155.72002536 140.2329911 155.72844055 143.68564007 155.74145508 147.13989258 C155.73521784 149.35148852 155.72682702 151.56307965 155.71606445 153.7746582 C155.71900009 154.79882339 155.72193573 155.82298859 155.72496033 156.87818909 C155.61373919 165.39576786 154.03685864 171.8816834 148.2199707 178.42700195 C147.52774414 179.2365332 146.83551758 180.04606445 146.12231445 180.88012695 C137.47537311 187.87380166 127.83301008 187.72113058 117.2121582 187.56762695 C115.6794611 187.56015115 114.14675433 187.55446456 112.61404419 187.55047607 C108.61243524 187.53532484 104.61142247 187.49613659 100.61004639 187.45166016 C96.51395732 187.41047806 92.41777036 187.39241649 88.3215332 187.37231445 C80.30824114 187.32962969 72.29543043 187.26150926 64.2824707 187.17700195 C64.29135315 188.05903793 64.3002356 188.94107391 64.30938721 189.84983826 C64.38977135 198.1910346 64.45055572 206.53209952 64.48971939 214.87359524 C64.51053128 219.16134194 64.53873062 223.44876667 64.58422852 227.73632812 C64.62791641 231.87958471 64.65165586 236.022533 64.66197968 240.16600227 C64.66933014 241.74115917 64.68368338 243.31630054 64.70539093 244.891325 C64.861797 256.71755747 63.57869113 265.47478719 55.2824707 274.45043945 C50.0147559 278.99795887 43.00810499 281.28533902 36.09985352 281.32226562 C34.87773163 281.3318354 34.87773163 281.3318354 33.63092041 281.34159851 C32.75796326 281.34271133 31.8850061 281.34382416 30.9855957 281.3449707 C30.077995 281.3482991 29.17039429 281.3516275 28.23529053 281.35505676 C26.31547552 281.3601152 24.39565174 281.36246542 22.47583008 281.36230469 C19.5570603 281.3644836 16.63867327 281.3826299 13.7199707 281.40161133 C11.85018032 281.40454709 9.98038815 281.40653066 8.1105957 281.4074707 C6.81330536 281.41824898 6.81330536 281.41824898 5.48980713 281.429245 C-3.87988546 281.39440261 -11.51932849 279.44382742 -18.7175293 273.17700195 C-24.41215184 266.3895947 -26.97626888 259.88282564 -26.94458008 250.97827148 C-26.94487213 250.28489182 -26.94516418 249.59151215 -26.94546509 248.87712097 C-26.94408115 246.60455439 -26.92856468 244.33232316 -26.9128418 242.05981445 C-26.90910833 240.47655415 -26.90626293 238.89329152 -26.90426636 237.31002808 C-26.89665618 233.15732362 -26.87703036 229.00476065 -26.8548584 224.85211182 C-26.83434343 220.60886549 -26.82525259 216.36559615 -26.81518555 212.12231445 C-26.79378183 203.8071456 -26.75967771 195.49209141 -26.7175293 187.17700195 C-27.5199556 187.18366379 -28.3223819 187.19032562 -29.14912415 187.19718933 C-36.75392597 187.25758838 -44.35860959 187.30312148 -51.96358967 187.33243847 C-55.87231589 187.34801789 -59.78084202 187.36911265 -63.68945312 187.40332031 C-67.46961082 187.43619239 -71.24957744 187.45391286 -75.02986717 187.46163368 C-76.46379792 187.46712772 -77.89771957 187.47785449 -79.33156776 187.49419212 C-89.48045972 187.60511086 -99.60008662 187.57284721 -108.0300293 181.23950195 C-116.9985549 172.25838975 -118.38409657 163.2051071 -118.41725159 151.0188446 C-118.39985546 148.92594845 -118.37227175 146.83311438 -118.33496094 144.74047852 C-118.28002792 141.55192197 -118.27343446 138.36598388 -118.27416992 135.17700195 C-118.25942435 133.12229217 -118.24193934 131.06759984 -118.22143555 129.01293945 C-118.21809708 128.07412933 -118.21475861 127.13531921 -118.21131897 126.1680603 C-118.03823279 118.01556899 -116.8494669 109.58201942 -111.1550293 103.36450195 C-110.2559082 102.33389648 -110.2559082 102.33389648 -109.33862305 101.2824707 C-100.2840733 94.00914386 -91.64447896 93.48908661 -80.4284668 93.6887207 C-78.87335353 93.69806506 -77.31822539 93.70517349 -75.76309204 93.7101593 C-71.70215041 93.72910203 -67.64212617 93.77808907 -63.58154297 93.8336792 C-59.42517501 93.88514967 -55.26865645 93.90773219 -51.11206055 93.93286133 C-42.98013267 93.98622355 -34.84894562 94.07137737 -26.7175293 94.17700195 C-26.72641174 93.29496597 -26.73529419 92.41292999 -26.7444458 91.50416565 C-26.82482994 83.1629693 -26.88561431 74.82190438 -26.92477798 66.48040867 C-26.94558987 62.19266197 -26.97378922 57.90523723 -27.01928711 53.61767578 C-27.062975 49.47441919 -27.08671445 45.33147091 -27.09703827 41.18800163 C-27.10438873 39.61284474 -27.11874197 38.03770337 -27.14044952 36.46267891 C-27.29853588 24.50939555 -25.97009722 15.93674251 -17.5847168 6.90356445 C-12.42839716 2.13558688 -6.9563446 0.08385065 0 0 Z " fill="#4FAF43" transform="translate(863.717529296875,714.822998046875)"/>
<path d="M0 0 C1.38638672 0.00737183 1.38638672 0.00737183 2.80078125 0.01489258 C9.80588027 0.13480079 16.05067303 0.98064188 22.6875 3.3125 C23.72777344 3.64121094 24.76804687 3.96992188 25.83984375 4.30859375 C46.07407211 11.26185415 60.70065126 26.63830935 70.25 45.37890625 C74.53333844 54.95267758 76.78306534 64.83527535 76.6875 75.3125 C77.90743652 75.29155273 79.12737305 75.27060547 80.38427734 75.24902344 C84.95023666 75.17611913 89.51614548 75.1305183 94.08251953 75.09277344 C96.05135782 75.07277213 98.02013756 75.04556198 99.98876953 75.01074219 C102.83380658 74.96171469 105.67805215 74.93941618 108.5234375 74.921875 C109.39052338 74.90122986 110.25760925 74.88058472 111.15097046 74.85931396 C119.78340698 74.85620955 127.68632202 77.53534221 134.0859375 83.46484375 C139.65847315 89.89364707 142.78236432 96.31206281 142.89624023 104.79663086 C142.90602402 105.45078979 142.9158078 106.10494873 142.92588806 106.77893066 C142.95580598 108.94504793 142.97722843 111.11110299 142.99609375 113.27734375 C143.00266558 114.02086153 143.0092374 114.76437931 143.01600838 115.53042793 C143.04860117 119.47347231 143.07304092 123.41648987 143.0925293 127.35961914 C143.11026571 130.60416747 143.14495939 133.84783402 143.19506836 137.09204102 C143.25573047 141.02489234 143.28606832 144.95693336 143.29570198 148.89023018 C143.30418773 150.37922155 143.32283298 151.86819536 143.3524456 153.35691643 C143.55503078 164.13000974 142.04034948 172.98056048 134.87840271 181.45249939 C127.42010941 188.59991076 118.62970203 190.92287852 108.54135132 190.81370544 C107.57064969 190.81923984 106.59994806 190.82477424 105.59983122 190.83047634 C102.37406709 190.84399958 99.14908791 190.82915881 95.92333984 190.81420898 C93.59989597 190.81799513 91.27645435 190.82349759 88.95301819 190.83058167 C82.66185505 190.8445133 76.37096609 190.83338303 70.07981825 190.81687045 C64.15784181 190.80440297 58.23589291 190.8086343 52.31390782 190.81200016 C40.58097137 190.81786915 28.84814248 190.80374382 17.11523438 190.77905273 C5.74312308 190.7551238 -5.62884461 190.74805396 -17.00097656 190.75854492 C-29.40256841 190.76996517 -41.80409396 190.77187138 -54.20568502 190.75744683 C-60.76410095 190.74991216 -67.32245956 190.74600421 -73.88087845 190.75195122 C-80.04514112 190.75672705 -86.20920532 190.74659388 -92.37343025 190.72499657 C-94.63410205 190.71943733 -96.89479296 190.71895546 -99.15546608 190.72394943 C-102.24396971 190.72991605 -105.33186932 190.71737029 -108.4203186 190.70018005 C-109.31234942 190.7061901 -110.20438024 190.71220014 -111.12344229 190.71839231 C-120.1936766 190.62674878 -126.60778075 187.86154203 -133.26171875 181.6328125 C-139.40576339 174.68126485 -141.40915702 167.02437592 -141.48950195 157.93676758 C-141.50233719 156.66807327 -141.51517242 155.39937897 -141.52839661 154.09223938 C-141.53656679 152.71384069 -141.54400999 151.33543752 -141.55078125 149.95703125 C-141.55485678 149.25698156 -141.5589323 148.55693188 -141.56313133 147.83566856 C-141.5839423 144.12832313 -141.59826397 140.42101413 -141.60766602 136.71362305 C-141.6187051 132.9086819 -141.65308958 129.10432959 -141.69283772 125.29959583 C-141.7191399 122.35252387 -141.7273699 119.40558924 -141.73094749 116.45841026 C-141.73578041 115.05713625 -141.74729893 113.65586699 -141.76598549 112.25470924 C-141.91267807 100.52410401 -140.3102594 91.67713468 -132.10546875 83 C-124.96100759 76.27580126 -117.95382708 75.02094297 -108.5390625 74.8984375 C-107.6153183 74.87907135 -106.6915741 74.8597052 -105.73983765 74.8397522 C-102.80581736 74.78024295 -99.87175724 74.73368605 -96.9375 74.6875 C-94.94138968 74.64929383 -92.94529537 74.61024058 -90.94921875 74.5703125 C-86.07044349 74.47456504 -81.19159109 74.39042861 -76.3125 74.3125 C-76.12204102 73.16434814 -75.93158203 72.01619629 -75.73535156 70.83325195 C-75.47488564 69.30154805 -75.2141279 67.76989375 -74.953125 66.23828125 C-74.8288916 65.48454224 -74.7046582 64.73080322 -74.57666016 63.95422363 C-71.76204638 47.5843237 -63.77045217 34.12078524 -52.3125 22.3125 C-51.76078125 21.68730469 -51.2090625 21.06210938 -50.640625 20.41796875 C-38.02916119 6.58906166 -18.34422225 -0.11599627 0 0 Z " fill="#50AF43" transform="translate(586.3125,190.6875)"/>
<path d="M0 0 C11.88 -0.12375 11.88 -0.12375 24 -0.25 C26.4646875 -0.28641602 28.929375 -0.32283203 31.46875 -0.36035156 C57.09791101 -0.58023247 79.30447482 5.71389814 98.140625 23.98046875 C111.78671026 37.91427267 121.13062807 58.1958227 121.12304783 77.79831505 C121.12503888 78.93888151 121.12702993 80.07944796 121.12908131 81.25457704 C121.12616847 82.49776724 121.12325563 83.74095744 121.12025452 85.02182007 C121.1206908 86.36343393 121.12156675 87.7050477 121.12284368 89.04666102 C121.12507747 92.72722577 121.12108261 96.40776136 121.11606562 100.0883224 C121.1117453 104.05962418 121.11320867 108.03092432 121.1139679 112.00222778 C121.11449213 118.8807756 121.11135584 125.75931392 121.10573006 132.63785934 C121.09760142 142.58306902 121.09499844 152.5282741 121.09374207 162.47348674 C121.09155369 178.60911746 121.08489942 194.74474312 121.07543945 210.88037109 C121.06625979 226.55419896 121.05918166 242.22802546 121.05493164 257.90185547 C121.05466892 258.8680657 121.05440619 259.83427592 121.05413551 260.82976525 C121.05283047 265.67698052 121.05156676 270.5241958 121.05032361 275.37141109 C121.03995768 315.58094426 121.02234519 355.7904718 121 396 C119.70529785 396.19045898 118.4105957 396.38091797 117.07666016 396.57714844 C115.35574618 396.83757305 113.63488293 397.09833301 111.9140625 397.359375 C111.06336182 397.4836084 110.21266113 397.6078418 109.33618164 397.73583984 C98.15592569 399.44924774 89.4303982 403.43627825 81 411 C80.30003906 411.61875 79.60007812 412.2375 78.87890625 412.875 C73.78739849 417.64889007 70.31126403 422.87917861 67 429 C66.01 428.67 65.02 428.34 64 428 C63.99796521 426.92858607 63.99796521 426.92858607 63.99588931 425.83552742 C63.91524824 383.50656776 63.82429732 341.17764119 63.71994839 298.84873301 C63.70742944 293.7668313 63.69499668 288.68492939 63.68261719 283.60302734 C63.68015119 282.59130742 63.6776852 281.5795875 63.67514448 280.53720939 C63.63541523 264.1532116 63.60266861 247.76920692 63.57250018 231.38518906 C63.54139181 214.57506521 63.50278502 197.76497067 63.45720994 180.95487976 C63.42932179 170.58124759 63.40729014 160.20763687 63.39273749 149.83397728 C63.38219956 142.72144453 63.36438149 135.60895328 63.34083296 128.4964518 C63.3274597 124.39225894 63.31730174 120.28812428 63.31578636 116.18390846 C63.31432744 112.42460303 63.30370299 108.66543774 63.28586559 104.90617537 C63.27873705 102.90590835 63.28134899 100.90561388 63.28433573 98.90533638 C63.21710568 88.12762919 61.7956777 78.68848445 54.50390625 70.2734375 C44.06175028 60.50739235 32.28898228 60.23670371 18.8125 60.1875 C12.934375 60.125625 7.05625 60.06375 1 60 C0.67 40.2 0.34 20.4 0 0 Z " fill="#4FAF43" transform="translate(744,290)"/>
<path d="M0 0 C0.70734771 -0.0055344 1.41469543 -0.01106879 2.14347792 -0.0167709 C4.50197989 -0.03033053 6.85941493 -0.01543481 9.21789551 -0.00050354 C10.91346179 -0.00428844 12.60902499 -0.0097899 14.30458069 -0.01687622 C18.90172085 -0.03082579 23.49848653 -0.01966458 28.09560585 -0.00316501 C32.90944327 0.01069697 37.7232592 0.0042241 42.53710938 0.0007019 C50.62070746 -0.00199931 58.70415699 0.01146775 66.78771973 0.03465271 C76.12974034 0.06126188 85.47151258 0.0630092 94.8135581 0.05126435 C103.80506406 0.04048027 112.79648029 0.04667859 121.78797913 0.06081963 C125.61241276 0.06657396 129.43678062 0.06650109 133.26121521 0.06175423 C137.76583889 0.05697734 142.27019106 0.06711561 146.77476311 0.08870888 C148.42672243 0.09426722 150.0787079 0.09475079 151.73066902 0.08975601 C153.98814508 0.08378707 156.24479549 0.0963382 158.50219727 0.11352539 C159.76463509 0.11595529 161.02707291 0.11838518 162.32776642 0.12088871 C167.40928933 0.68542294 170.64726737 2.27804107 174.06359863 6.06370544 C177.18394802 10.57087678 177.25075567 14.11399408 176.75109863 19.50120544 C174.79857697 24.94771323 171.82307553 27.56058785 167.02142811 30.59386635 C163.89873565 31.84185303 161.22450836 31.75955209 157.86332703 31.76863098 C157.17064439 31.77316209 156.47796175 31.77769321 155.76428872 31.78236163 C153.44366206 31.79501989 151.12326967 31.79338436 148.8026123 31.79173279 C147.1385213 31.7977172 145.47443308 31.80452255 143.81034851 31.81208801 C139.28958356 31.82976526 134.76889431 31.83444415 130.24809813 31.83571959 C126.47333549 31.83761877 122.69859048 31.84497662 118.92383462 31.85206378 C110.01655612 31.8683523 101.10931805 31.87323235 92.20202637 31.87181091 C83.01682197 31.87060971 73.83185263 31.89170629 64.64670771 31.92329824 C56.75867362 31.94946103 48.87071628 31.96017819 40.98263913 31.95890009 C36.27242702 31.95839041 31.56242373 31.96407694 26.85225487 31.9852562 C22.42068017 32.00463834 17.98951346 32.00476329 13.55792427 31.99022293 C11.93378477 31.98813362 10.30961975 31.99284309 8.68552399 32.00494385 C6.4631461 32.02042632 4.24216978 32.01107024 2.01982117 31.99568176 C0.15683522 31.99731606 0.15683522 31.99731606 -1.74378681 31.99898338 C-7.16825104 31.2286295 -10.86374009 28.99572156 -14.62390137 24.93870544 C-17.68063991 20.35359763 -17.89953595 15.85290397 -17.24890137 10.50120544 C-13.56043402 2.98240663 -8.23117279 0.00136454 0 0 Z " fill="#52B146" transform="translate(578.2489013671875,643.4987945556641)"/>
<path d="M0 0 C0.69832618 -0.00467997 1.39665237 -0.00935994 2.11613995 -0.01418173 C4.44994088 -0.0261225 6.7831536 -0.01667842 9.11695862 -0.00723267 C10.79267214 -0.01129882 12.46838298 -0.01664095 14.14408875 -0.02316284 C18.69163804 -0.03683806 23.23898312 -0.03153667 27.78653598 -0.02202559 C32.54699678 -0.01442881 37.30744012 -0.02147477 42.06790161 -0.02618408 C50.06328977 -0.03164211 58.0585948 -0.02444933 66.05397034 -0.01016235 C75.29428475 0.00615867 84.53440053 0.00087983 93.77471012 -0.01564157 C101.71031278 -0.02926174 109.64585568 -0.03117333 117.58146626 -0.02332556 C122.3200853 -0.01865126 127.05861102 -0.01801743 131.79722404 -0.02793503 C136.2533954 -0.03660993 140.70931108 -0.03057321 145.16545486 -0.01325226 C146.79968021 -0.00928998 148.43392712 -0.01041705 150.06814384 -0.01704025 C152.30157776 -0.02525644 154.53419597 -0.01493409 156.76757812 0 C158.01656608 0.00113108 159.26555403 0.00226215 160.5523901 0.00342751 C164.94911952 0.4923588 168.3403176 1.88086406 171.59181213 4.91610718 C175.91057638 10.56372197 176.89253264 14.28625237 175.94728088 21.38095093 C173.78406975 26.22798002 170.65869997 29.00766721 165.94728088 31.38095093 C162.68102455 31.75568104 162.68102455 31.75568104 158.90129089 31.75517273 C157.85485997 31.76113434 157.85485997 31.76113434 156.78728902 31.76721638 C154.4558078 31.77682058 152.12493624 31.76503298 149.79347229 31.75326538 C148.11938247 31.75569402 146.44529409 31.75941403 144.77120972 31.764328 C140.22771478 31.77373226 135.68443545 31.76431468 131.14095736 31.75099587 C126.38363903 31.73967435 121.62633122 31.74378953 116.8690033 31.7457428 C108.87780743 31.74662572 100.8866964 31.73554713 92.89552307 31.71713257 C83.66321387 31.69597946 74.43102907 31.69245202 65.19870055 31.69869453 C56.31240108 31.704395 47.42614531 31.69873353 38.53985214 31.68752098 C34.76091578 31.68288257 30.98200621 31.68199789 27.20306778 31.68410683 C22.74939844 31.6859944 18.29585518 31.67784975 13.84221458 31.66204643 C12.21002283 31.65781376 10.57781826 31.65694617 8.9456234 31.65973663 C6.71269122 31.66297418 4.48013201 31.65383736 2.24723816 31.64164734 C0.37513892 31.63856803 0.37513892 31.63856803 -1.5347805 31.63542652 C-6.61540261 31.26791177 -10.74152558 30.72758213 -14.36521912 27.00595093 C-17.74784188 21.7440933 -19.23853616 17.67093698 -18.05271912 11.38095093 C-14.01761924 3.58065753 -8.82662853 0.00799576 0 0 Z " fill="#52B045" transform="translate(579.0527191162109,497.6190490722656)"/>
<path d="M0 0 C0.68228969 -0.0060911 1.36457938 -0.01218221 2.06754452 -0.01845789 C4.33516564 -0.0349985 6.60221972 -0.03032519 8.86988831 -0.0255127 C10.50324584 -0.03285819 12.13659818 -0.04144582 13.76994324 -0.05117798 C18.1935247 -0.0733506 22.61691964 -0.07632685 27.04054904 -0.07443047 C30.73833139 -0.07431058 34.43607447 -0.08288181 38.13384587 -0.09120798 C46.8595261 -0.11042622 55.58511067 -0.1133314 64.31080627 -0.10656738 C73.30241892 -0.09992537 82.29362147 -0.12280098 91.28515095 -0.15988111 C99.01531345 -0.19059885 106.74534415 -0.20193597 114.47556645 -0.1980443 C119.08799767 -0.19597919 123.7001096 -0.20141936 128.31248283 -0.22593689 C132.65062172 -0.24823628 136.9880945 -0.2463 141.32623672 -0.22600937 C142.91448168 -0.2226051 144.50277177 -0.22766332 146.09095573 -0.24199295 C161.66011723 -0.37273118 161.66011723 -0.37273118 167.87208557 5.39440918 C170.91678125 8.62939834 171.11765386 11.53380208 171.30958557 15.83190918 C171.15598505 20.80055199 170.3377923 23.65509403 166.87208557 27.39440918 C162.35578445 30.95444293 159.42386775 31.89542414 153.69911194 31.90234375 C152.99993133 31.90858371 152.30075072 31.91482368 151.58038282 31.92125273 C149.24953441 31.93714242 146.91973766 31.92459528 144.58888245 31.9119873 C142.91301872 31.91741025 141.23715976 31.92453388 139.56130981 31.93322754 C135.01789953 31.95144341 130.47485308 31.94440058 125.93143654 31.9317112 C121.17364659 31.92157453 116.4158875 31.93097873 111.65809631 31.93725586 C103.66865962 31.94453032 95.67937089 31.93494985 87.68995667 31.91589355 C78.45695306 31.89412519 69.22430278 31.90117671 59.99130774 31.92319918 C52.05991771 31.94135891 44.12863396 31.94390869 36.19722986 31.9334445 C31.46195339 31.92721273 26.72684292 31.92636525 21.99157715 31.93959045 C17.53942283 31.95115668 13.08772345 31.94310923 8.63561821 31.92001343 C7.00300794 31.91473045 5.37035929 31.91623312 3.73776436 31.92506409 C1.50634817 31.93602013 -0.72361672 31.9222576 -2.9549408 31.90234375 C-4.20262993 31.90083565 -5.45031906 31.89932755 -6.73581696 31.89777374 C-11.54021572 31.18483312 -14.56331009 28.93912448 -17.97166443 25.57409668 C-20.55755092 20.69935119 -19.77723504 14.71883822 -19.12791443 9.39440918 C-17.47165481 5.35313572 -14.76354259 3.71238641 -10.88981533 1.7745285 C-7.21711432 0.26572551 -3.98799766 0.01224207 0 0 Z " fill="#51B045" transform="translate(527.1279144287109,786.6055908203125)"/>
<path d="M0 0 C4.28590933 2.79515826 7.22425239 5.92275717 8.875 10.875 C9.62452475 17.08534796 8.58974838 20.0795392 5.06616211 25.14550781 C0.2005841 31.20647295 -5.50709971 36.5172676 -11.0625 41.9375 C-13.55459148 44.38286677 -16.04229234 46.83263648 -18.52734375 49.28515625 C-19.12297119 49.87210266 -19.71859863 50.45904907 -20.33227539 51.06378174 C-23.85504616 54.55457934 -27.1890166 58.13331437 -30.39575195 61.91870117 C-34.28843081 66.32248992 -38.56657351 70.37516492 -42.75 74.5 C-49.68375669 81.21305681 -49.68375669 81.21305681 -56.1015625 88.40625 C-58.99800058 91.94012812 -61.75051152 93.52907632 -66.296875 94.19140625 C-73.14373391 94.54753482 -76.62363028 92.02319233 -81.80859375 87.5703125 C-83.17177734 86.29800781 -83.17177734 86.29800781 -84.5625 85 C-85.06402588 84.53311768 -85.56555176 84.06623535 -86.08227539 83.58520508 C-87.17486675 82.56739183 -88.26587204 81.54787393 -89.35546875 80.52685547 C-91.24889433 78.75934478 -93.15474501 77.00593562 -95.0625 75.25390625 C-96.396043 74.02366474 -97.72937925 72.79319906 -99.0625 71.5625 C-99.68890381 70.98838379 -100.31530762 70.41426758 -100.96069336 69.82275391 C-112.19756917 59.39379754 -112.19756917 59.39379754 -112.5625 52.25 C-112.51792217 47.12354948 -111.08206885 44.27641293 -107.76171875 40.4375 C-104.4355359 37.26214644 -101.80066208 36.96361142 -97.3125 36.375 C-89.89736126 36.58407346 -84.76400518 43.0647533 -79.93359375 48.0625 C-76.82434328 51.17846591 -73.4698757 54.01665168 -70.125 56.875 C-66.9010483 55.45960657 -64.76833208 53.76085072 -62.3125 51.25 C-61.68730469 50.61835938 -61.06210937 49.98671875 -60.41796875 49.3359375 C-58.53381737 47.31376481 -56.72712808 45.25879675 -54.92578125 43.1640625 C-50.16279155 37.69136632 -44.96712203 32.66943541 -39.796875 27.5859375 C-35.60510422 23.43693989 -31.60066399 19.21279108 -27.75537109 14.74121094 C-25.25879065 11.88348993 -22.61814508 9.18413097 -19.9375 6.5 C-19.43025391 5.98050781 -18.92300781 5.46101563 -18.40039062 4.92578125 C-12.68755463 -0.80928368 -8.01785366 -2.88642732 0 0 Z " fill="#53B046" transform="translate(525.125,461.125)"/>
<path d="M0 0 C5.35755096 1.92063148 8.45837216 4.91674432 11 10 C11.23828125 12.171875 11.23828125 12.171875 11.3125 14.75 C11.36857422 16.01070312 11.36857422 16.01070312 11.42578125 17.296875 C10.2859156 24.53345323 3.68572673 29.51933289 -1.3125 34.375 C-7.52320921 40.43378063 -7.52320921 40.43378063 -13.35546875 46.8515625 C-18.38311684 52.70262393 -23.96771235 58.02446707 -29.45703125 63.43652344 C-34.65424298 68.56719405 -39.75850975 73.72025975 -44.51123047 79.27099609 C-46.60801379 81.70612556 -48.81269699 84.0187984 -51.0625 86.3125 C-51.85785156 87.13363281 -52.65320313 87.95476562 -53.47265625 88.80078125 C-58.46264048 93.14291591 -62.97745937 94.70232209 -69.48828125 94.46875 C-76.73159972 93.11696428 -81.87332592 86.25640976 -86.7890625 81.21484375 C-88.75288297 79.24755364 -90.75946172 77.42536625 -92.875 75.625 C-96.33399018 72.64719999 -99.62736403 69.51772479 -102.875 66.3125 C-103.80054688 65.40113281 -104.72609375 64.48976563 -105.6796875 63.55078125 C-109.65245034 59.18341739 -110.459177 56.04258606 -110.31640625 50.24609375 C-109.67233102 45.67395479 -106.85249617 42.98166226 -103.9375 39.625 C-99.3426993 37.08319536 -95.119776 37.07439078 -90 38 C-83.7581448 40.91590316 -79.00339767 46.85157343 -74.296875 51.73046875 C-72.29316254 53.71032749 -70.29841537 55.38162037 -68 57 C-64.98611927 55.64941886 -62.8965323 54.14395225 -60.57421875 51.8046875 C-59.94193359 51.17046875 -59.30964844 50.53625 -58.65820312 49.8828125 C-58.00787109 49.22023438 -57.35753906 48.55765625 -56.6875 47.875 C-56.04876953 47.235625 -55.41003906 46.59625 -54.75195312 45.9375 C-51.60154424 42.75836398 -48.55906848 39.52983246 -45.64453125 36.1328125 C-40.55492272 30.24290591 -34.92459583 24.88094515 -29.3828125 19.421875 C-24.88892463 14.96896483 -20.54235067 10.47834989 -16.46044922 5.64257812 C-11.61574582 0.1937041 -6.98321091 -1.028049 0 0 Z " fill="#51AF45" transform="translate(523,606)"/>
<path d="M0 0 C7.16155671 5.65793982 10.84794028 12.62491824 11.9921875 21.61328125 C12.11078125 22.37253906 12.229375 23.13179687 12.3515625 23.9140625 C13.05043999 32.12587297 9.29306543 38.90130508 4.9921875 45.61328125 C-0.7143064 52.30057878 -7.23388783 55.45298728 -15.9453125 56.42578125 C-25.46411325 56.96971272 -32.37783977 54.41563907 -40.0078125 48.61328125 C-42.36730419 46.13012647 -44.21655258 43.52556145 -46.0078125 40.61328125 C-46.6059375 39.72640625 -47.2040625 38.83953125 -47.8203125 37.92578125 C-51.00488437 29.04250183 -50.75761457 19.96665459 -47.0390625 11.375 C-43.47338818 4.20751278 -38.36527715 -1.30067602 -30.8203125 -4.26171875 C-18.87463355 -7.78667319 -10.40434427 -7.1858798 0 0 Z " fill="#53B146" transform="translate(463.0078125,775.38671875)"/>
<path d="M0 0 C6.38308126 5.95949005 9.12396226 12.62675467 9.51171875 21.3125 C9.01195203 28.99518846 6.02489909 36.15933127 0.3125 41.375 C-6.70226354 45.56104589 -13.37869046 48.41727116 -21.6875 47.375 C-29.93228768 44.89589718 -36.30588802 40.27718373 -40.625 32.8125 C-43.74381647 25.92209153 -44.03136338 18.80111883 -41.8359375 11.5703125 C-38.55349181 4.22388643 -33.07308957 -1.3591612 -25.6875 -4.625 C-16.10089054 -6.80377488 -7.84730357 -6.114782 0 0 Z " fill="#E8F5E8" transform="translate(603.6875,242.625)"/>
<path d="M0 0 C1.34595497 0.00848969 1.34595497 0.00848969 2.71910095 0.01715088 C5.5515857 0.03932877 8.38274914 0.08948761 11.21484375 0.140625 C13.14907012 0.16071413 15.08331655 0.17896064 17.01757812 0.1953125 C21.72966651 0.23913221 26.44078206 0.30802733 31.15234375 0.390625 C31.15234375 0.720625 31.15234375 1.050625 31.15234375 1.390625 C29.38189697 1.41249878 29.38189697 1.41249878 27.57568359 1.43481445 C23.18085 1.49295197 18.78652049 1.57018381 14.39208984 1.65307617 C12.49308476 1.68625293 10.59398279 1.71430731 8.69482422 1.73706055 C5.9588914 1.77074018 3.22384064 1.8230622 0.48828125 1.87890625 C-0.35570221 1.88529617 -1.19968567 1.8916861 -2.06924438 1.89826965 C-7.16616509 2.02432184 -10.27425343 2.9799786 -14.84765625 5.390625 C-17.01431274 4.97846985 -17.01431274 4.97846985 -18.84765625 4.390625 C-12.40636083 0.97150168 -7.25242545 -0.17607248 0 0 Z " fill="#7BC272" transform="translate(477.84765625,265.609375)"/>
<path d="M0 0 C0.66 0.33 1.32 0.66 2 1 C-1.7625584 5.44006088 -5.63937323 9.7553293 -9.6875 13.9375 C-10.41324219 14.68902344 -11.13898438 15.44054687 -11.88671875 16.21484375 C-14.01241738 18.01048936 -15.28184674 18.61344547 -18 19 C-12.44964797 12.21623641 -6.23557973 6.14477032 0 0 Z " fill="#59B54E" transform="translate(511,462)"/>
<path d="M0 0 C0.33 0 0.66 0 1 0 C1.37471526 4.45978075 1.37471526 4.45978075 -0.28515625 6.8527832 C-0.87167969 7.41312256 -1.45820312 7.97346191 -2.0625 8.55078125 C-3.00996094 9.47407227 -3.00996094 9.47407227 -3.9765625 10.41601562 C-4.64429688 11.04185547 -5.31203125 11.66769531 -6 12.3125 C-7.00160156 13.28026367 -7.00160156 13.28026367 -8.0234375 14.26757812 C-9.67161203 15.85688927 -11.33029098 17.43337902 -13 19 C-13.99 18.67 -14.98 18.34 -16 18 C-15.55084229 17.56131592 -15.10168457 17.12263184 -14.63891602 16.6706543 C-12.60822431 14.68151799 -10.5853172 12.68464228 -8.5625 10.6875 C-7.85544922 9.99720703 -7.14839844 9.30691406 -6.41992188 8.59570312 C-5.40961914 7.59506836 -5.40961914 7.59506836 -4.37890625 6.57421875 C-3.44413452 5.65515747 -3.44413452 5.65515747 -2.49047852 4.7175293 C-0.77441733 2.96150438 -0.77441733 2.96150438 0 0 Z " fill="#DCF1DA" transform="translate(532,627)"/>
<path d="M0 0 C0.99 0.33 1.98 0.66 3 1 C-1.62 5.62 -6.24 10.24 -11 15 C-11.99 14.67 -12.98 14.34 -14 14 C-9.38 9.38 -4.76 4.76 0 0 Z " fill="#5BB750" transform="translate(489,630)"/>
<path d="M0 0 C0.66 0 1.32 0 2 0 C1.95875 1.155 1.9175 2.31 1.875 3.5 C1.85912567 7.94481301 2.78206895 11.73724131 4 16 C3.34 16.33 2.68 16.66 2 17 C-1.10359396 11.95665982 -1.60014069 7.77058356 -1 2 C-0.67 1.34 -0.34 0.68 0 0 Z " fill="#61B855" transform="translate(562,507)"/>
<path d="M0 0 C4.13621084 3.3810038 7.81316569 6.66590534 11 11 C8 11 8 11 5.95703125 9.35546875 C5.24933594 8.64003906 4.54164063 7.92460938 3.8125 7.1875 C2.73935547 6.12595703 2.73935547 6.12595703 1.64453125 5.04296875 C0 3 0 3 0 0 Z " fill="#5AB64F" transform="translate(420,669)"/>
<path d="M0 0 C0.66 0.66 1.32 1.32 2 2 C-1.465 4.97 -1.465 4.97 -5 8 C-5.66 7.67 -6.32 7.34 -7 7 C-4.69 4.69 -2.38 2.38 0 0 Z " fill="#E2F2E0" transform="translate(515,501)"/>
<path d="M0 0 C0.33 0.99 0.66 1.98 1 3 C0.113125 3.556875 -0.77375 4.11375 -1.6875 4.6875 C-4.84279378 6.77853792 -7.39868111 9.24566235 -10 12 C-10.66 11.67 -11.32 11.34 -12 11 C-10.75323147 9.72599623 -9.5024352 8.45593346 -8.25 7.1875 C-7.55390625 6.47980469 -6.8578125 5.77210938 -6.140625 5.04296875 C-4.18571355 3.17724121 -2.19661447 1.56830358 0 0 Z " fill="#60B955" transform="translate(340,306)"/>
<path d="M0 0 C1.12894876 0.93274109 2.25300876 1.87140122 3.375 2.8125 C4.00148438 3.33457031 4.62796875 3.85664062 5.2734375 4.39453125 C7 6 7 6 9 9 C6 9 6 9 4.39453125 7.79296875 C3.87246094 7.26316406 3.35039062 6.73335937 2.8125 6.1875 C2.01779297 5.40439453 2.01779297 5.40439453 1.20703125 4.60546875 C0 3 0 3 0 0 Z " fill="#57B44C" transform="translate(438,686)"/>
<path d="M0 0 C0.66 0.33 1.32 0.66 2 1 C0.02 3.31 -1.96 5.62 -4 8 C-4.66 7.67 -5.32 7.34 -6 7 C-4.02 4.69 -2.04 2.38 0 0 Z " fill="#5DB852" transform="translate(456,272)"/>
<path d="M0 0 C0 3.90838866 -1.50567876 5.11594107 -4 8 C-4.99 7.67 -5.98 7.34 -7 7 C-4.69 4.69 -2.38 2.38 0 0 Z " fill="#D9F0D7" transform="translate(481,536)"/>
<path d="M0 0 C0.66 0.33 1.32 0.66 2 1 C1.34 2.98 0.68 4.96 0 7 C-0.66 6.67 -1.32 6.34 -2 6 C-1.125 1.125 -1.125 1.125 0 0 Z " fill="#62B959" transform="translate(750,822)"/>
<path d="M0 0 C-1.15173355 2.46800047 -2.04783565 4.04783565 -4 6 C-4.99 5.67 -5.98 5.34 -7 5 C-2.25 0 -2.25 0 0 0 Z " fill="#60B755" transform="translate(509,611)"/>
<path d="M0 0 C0.99 0.33 1.98 0.66 3 1 C0.03 3.475 0.03 3.475 -3 6 C-3.66 5.67 -4.32 5.34 -5 5 C-3.35 3.35 -1.7 1.7 0 0 Z " fill="#61B857" transform="translate(498,475)"/>
<path d="M0 0 C0.53625 0.226875 1.0725 0.45375 1.625 0.6875 C-3.79038462 3.76442308 -3.79038462 3.76442308 -6.75 3.375 C-7.554375 3.0346875 -7.554375 3.0346875 -8.375 2.6875 C-2.95961538 -0.38942308 -2.95961538 -0.38942308 0 0 Z " fill="#68BB5E" transform="translate(467.375,267.3125)"/>
</svg>
