<?xml version="1.0" encoding="UTF-8"?>
<svg version="1.1" xmlns="http://www.w3.org/2000/svg" width="1254" height="1254">
<path d="M0 0 C413.82 0 827.64 0 1254 0 C1254 413.82 1254 827.64 1254 1254 C840.18 1254 426.36 1254 0 1254 C0 840.18 0 426.36 0 0 Z " fill="#ECF6EB" transform="translate(0,0)"/>
<path d="M0 0 C413.82 0 827.64 0 1254 0 C1254 413.82 1254 827.64 1254 1254 C840.18 1254 426.36 1254 0 1254 C0 840.18 0 426.36 0 0 Z M539 62 C537.51835587 62.25074982 536.0365839 62.50074541 534.5546875 62.75 C519.22768017 64.06363925 519.22768017 64.06363925 506 69 C504.03633989 69.45153886 502.06261696 69.85937657 500.0859375 70.25 C491.960258 71.94722685 483.99302334 74.09298559 476.00244141 76.33398438 C473.60868863 77.00456946 471.2127148 77.66673799 468.81640625 78.328125 C467.26548711 78.75992169 465.71470093 79.19219631 464.1640625 79.625 C463.46181549 79.81884277 462.75956848 80.01268555 462.03604126 80.21240234 C457.25050725 81.56164289 452.63654913 83.2099909 448 85 C445.93575231 85.75884433 443.87068389 86.51546087 441.8046875 87.26953125 C430.06553152 91.57144226 418.42354446 95.91306772 407 101 C404.70859057 101.95894823 402.41691518 102.91726114 400.125 103.875 C392.24506555 107.26823169 384.60646317 111.0419313 377 115 C375.46255127 115.79954102 375.46255127 115.79954102 373.89404297 116.61523438 C358.20905178 124.81046759 342.86199631 133.36829552 328 143 C327.30100586 143.45213867 326.60201172 143.90427734 325.88183594 144.37011719 C316.73505733 150.31574497 307.80550725 156.56123671 299 163 C298.35385742 163.47195801 297.70771484 163.94391602 297.04199219 164.43017578 C288.28408261 170.8513717 279.81155763 177.50243997 271.60644531 184.61572266 C269.97505203 186.02149772 268.32963379 187.40903421 266.6796875 188.79296875 C254.02971786 199.43984509 242.09206512 210.84070862 230.375 222.5 C229.417146 223.45084473 229.417146 223.45084473 228.43994141 224.42089844 C224.65923759 228.21454646 221.07277695 232.13019513 217.57177734 236.18310547 C215.62865843 238.42925193 213.62886925 240.62052809 211.625 242.8125 C198.02343089 257.92281459 185.52771453 274.25884202 174 291 C173.39792725 291.87422607 173.39792725 291.87422607 172.78369141 292.76611328 C165.81158821 302.94676457 159.34190537 313.41798661 153 324 C152.56123535 324.73041504 152.1224707 325.46083008 151.67041016 326.21337891 C142.99140233 340.69568296 135.17985252 355.40143297 128.02734375 370.6953125 C126.53155517 373.88952279 124.98624311 377.04953802 123.375 380.1875 C118.32555902 390.16407716 114.03853623 400.57957935 110 411 C109.45279297 412.38251953 109.45279297 412.38251953 108.89453125 413.79296875 C101.41788758 432.86835298 101.41788758 432.86835298 95.703125 452.515625 C95 455 95 455 93.57421875 458.66796875 C91.78041413 463.36916312 90.66821319 468.16133058 89.5625 473.0625 C88.14577241 479.2107242 86.66719232 485.30745724 84.9375 491.375 C82.72522373 499.49262663 81.39235222 507.73569128 80.02734375 516.03125 C79.31492907 520.34092356 78.45316251 524.59908355 77.54296875 528.87109375 C75.74327844 537.76507628 74.70261829 546.72098508 73.69238281 555.73413086 C73.37499394 558.562554 73.04763702 561.38968997 72.71875 564.21679688 C72.50722798 566.0624331 72.29627146 567.90813425 72.0859375 569.75390625 C71.99114105 570.57516495 71.8963446 571.39642365 71.79867554 572.24256897 C70.43591518 584.48196774 69.8384796 596.66393487 69.796875 608.9765625 C69.789854 610.38321464 69.78276717 611.78986645 69.77561951 613.19651794 C69.75619826 617.67268323 69.75118485 622.14879684 69.75 626.625 C69.74955814 627.3875346 69.74911629 628.1500692 69.74866104 628.93571091 C69.74162352 652.0868349 70.08310719 675.00350169 73 698 C73.1738667 699.43108843 73.34719199 700.86224273 73.52001953 702.29345703 C81.23989826 765.40924253 98.5006628 827.76297204 126.89306641 884.77587891 C127.95572585 886.91104157 129.00141045 889.05369998 130.04296875 891.19921875 C139.1590777 909.86596815 149.8180699 927.50482707 161 945 C161.61488281 945.96292969 161.61488281 945.96292969 162.2421875 946.9453125 C171.5000708 961.35419854 181.80828403 975.08972115 192.64501953 988.34082031 C193.91499318 989.89590876 195.17467429 991.45938668 196.43359375 993.0234375 C200.76113875 998.37849319 205.23435908 1003.55946094 209.8671875 1008.65234375 C213.97031822 1013.1687935 217.99642354 1017.73824861 221.8125 1022.5 C222.534375 1023.325 223.25625 1024.15 224 1025 C224.66 1025 225.32 1025 226 1025 C226.21398437 1025.54011719 226.42796875 1026.08023438 226.6484375 1026.63671875 C228.48639359 1029.8504859 230.99685033 1032.24896372 233.625 1034.8125 C234.43469238 1035.61252441 234.43469238 1035.61252441 235.26074219 1036.42871094 C238.77903969 1039.87987337 242.39690285 1043.17467717 246.15234375 1046.3671875 C248.13682557 1048.12091562 249.96819481 1049.97480677 251.8125 1051.875 C255.72417412 1055.84803372 259.95506726 1059.31081794 264.30078125 1062.796875 C266.65214188 1064.71607528 268.89313859 1066.6951334 271.125 1068.75 C277.35365217 1074.34579446 284.10090038 1079.29590833 290.78466797 1084.32861328 C292.90550048 1085.92870358 295.01814274 1087.53900519 297.12890625 1089.15234375 C324.05556188 1109.66024562 353.50479346 1127.34732733 384 1142 C385.86723655 1142.90614894 387.73442027 1143.81240674 389.6015625 1144.71875 C429.85117214 1164.18461412 472.61311448 1179.39380254 516.64941406 1187.54833984 C518.96043309 1187.9923973 521.25665353 1188.48160867 523.5546875 1188.98828125 C533.88531111 1191.23798908 544.26367759 1192.80517518 554.75 1194.125 C555.9968457 1194.28355469 557.24369141 1194.44210937 558.52832031 1194.60546875 C562.6821761 1195.1094798 566.83837058 1195.56589416 571 1196 C571.83064972 1196.08933807 572.66129944 1196.17867615 573.51712036 1196.27072144 C590.35498982 1198.0362071 607.13953133 1198.34464173 624.05053711 1198.31567383 C626.95922409 1198.31106598 629.86749043 1198.31789867 632.77612305 1198.33618164 C658.91215723 1198.49879018 685.15866634 1197.59763808 710.85400391 1192.40478516 C713.3369843 1191.93643686 715.82633928 1191.54891185 718.32421875 1191.16796875 C742.50871105 1187.45617581 765.88417628 1181.30370282 789.17626953 1173.8828125 C792.46403602 1172.85492355 795.76923284 1171.90467777 799.08422852 1170.96923828 C807.66027209 1168.54624466 815.78705881 1165.46339914 824 1162 C825.04929687 1161.56558594 826.09859375 1161.13117188 827.1796875 1160.68359375 C829.15546603 1159.86505693 831.12948956 1159.04226846 833.1015625 1158.21484375 C835.0730175 1157.3885331 837.04709057 1156.56844717 839.0234375 1155.75390625 C850.50043944 1151.01853656 861.67444698 1145.78461221 872.73535156 1140.15087891 C874.2611884 1139.37545902 875.78923972 1138.6043832 877.31933594 1137.83740234 C914.62125386 1119.11028593 949.49412124 1095.34857005 981 1068 C982.09874854 1067.07242491 983.19905621 1066.14669405 984.30078125 1065.22265625 C1000.78336968 1051.35273093 1017.29756331 1036.51197811 1031.23828125 1020.04296875 C1033.09071375 1017.89480423 1035.00836554 1015.81394303 1036.93847656 1013.7355957 C1042.55184786 1007.68624367 1047.84107266 1001.44440263 1053 995 C1053.93404903 993.85738016 1054.86899094 992.71548981 1055.8046875 991.57421875 C1062.81946598 982.97386083 1069.32846453 974.09629488 1075.63769531 964.96777344 C1076.87285663 963.18365154 1078.11744876 961.40673834 1079.3671875 959.6328125 C1100.43009233 929.57507286 1119.26533956 897.37873575 1133.16796875 863.35546875 C1134.34859318 860.47223964 1135.63130179 857.6949429 1137.05859375 854.92578125 C1139.03373658 851.05553656 1140.49133909 847.11308753 1141.875 843 C1142.3917471 841.49688551 1142.91001263 839.99429228 1143.4296875 838.4921875 C1143.81979004 837.36441895 1143.81979004 837.36441895 1144.21777344 836.21386719 C1145.18371262 833.4800543 1146.21317343 830.77391264 1147.25390625 828.06787109 C1161.82148923 790.13304604 1171.77426464 748.79517094 1175.74853516 708.3515625 C1176.06867392 705.35779883 1176.5488317 702.40364479 1177.0625 699.4375 C1180.35351471 678.47408619 1180.34740634 657.31881035 1180.31567383 636.15917969 C1180.31106429 632.82082566 1180.31790011 629.48283793 1180.33618164 626.14453125 C1180.4319924 608.46709864 1180.19611414 590.92036561 1178.60546875 573.3046875 C1178.54283655 572.60862522 1178.48020435 571.91256294 1178.41567421 571.19540787 C1177.71387939 563.59281169 1176.78141018 556.07429012 1175.43942261 548.55767822 C1174.64639483 543.94182589 1174.19188584 539.28851193 1173.70117188 534.6328125 C1173.3227667 530.69094953 1173.3227667 530.69094953 1172 527 C1171.70170807 524.96216404 1171.43664987 522.91942604 1171.1875 520.875 C1170.35403606 514.78573731 1169.08597701 508.96348428 1167.52758789 503.02368164 C1166.38561236 498.64199971 1165.44713028 494.26854341 1164.625 489.8125 C1159.50293614 463.63003525 1150.95729877 436.0405323 1140.484375 411.5390625 C1139.31556975 408.75238471 1138.18528981 405.95968278 1137.078125 403.1484375 C1136.56427246 401.84616211 1136.56427246 401.84616211 1136.04003906 400.51757812 C1135.3666835 398.80668596 1134.69654843 397.09452134 1134.03027344 395.38085938 C1132.01374539 390.27340691 1129.75046588 385.37323066 1127.25439453 380.48291016 C1126.03816072 378.07553417 1124.8821552 375.64922133 1123.74609375 373.203125 C1110.07537034 343.81077415 1093.81999093 315.40277452 1075 289 C1073.92046746 287.46622005 1072.84104134 285.9323652 1071.76171875 284.3984375 C1065.01434 274.8747462 1057.89788345 265.72806132 1050.44433594 256.74853516 C1048.39626483 254.26910898 1046.39006309 251.75627954 1044.375 249.25 C1040.31275729 244.28751669 1036.02032173 239.57041512 1031.65625 234.875 C1029.39550167 232.4280724 1027.19344883 229.94429867 1025 227.4375 C1020.32119687 222.2237339 1015.38240738 217.27303784 1010.4375 212.3125 C1009.63376953 211.50417725 1008.83003906 210.69585449 1008.00195312 209.86303711 C1003.71677379 205.58884316 999.35570578 201.47255413 994.7668457 197.52612305 C992.41358541 195.49348106 990.14906182 193.3705078 987.875 191.25 C982.08407684 185.97027557 975.9836102 181.16546541 969.78076172 176.38232422 C968.05223589 175.04054834 966.33830927 173.68243138 964.62890625 172.31640625 C943.26925928 155.27024199 920.62813201 140.68180504 897 127 C896.2476709 126.56381348 895.4953418 126.12762695 894.72021484 125.67822266 C880.10739682 117.23983478 865.0868318 109.93361329 849.66796875 103.08984375 C845.95316852 101.43840908 842.28677782 99.7037693 838.625 97.9375 C830.20599343 94.03099438 821.42248529 91.04216257 812.68017578 87.95068359 C810.25009559 87.08871126 807.82534715 86.21365675 805.40234375 85.33203125 C791.66692021 80.35915827 777.75605822 76.33210302 763.56518555 72.87475586 C759.90386574 71.98241738 756.2563046 71.07097124 752.62402344 70.06518555 C743.31675241 67.49092521 734.01644876 65.56026807 724.5 63.9375 C723.38833466 63.74565125 723.38833466 63.74565125 722.25421143 63.54992676 C709.54331763 61.35979016 696.84196541 59.26269489 684 58 C682.95650391 57.89703613 681.91300781 57.79407227 680.83789062 57.68798828 C634.0751821 53.37802985 585.32433026 53.81383211 539 62 Z " fill="#FEFDFD" transform="translate(0,0)"/>
<path d="M0 0 C0.94537455 -0.00260775 1.8907491 -0.00521549 2.86477137 -0.00790226 C3.91562339 -0.00567154 4.96647542 -0.00344082 6.04917145 -0.0011425 C7.155963 -0.00270249 8.26275455 -0.00426248 9.40308523 -0.00586975 C13.14275251 -0.00988497 16.88237979 -0.00668809 20.62204742 -0.00355339 C23.29049042 -0.0049072 25.95893059 -0.0066506 28.62737274 -0.00886345 C35.14142201 -0.01332186 41.6554598 -0.01234437 48.16950953 -0.00945081 C53.46124086 -0.00719705 58.75296895 -0.00688413 64.04470062 -0.00797462 C65.17224865 -0.00820447 65.17224865 -0.00820447 66.32257542 -0.00843897 C67.84939516 -0.00875868 69.37621489 -0.00908289 70.90303463 -0.00941156 C85.23704484 -0.01226656 99.57104868 -0.00897901 113.90505785 -0.00361119 C126.21778804 0.00085686 138.53050881 0.00008094 150.84323883 -0.00452995 C165.12419048 -0.00987536 179.40513653 -0.01199187 193.68608904 -0.00891769 C195.20745118 -0.00859912 196.72881333 -0.00828475 198.25017548 -0.00797462 C198.99881366 -0.00782035 199.74745184 -0.00766607 200.51877603 -0.00750712 C205.80724477 -0.00664187 211.09570997 -0.00810503 216.38417816 -0.01045418 C222.82461107 -0.01325201 229.26503179 -0.01251428 235.70546329 -0.00717343 C238.99463497 -0.00453618 242.28378195 -0.00406551 245.57295418 -0.00682259 C249.13055838 -0.00953094 252.68810423 -0.00615684 256.24570465 -0.0011425 C257.82198269 -0.00448858 257.82198269 -0.00448858 259.43010473 -0.00790226 C260.37547928 -0.00529452 261.32085383 -0.00268677 262.2948761 0 C263.11718798 0.00016235 263.93949986 0.0003247 264.78673029 0.00049198 C266.64743805 0.12584114 266.64743805 0.12584114 267.64743805 1.12584114 C267.74230249 2.91561698 267.83123917 4.70596322 267.8857193 6.49742317 C268.04859647 16.52314676 268.04859647 16.52314676 272.64743805 25.12584114 C275.47839699 27.42121325 278.53429607 29.24081939 281.64743805 31.12584114 C298.67634656 42.54464277 309.98237417 56.26164718 315.64743805 76.12584114 C317.72064869 87.0327319 320.67430257 106.04853363 315.47995758 116.46763802 C312.23109891 120.19832347 308.04943975 122.03063283 303.64743805 124.12584114 C291.38158328 134.8281848 284.85067901 152.24380242 283.64743805 168.12584114 C283.5121329 172.15764197 283.50973159 176.18576233 283.51613617 180.21956062 C283.51402046 181.41188651 283.51190474 182.6042124 283.50972492 183.83266938 C283.50479117 187.12036821 283.50422287 190.40803403 283.50546563 193.69573522 C283.50568196 197.25001724 283.50009348 200.8042904 283.49506378 204.35856819 C283.48697175 210.51184647 283.48201425 216.66512063 283.47877312 222.81840324 C283.47326042 232.55079314 283.45634727 242.2831483 283.43743134 252.0155201 C283.43107551 255.34951014 283.42476697 258.68350027 283.41845417 262.01749039 C283.41687041 262.85056623 283.41528665 263.68364208 283.41365489 264.54196265 C283.39573787 274.0134418 283.37950127 283.48492337 283.36447906 292.95640755 C283.36310319 293.82169213 283.36172732 294.68697672 283.36030976 295.57848205 C283.33837591 309.60283937 283.32762148 323.62718766 283.32010832 337.6515591 C283.31202967 352.06750574 283.28871777 366.48337523 283.25215465 380.89927781 C283.2301688 389.78183292 283.22045296 398.66422923 283.22665498 407.54681017 C283.22983616 413.63610716 283.21845615 419.72526872 283.19576057 425.8145238 C283.18312951 429.32380764 283.17687821 432.83278962 283.18817711 436.34208488 C283.1970702 440.15441286 283.1813622 443.96589495 283.15969086 447.77815437 C283.16813339 448.87613094 283.17657593 449.97410751 283.1852743 451.1053561 C283.06526671 462.55669291 279.59545467 471.80399143 271.64743805 480.12584114 C261.04479603 490.00106697 247.45025195 492.47480614 233.43967438 492.28599739 C232.35559799 492.27998009 231.27152161 492.27396278 230.15459442 492.26776314 C227.81547681 492.25463121 225.47637875 492.23753004 223.13731575 492.21684456 C218.16147568 492.1780708 213.18583426 492.17610151 208.20986462 492.17204475 C198.95856146 492.16431769 189.70811654 492.14236371 180.4572525 492.0540638 C174.0079594 491.99392001 167.56016011 491.9822368 161.11063957 492.00276375 C158.6565746 492.00148637 156.20245004 491.98217919 153.74867439 491.94447517 C150.31973191 491.89388208 146.8961209 491.90509611 143.46701813 491.93052864 C142.45544647 491.90078453 141.44387482 491.87104042 140.40164948 491.84039497 C137.49319016 491.90017078 135.35322102 492.04713835 132.64743805 493.12584114 C129.97416654 496.17950082 128.36008421 499.47297646 126.64743805 503.12584114 C118.6517708 514.45303641 103.78440241 521.55734483 90.64743805 525.12584114 C69.1774487 528.60393684 48.00744991 526.56983327 29.7060318 514.12584114 C22.44600369 508.59439115 17.42642561 502.23528851 13.6435318 493.91880989 C12.65595408 491.8125075 12.65595408 491.8125075 9.77243805 490.25084114 C6.24676484 487.85338336 4.55080117 485.93256737 2.64743805 482.12584114 C2.72530058 478.54416465 3.80248733 475.66790536 5.08493805 472.37584114 C11.74684887 455.16893073 10.67613149 433.3422083 4.64743805 416.12584114 C4.28521149 415.0546302 3.92298492 413.98341927 3.5497818 412.87974739 C0.21238151 403.99886865 -5.11266595 396.76140508 -11.35256195 389.68834114 C-13.35256195 387.12584114 -13.35256195 387.12584114 -13.35256195 383.12584114 C-13.89912445 382.86029427 -14.44568695 382.59474739 -15.00881195 382.32115364 C-16.68032017 381.46868445 -18.32415509 380.56102947 -19.94631195 379.61802864 C-31.10434505 373.40912313 -40.64625052 374.8380822 -52.82985687 376.50084114 C-54.66609926 376.74688119 -56.50912468 376.94128528 -58.35256195 377.12584114 C-59.97869114 375.49971195 -59.48224311 373.69712359 -59.48678303 371.45039272 C-59.49124087 370.43291716 -59.49569872 369.4154416 -59.50029165 368.36713344 C-59.50010728 367.23565716 -59.49992292 366.10418088 -59.49973297 364.93841743 C-59.50340966 363.74687654 -59.50708635 362.55533564 -59.51087445 361.32768744 C-59.52002361 358.00489884 -59.52461591 354.68215972 -59.52726376 351.3593632 C-59.53115873 347.78102128 -59.54073815 344.20269378 -59.54947662 340.62436104 C-59.56927223 331.97057434 -59.5793148 323.31678642 -59.58820441 314.66298273 C-59.5925855 310.58685211 -59.59795307 306.51072279 -59.60319328 302.4345932 C-59.62021475 288.8799183 -59.63470561 275.32524422 -59.64194202 261.77056026 C-59.64385193 258.2500712 -59.64577225 254.72958214 -59.64772797 251.20909309 C-59.64821171 250.3340902 -59.64869545 249.4590873 -59.64919385 248.55756917 C-59.65748152 234.40535709 -59.68279291 220.25322989 -59.71530864 206.10105482 C-59.74842933 191.56673437 -59.76639563 177.03245693 -59.76958627 162.49809855 C-59.7717476 154.33971159 -59.78044 146.18144811 -59.80604744 138.02309799 C-59.82782363 131.06916714 -59.83577134 124.11538969 -59.82608066 117.16142861 C-59.82155477 113.61737597 -59.82332081 110.07363936 -59.8428421 106.52963066 C-59.98474378 79.28098648 -59.98474378 79.28098648 -55.35256195 68.12584114 C-55.08813954 67.4466956 -54.82371714 66.76755007 -54.55128193 66.06782436 C-50.6778742 56.93134381 -44.28895891 49.99287413 -37.35256195 43.12584114 C-36.6564682 42.40783333 -35.96037445 41.68982552 -35.24318695 40.95005989 C-29.91040384 35.79296925 -23.79989703 32.27367823 -17.29152679 28.80113411 C-11.6308598 25.68036138 -8.45350788 22.42867892 -6.35256195 16.12584114 C-6.09488887 12.88345487 -5.91009387 9.64721794 -5.7470932 6.39927864 C-5.38469427 0.00106312 -5.38469427 0.00106312 0 0 Z " fill="#52B044" transform="translate(337.3525619506836,415.87415885925293)"/>
<path d="M0 0 C0.90523006 -0.00644889 1.81046011 -0.01289778 2.74312139 -0.0195421 C3.73376867 -0.01644489 4.72441596 -0.01334769 5.74508286 -0.01015663 C6.80049609 -0.01468774 7.85590932 -0.01921886 8.94330478 -0.02388728 C12.49151236 -0.03658087 16.03956743 -0.03490769 19.58779526 -0.03325844 C22.12709883 -0.03924064 24.66640058 -0.04604546 27.20569992 -0.05361366 C33.39483378 -0.06947361 39.58391147 -0.07572349 45.77306375 -0.07683842 C50.80484693 -0.07778877 55.83661755 -0.08189843 60.86839676 -0.08823967 C75.1366651 -0.10585486 89.40490335 -0.11507829 103.67318264 -0.11357872 C104.44245109 -0.11349881 105.21171954 -0.1134189 106.00429916 -0.11333656 C107.15961227 -0.11321392 107.15961227 -0.11321392 108.33826503 -0.1130888 C120.81628744 -0.11227617 133.29418906 -0.13140727 145.77217653 -0.1596133 C158.58669103 -0.18835121 171.40114665 -0.20215304 184.21569419 -0.20042574 C191.40915892 -0.19976208 198.60249708 -0.20524381 205.79593277 -0.22678185 C212.56258099 -0.24691216 219.3289177 -0.24631065 226.09559441 -0.23174858 C228.5788048 -0.22965529 231.06203179 -0.23439219 233.5452137 -0.2464695 C236.93628919 -0.2618937 240.32643954 -0.25263131 243.71749496 -0.23720741 C244.69921936 -0.24749454 245.68094376 -0.25778167 246.69241738 -0.26838052 C253.80041842 -0.19698239 258.8100237 1.14793141 264.28406966 5.77910954 C267.86152097 9.4422413 269.17640586 12.37146876 269.27839243 17.4721809 C269.26364386 18.24145175 269.24889529 19.01072259 269.2336998 19.80330467 C269.24164861 20.63809693 269.24959742 21.47288919 269.25778711 22.33297819 C269.27696472 25.11711992 269.25344477 27.89921118 269.2298851 30.6832943 C269.23474338 32.68442605 269.2421844 34.68555296 269.25201035 36.68666649 C269.27080171 42.11236157 269.25200148 47.5373334 269.22534609 52.96297193 C269.20269376 58.64297595 269.21093382 64.32294497 269.21483994 70.00298119 C269.21660502 79.54009362 269.19446098 89.0769215 269.15761948 98.61395836 C269.11527308 109.63913692 269.10826743 120.66389886 269.12074339 131.68914229 C269.13213335 142.29796603 269.12083709 152.90664311 269.0983963 163.51544571 C269.08910904 168.02928378 269.08735454 172.5430321 269.09156799 177.05687714 C269.09533586 182.37168563 269.07911069 187.68607018 269.0474472 193.00078201 C269.03896402 194.95105676 269.03725877 196.90137453 269.04282761 198.85165977 C269.04927699 201.51431026 269.03109742 204.17569631 269.00664902 206.83821678 C269.01420766 207.60971835 269.02176631 208.38121991 269.02955401 209.17610031 C268.94555463 214.34841574 267.73515667 217.2650362 264.4852562 221.25726891 C260.60045162 224.67959674 258.29097651 226.37850209 253.13852119 226.39707661 C252.21985626 226.40276785 251.30119132 226.40845909 250.35468805 226.41432279 C249.33876034 226.41550267 248.32283263 226.41668255 247.27611923 226.41789818 C246.20199709 226.422986 245.12787494 226.42807382 244.02120364 226.43331581 C240.39773161 226.44909623 236.77427961 226.45758009 233.15078354 226.46600914 C230.56251522 226.47554311 227.9742482 226.48543406 225.38598251 226.49565697 C217.60029349 226.52495523 209.81459273 226.54413241 202.02886814 226.56104931 C199.82991928 226.56584363 197.63097091 226.57082705 195.43202257 226.57585454 C181.77852947 226.60682793 168.12503215 226.63351529 154.47151375 226.65027332 C151.30796298 226.65422287 148.14441228 226.65822586 144.98086166 226.6622982 C143.80142244 226.66381074 143.80142244 226.66381074 142.59815617 226.66535384 C129.86453424 226.68235578 117.13110682 226.72345822 104.39757983 226.77432119 C91.32549502 226.82610702 78.25351018 226.85521696 65.18132365 226.86247021 C57.8413057 226.86713159 50.50160613 226.88187297 43.16168976 226.92221451 C36.2554764 226.96012597 29.34981455 226.96750703 22.44351196 226.95420837 C19.9086833 226.95426241 17.37383087 226.96459346 14.83909225 226.98596001 C11.37750147 227.01357928 7.91790148 227.0041581 4.45629501 226.98552513 C3.45375163 227.00232006 2.45120826 227.01911499 1.41828477 227.03641886 C-4.59094237 226.95561725 -8.32973026 225.91071429 -12.92146373 221.93374741 C-17.48676715 217.13005146 -17.95207127 212.35828895 -17.89569473 205.99007225 C-17.9003747 205.17317419 -17.90505468 204.35627613 -17.90987647 203.51462358 C-17.92181381 200.78552428 -17.91237418 198.05692831 -17.9029274 195.32782555 C-17.90699369 193.36787689 -17.91233589 191.40793053 -17.91885757 189.44798851 C-17.93253098 184.12980439 -17.92723213 178.81179492 -17.91772032 173.49360776 C-17.91012282 167.92617082 -17.91716969 162.35874879 -17.92187881 156.79131126 C-17.92733655 147.44082519 -17.92014473 138.0904102 -17.90585709 128.73993492 C-17.88953534 117.93355072 -17.8948156 107.12733637 -17.9113363 96.32095629 C-17.92495633 87.04010855 -17.92686814 77.7593119 -17.9190203 68.47845739 C-17.91434602 62.93666738 -17.91371212 57.39495717 -17.92362976 51.8531723 C-17.93230444 46.64188449 -17.92626819 41.43081531 -17.90894699 36.21955109 C-17.90498465 34.30838445 -17.90611187 32.39719938 -17.91273499 30.48604012 C-17.92095063 27.87426252 -17.91062872 25.26318253 -17.89569473 22.6514492 C-17.9023869 21.89774215 -17.90907906 21.1440351 -17.91597402 20.36748844 C-17.85370523 14.74081618 -16.78936664 9.90796271 -13.04990005 5.55023766 C-8.6680861 2.26097148 -5.54677377 0.01000681 0 0 Z " fill="#EBF5EA" transform="translate(319.51474380493164,536.7427310943604)"/>
<path d="M0 0 C2.01235192 0.02010568 4.02472334 0.03834922 6.03710938 0.0546875 C10.92106277 0.09833756 15.80406096 0.16713802 20.6875 0.25 C20.69160889 1.1064209 20.69571777 1.9628418 20.69995117 2.84521484 C20.72716992 6.07009179 20.77650387 9.29371692 20.84008789 12.51806641 C20.86306404 13.90466878 20.87761505 15.29144062 20.88305664 16.67822266 C20.92483485 25.58019424 21.74447692 32.63824964 26.6875 40.25 C27.285625 41.178125 27.88375 42.10625 28.5 43.0625 C34.7681053 49.3306053 42.05967256 52.20758246 50.875 52.6875 C59.03744376 52.50785887 66.69124618 49.52375355 72.6875 43.9375 C83.72964107 31.54875636 81.05687937 16.64613648 81.6875 0.25 C115.0175 0.25 148.3475 0.25 182.6875 0.25 C183.0175 9.49 183.3475 18.73 183.6875 28.25 C187.6685412 38.20260299 191.07692871 45.15051319 200.6875 50.25 C209.53400923 53.52509065 218.10864663 53.01949618 226.6875 49.25 C234.20086403 45.12501583 238.87490416 39.24369344 241.6875 31.25 C242.58085394 27.50389276 242.87131292 23.91942519 243.00390625 20.07421875 C243.04580078 18.91728516 243.08769531 17.76035156 243.13085938 16.56835938 C243.18983398 14.77108398 243.18983398 14.77108398 243.25 12.9375 C243.29318359 11.71998047 243.33636719 10.50246094 243.38085938 9.24804688 C243.48671496 6.2488053 243.58879726 3.24948409 243.6875 0.25 C248.32817173 0.17502022 252.96847954 0.12101266 257.60961914 0.08520508 C259.18357497 0.07025483 260.75749015 0.04988706 262.33129883 0.02368164 C280.48869444 -0.27076261 297.34564638 3.67186831 310.8125 16.625 C324.0330812 31.03483888 326.29038198 45.52014218 326.14160156 64.33886719 C326.14047154 66.35046364 326.14110997 68.36206173 326.14337158 70.37365723 C326.14451361 75.80267225 326.12108737 81.23132976 326.09307575 86.66026211 C326.06797649 92.34569395 326.06571339 98.03113507 326.06097412 103.71661377 C326.04856934 114.46858037 326.01578159 125.22038321 325.97557616 135.97227788 C325.9307806 148.21897474 325.90885185 160.46567964 325.88879442 172.71243811 C325.84704672 197.891716 325.77674336 223.0708488 325.6875 248.25 C320.88720703 243.46289063 320.88720703 243.46289063 319.08984375 241.546875 C318.36474609 240.78117187 318.36474609 240.78117187 317.625 240 C316.79569977 239.11549416 316.79569977 239.11549416 315.949646 238.21311951 C313.73375528 236.10043505 313.73375528 236.10043505 310.72686768 234.91493225 C306.76298635 232.90517521 303.96285329 231.13410066 301.6875 227.25 C299.46257302 218.75016322 300.12009113 209.61448656 300.26884365 200.89438891 C300.31598048 197.38696714 300.29478048 193.87994627 300.28106689 190.37232971 C300.26540649 183.74200494 300.31051813 177.11356608 300.37788892 170.48362166 C300.45164609 162.93091647 300.45701485 155.37863611 300.45685911 147.82562721 C300.45805974 132.29965088 300.54442693 116.77535675 300.6875 101.25 C297.54772804 100.20340935 295.35913393 100.12259567 292.06368256 100.11857224 C290.8856552 100.11473109 289.70762784 100.11088995 288.49390268 100.1069324 C286.54320565 100.10823213 286.54320565 100.10823213 284.55310059 100.10955811 C283.16259094 100.10697508 281.77208203 100.1039621 280.38157415 100.1005547 C276.55180994 100.09247438 272.72206446 100.09069456 268.89229274 100.08995724 C264.76545504 100.08810854 260.63862711 100.08056226 256.51179504 100.07382202 C247.48520097 100.06023208 238.45861134 100.0542133 229.43200874 100.04981136 C223.79945405 100.04705075 218.16690107 100.04281379 212.53434753 100.03830719 C196.9490698 100.02611496 181.36379345 100.01581471 165.77851105 100.0124321 C164.7807861 100.01221253 163.78306116 100.01199297 162.75510213 100.01176675 C161.25488194 100.01143933 161.25488194 100.01143933 159.72435427 100.0111053 C157.69758383 100.01066183 155.6708134 100.01021526 153.64404297 100.00976562 C152.13601236 100.00943348 152.13601236 100.00943348 150.59751648 100.00909463 C134.29436682 100.00514363 117.99126178 99.98768022 101.68812937 99.9644061 C84.96270458 99.94072113 68.23730221 99.9282316 51.51186037 99.92706418 C42.11588899 99.92614595 32.71997578 99.92035628 23.32402039 99.90224457 C15.32607382 99.88688222 7.3282034 99.88170024 -0.6697551 99.88998267 C-4.7531423 99.89390261 -8.83637596 99.89289449 -12.91974449 99.87892532 C-16.65402549 99.86626668 -20.38803634 99.86731233 -24.12231654 99.87951604 C-26.12118923 99.88242451 -28.12006624 99.87047681 -30.11890268 99.85809398 C-31.29693004 99.86468382 -32.4749574 99.87127367 -33.68868256 99.8780632 C-34.70964319 99.87746611 -35.73060382 99.87686903 -36.78250265 99.87625384 C-39.32447945 100.06410719 -39.32447945 100.06410719 -41.14004421 101.49308312 C-42.62857013 103.7236289 -42.69035127 105.05840746 -42.69561005 107.73260689 C-42.70466669 108.65612957 -42.71372333 109.57965225 -42.72305441 110.53116047 C-42.71506252 112.05549602 -42.71506252 112.05549602 -42.70690918 113.61062622 C-42.71300028 114.68898078 -42.71909139 115.76733534 -42.72536707 116.8783673 C-42.74208401 120.51032562 -42.73720872 124.14193668 -42.73242188 127.77392578 C-42.73975734 130.3705736 -42.74834203 132.96721814 -42.75808716 135.56385803 C-42.77916869 141.89718452 -42.78368033 148.23041951 -42.78189927 154.56377693 C-42.78059245 159.71333488 -42.7843917 164.86286426 -42.79182434 170.01241684 C-42.79392353 171.49493309 -42.79602113 172.97744934 -42.79811716 174.45996559 C-42.79968245 175.56679098 -42.79968245 175.56679098 -42.80127937 176.69597648 C-42.82019436 190.66113527 -42.81912834 204.62624158 -42.81231004 218.59140788 C-42.80673961 231.35984272 -42.82753632 244.12807659 -42.86067051 256.89646448 C-42.8944311 270.0081541 -42.9095725 283.11974755 -42.90495348 296.23148143 C-42.9027104 303.59213042 -42.90792742 310.95259389 -42.93284607 318.31320572 C-42.95609306 325.23911885 -42.95324742 332.16460796 -42.93291855 339.09052849 C-42.92950535 341.63136939 -42.93461079 344.17223831 -42.94890213 346.71304131 C-42.96708149 350.18500537 -42.95435271 353.65555056 -42.93395996 357.12747192 C-42.94647781 358.13031129 -42.95899566 359.13315066 -42.97189283 360.16637909 C-42.8727476 368.05384014 -40.47057635 373.59653912 -35.3203125 379.5546875 C-34.69898438 380.07289063 -34.07765625 380.59109375 -33.4375 381.125 C-32.82132813 381.65867187 -32.20515625 382.19234375 -31.5703125 382.7421875 C-26.24414566 386.2991086 -21.79146043 387.62710483 -15.41236877 387.58143616 C-14.7545804 387.58102733 -14.09679202 387.58061849 -13.41907066 387.58019727 C-11.23422697 387.57546693 -9.05016677 387.54948659 -6.86547852 387.52368164 C-5.29124546 387.51632021 -3.71700495 387.51042827 -2.14276123 387.50588989 C1.23813078 387.49392628 4.61882456 387.47340918 7.99963188 387.44673347 C13.34980109 387.40639975 18.69975955 387.39644916 24.05006409 387.39268494 C39.2609314 387.37846575 54.47138195 387.3434756 69.68188477 387.2331543 C78.08980583 387.17242274 86.49704172 387.14735778 94.90517861 387.1620931 C99.35050627 387.16830935 103.79406655 387.15592593 108.2390728 387.0991993 C112.4201555 387.04589435 116.59875769 387.03910111 120.78005981 387.06740189 C122.31032438 387.06947291 123.84072541 387.05453611 125.37062263 387.0209446 C136.92246311 386.7812134 136.92246311 386.7812134 141.307024 390.42985344 C143.32897356 392.94699831 145.00307767 395.5006382 146.6875 398.25 C148.71316265 400.54424173 150.87213683 402.67618476 153.0625 404.8125 C153.84173828 405.59077148 153.84173828 405.59077148 154.63671875 406.38476562 C157.40470888 409.16011535 157.40470888 409.16011535 160.6875 411.25 C160.6875 411.91 160.6875 412.57 160.6875 413.25 C137.60788152 413.32023716 114.52828079 413.37306003 91.44857693 413.40543652 C80.73106236 413.4208724 70.01361439 413.44189891 59.29614258 413.47631836 C49.9493367 413.50632144 40.60257909 413.5255988 31.2557264 413.53226548 C26.31159712 413.53615933 21.36760586 413.54524132 16.42352104 413.56719017 C11.75895442 413.58772808 7.09458115 413.59379925 2.4299736 413.58932304 C0.72856529 413.59014058 -0.97285027 413.59600226 -2.67421913 413.60761642 C-20.55097173 413.7235444 -37.96010437 411.8478504 -51.6953125 399.03515625 C-63.78841275 385.68600936 -67.62480954 372.70052378 -67.57992554 354.98612976 C-67.58445665 353.66791931 -67.58898776 352.34970887 -67.59365618 350.99155265 C-67.60583312 347.35232033 -67.60563203 343.71318031 -67.60326743 340.07393229 C-67.60285792 336.14129462 -67.61391111 332.20868601 -67.62338257 328.27606201 C-67.63996389 320.57897015 -67.6454908 312.88190894 -67.64660732 305.18480071 C-67.64755907 298.92605568 -67.65167565 292.66732072 -67.65800858 286.40857887 C-67.67561239 268.64851338 -67.68484868 250.88847201 -67.68334763 233.12839773 C-67.68326772 232.17183946 -67.6831878 231.2152812 -67.68310547 230.22973633 C-67.68302371 229.272005 -67.68294195 228.31427366 -67.68285771 227.32752017 C-67.68204483 211.80679414 -67.70118517 196.28616515 -67.7293822 180.76546719 C-67.75813256 164.81386236 -67.77192134 148.86230483 -67.77019465 132.91067344 C-67.76953154 123.96105937 -67.77498929 115.01154708 -67.79655075 106.06195641 C-67.81479078 98.44244416 -67.81908668 90.82307985 -67.8055319 83.20355519 C-67.79901673 79.31946635 -67.79883221 75.43566109 -67.8162384 71.5515995 C-67.83203878 67.98909368 -67.82903551 64.42709462 -67.81167014 60.86460064 C-67.80717936 58.98002941 -67.82220269 57.09544202 -67.83814943 55.21093291 C-67.71710476 40.16220595 -61.94821582 26.83425898 -51.5625 15.9375 C-35.87175174 1.19340322 -20.53706435 -0.35908104 0 0 Z " fill="#53B045" transform="translate(703.3125,533.75)"/>
<path d="M0 0 C1.73464251 -0.00935994 1.73464251 -0.00935994 3.50432831 -0.01890898 C7.35873283 -0.03479578 11.21250118 -0.02225082 15.06690979 -0.00964355 C17.83869218 -0.01286722 20.610448 -0.02204626 23.38221741 -0.03088379 C30.11701888 -0.04862644 36.85164157 -0.04484794 43.58644991 -0.03323323 C49.06286728 -0.02418161 54.53923472 -0.02298236 60.01565742 -0.02732849 C60.7965538 -0.02794142 61.57745018 -0.02855436 62.38201009 -0.02918586 C63.96864272 -0.03046483 65.55527534 -0.03176168 67.14190794 -0.03307623 C82.00374047 -0.04446976 96.86547415 -0.03138802 111.72729046 -0.00987476 C124.46375604 0.00799161 137.20007575 0.00489356 149.9365387 -0.0135498 C164.74541834 -0.03498431 179.55421141 -0.04336754 194.3631044 -0.03110075 C195.94404573 -0.02982663 197.52498707 -0.02856914 199.10592842 -0.02732849 C199.88367392 -0.02671139 200.66141941 -0.02609429 201.46273295 -0.02545848 C206.92846875 -0.02201305 212.39414938 -0.02781655 217.85987663 -0.0372467 C224.52677715 -0.04849696 231.19348943 -0.04536353 237.86036854 -0.02412373 C241.25835088 -0.01365296 244.65576216 -0.01159676 248.05378151 -0.02272034 C251.74563699 -0.03368951 255.43661785 -0.01989372 259.12841797 0 C260.19069388 -0.00892289 261.2529698 -0.01784577 262.34743589 -0.02703905 C273.50077497 0.08912294 281.88080282 3.32164447 289.89723206 11.07043457 C296.82605322 18.64238624 300.42407582 25.77155474 300.43409729 36.15881348 C300.44242081 36.90119263 300.45074432 37.64357178 300.45932007 38.40844727 C300.48331294 40.85051812 300.49218088 43.29232101 300.49879456 45.73449707 C300.50777215 47.44595412 300.51689419 49.15741042 300.52615356 50.86886597 C300.54261928 54.45479227 300.55033871 58.04062552 300.55323792 61.62658691 C300.55860562 66.19257853 300.59622872 70.75767872 300.64198208 75.32341957 C300.67192448 78.85992515 300.67896524 82.39622102 300.67996407 85.93284225 C300.68413581 87.61436399 300.69644581 89.29588815 300.71748161 90.97728348 C300.87187949 104.39062141 299.14589667 115.39099973 289.44801331 125.53137207 C282.9520449 131.06497479 275.76851916 134.624337 267.21249199 134.64215565 C266.21792704 134.64661349 265.2233621 134.65107134 264.19865882 134.65566427 C263.10821112 134.6554799 262.01776342 134.65529554 260.89427185 134.65510559 C259.73409739 134.65878228 258.57392292 134.66245897 257.37859166 134.66624707 C254.15748026 134.67536494 250.9363988 134.67998164 247.71527672 134.68263638 C244.24135931 134.68654354 240.7674566 134.6961216 237.29354858 134.70484924 C228.9035526 134.72460219 220.51355543 134.73467845 212.12354201 134.74357703 C208.17092891 134.74796191 204.21831715 134.75332821 200.26570511 134.7585659 C187.12351955 134.77557713 173.98133482 134.79007079 160.83913994 134.79731464 C157.42946751 134.79922449 154.01979508 134.80114483 150.61012268 134.80310059 C149.33896253 134.8038262 149.33896253 134.8038262 148.04212238 134.80456647 C134.31742164 134.81286489 120.59280812 134.83819909 106.86814545 134.87068126 C92.77219409 134.90376974 78.67628703 134.92176503 64.58029664 134.92495888 C56.66800218 134.92712234 48.7558349 134.93584687 40.84357834 134.96142006 C34.10443366 134.98315154 27.36544704 134.9911655 20.62627129 134.98145328 C17.19002888 134.97691558 13.75411244 134.97876327 10.31791496 134.99821472 C6.58601293 135.01590783 2.85493431 135.00883881 -0.87696838 134.99568176 C-2.49256344 135.01213563 -2.49256344 135.01213563 -4.14079678 135.0289219 C-15.28435784 134.93426676 -22.73647379 131.39326791 -30.73948669 123.75402832 C-33.24617642 121.11419939 -35.10057759 118.6822691 -36.87229919 115.50793457 C-37.26417419 114.84793457 -37.65604919 114.18793457 -38.05979919 113.50793457 C-40.09167457 108.50639518 -40.02866784 103.13214675 -40.04930115 97.80944824 C-40.05587234 97.06225021 -40.06244354 96.31505219 -40.06921387 95.54521179 C-40.08881746 93.08877438 -40.10057921 90.63239768 -40.11058044 88.17590332 C-40.11465597 87.33209925 -40.1187315 86.48829517 -40.12293053 85.61892128 C-40.14373424 81.1541125 -40.15806155 76.68933395 -40.16746521 72.2244873 C-40.17852933 67.63145814 -40.21294551 63.03891343 -40.25263691 58.44605541 C-40.27886579 54.8968266 -40.28716249 51.34771235 -40.29074669 47.79839516 C-40.29559491 46.10602858 -40.30715817 44.41366651 -40.32578468 42.72139549 C-40.50012767 25.83520595 -40.50012767 25.83520595 -35.87229919 18.50793457 C-35.40308044 17.71000488 -34.93386169 16.9120752 -34.45042419 16.08996582 C-25.61715902 4.32093899 -14.48371034 -0.12140508 0 0 Z " fill="#52B045" transform="translate(338.87229919433594,264.4920654296875)"/>
<path d="M0 0 C0.76401123 0.20133545 1.52802246 0.4026709 2.31518555 0.61010742 C8.43149662 2.31438122 13.85875397 4.67459642 19.4375 7.6875 C20.2637085 8.12956787 21.08991699 8.57163574 21.94116211 9.02709961 C28.36613915 12.52733482 34.34237864 16.34186118 40 21 C40.84691406 21.69609375 41.69382812 22.3921875 42.56640625 23.109375 C56.06663558 34.73399995 65.73667819 49.13535784 71.9375 65.75 C72.21996582 66.50539063 72.50243164 67.26078125 72.79345703 68.0390625 C76.45504244 78.41991531 77.35147128 88.49498098 77.31567383 99.47021484 C77.31250373 101.49761333 77.33610419 103.52356068 77.36132812 105.55078125 C77.36525004 113.54363471 76.6086652 120.44280398 74 128 C73.77030518 128.70543945 73.54061035 129.41087891 73.30395508 130.13769531 C68.12519946 145.59200174 60.54032461 158.61804181 50 171 C49.42765625 171.67675781 48.8553125 172.35351562 48.265625 173.05078125 C34.22251481 188.21589251 14.89686614 197.65519131 -5 202 C-6.27762207 202.28037109 -6.27762207 202.28037109 -7.58105469 202.56640625 C-14.350114 203.93135064 -20.85545413 204.30479109 -27.75 204.25 C-29.23306641 204.26160156 -29.23306641 204.26160156 -30.74609375 204.2734375 C-36.22214781 204.25881519 -40.75213002 203.71879179 -46 202 C-47.80907962 201.7452363 -49.6218728 201.51540754 -51.4375 201.3125 C-75.60704225 197.44053328 -98.69227016 179.12744311 -112.6875 159.875 C-128.31314038 136.22689309 -135.50419215 107.13510166 -129.92382812 78.99121094 C-125.39760863 59.87747681 -115.63087928 43.03741428 -102 29 C-101.32710937 28.25363281 -100.65421875 27.50726562 -99.9609375 26.73828125 C-75.37369215 0.35533821 -34.29820358 -9.25023692 0 0 Z " fill="#EBF5EA" transform="translate(965,755)"/>
<path d="M0 0 C0.76401123 0.20133545 1.52802246 0.4026709 2.31518555 0.61010742 C8.43149662 2.31438122 13.85875397 4.67459642 19.4375 7.6875 C20.2637085 8.12956787 21.08991699 8.57163574 21.94116211 9.02709961 C28.36613915 12.52733482 34.34237864 16.34186118 40 21 C40.84691406 21.69609375 41.69382812 22.3921875 42.56640625 23.109375 C56.06663558 34.73399995 65.73667819 49.13535784 71.9375 65.75 C72.21996582 66.50539063 72.50243164 67.26078125 72.79345703 68.0390625 C76.45504244 78.41991531 77.35147128 88.49498098 77.31567383 99.47021484 C77.31250373 101.49761333 77.33610419 103.52356068 77.36132812 105.55078125 C77.36525004 113.54363471 76.6086652 120.44280398 74 128 C73.77030518 128.70543945 73.54061035 129.41087891 73.30395508 130.13769531 C68.12519946 145.59200174 60.54032461 158.61804181 50 171 C49.42765625 171.67675781 48.8553125 172.35351562 48.265625 173.05078125 C34.22251481 188.21589251 14.89686614 197.65519131 -5 202 C-6.27762207 202.28037109 -6.27762207 202.28037109 -7.58105469 202.56640625 C-14.350114 203.93135064 -20.85545413 204.30479109 -27.75 204.25 C-29.23306641 204.26160156 -29.23306641 204.26160156 -30.74609375 204.2734375 C-36.22214781 204.25881519 -40.75213002 203.71879179 -46 202 C-47.80907962 201.7452363 -49.6218728 201.51540754 -51.4375 201.3125 C-75.60704225 197.44053328 -98.69227016 179.12744311 -112.6875 159.875 C-128.31314038 136.22689309 -135.50419215 107.13510166 -129.92382812 78.99121094 C-125.39760863 59.87747681 -115.63087928 43.03741428 -102 29 C-101.32710937 28.25363281 -100.65421875 27.50726562 -99.9609375 26.73828125 C-75.37369215 0.35533821 -34.29820358 -9.25023692 0 0 Z M-91.25 49.625 C-105.50156033 68.53630617 -111.47672997 90.45217251 -108.375 114 C-104.34402942 135.09162778 -91.82179807 154.37610126 -74.3984375 166.77734375 C-66.01964424 172.42244008 -56.84964598 176.68331544 -47 179 C-46.36465332 179.16628906 -45.72930664 179.33257813 -45.07470703 179.50390625 C-24.46581041 184.60038764 -3.00702518 180.58485366 15.16601562 170.11621094 C35.21056627 157.91657229 47.50849291 140.20517212 53.45776367 117.68212891 C58.48000664 96.34852328 53.92006164 76.64609328 43 58 C30.79344695 38.66693867 12.05012093 26.36706395 -10.0546875 20.94921875 C-40.33901105 14.37659888 -71.31163738 26.55290652 -91.25 49.625 Z " fill="#55B248" transform="translate(965,755)"/>
<path d="M0 0 C1.00349991 -0.00241196 2.00699982 -0.00482391 3.04090881 -0.00730896 C5.16167148 -0.00633014 7.28245958 0.00707181 9.40307617 0.03198242 C12.64525449 0.06624875 15.8847011 0.05265319 19.12695312 0.03320312 C21.18881367 0.0401028 23.25066717 0.04977627 25.3125 0.0625 C26.2803392 0.05754013 27.24817841 0.05258026 28.24534607 0.04747009 C32.30255133 0.11825742 35.13764095 0.35438851 38.84277344 2.09301758 C41.65570122 5.88754757 41.35005167 9.16424142 41.2109375 13.76953125 C41.20386276 14.65171326 41.19678802 15.53389526 41.1894989 16.44281006 C41.16154803 19.25571106 41.09881006 22.06660877 41.03515625 24.87890625 C41.01007419 26.78773163 40.98726086 28.69658827 40.96679688 30.60546875 C40.91171924 35.28071777 40.82544319 39.95447258 40.72265625 44.62890625 C42.50881348 44.59748535 42.50881348 44.59748535 44.33105469 44.56542969 C48.75150514 44.49299663 53.17190321 44.44709453 57.59277344 44.40917969 C59.5056236 44.38907173 61.41841236 44.36178118 63.33105469 44.32714844 C66.08153436 44.27859376 68.83120102 44.25592967 71.58203125 44.23828125 C72.43633728 44.21763611 73.29064331 44.19699097 74.1708374 44.17572021 C77.75141386 44.17436888 80.08686816 44.27866531 83.25634766 46.0246582 C85.56043606 50.11685119 85.33310717 54.06490662 85.32421875 58.6875 C85.332789 59.66880386 85.34135925 60.65010773 85.35018921 61.66114807 C85.36166584 63.7347607 85.36268353 65.80845385 85.35400391 67.88208008 C85.34768428 71.05234337 85.39459568 74.21887046 85.4453125 77.38867188 C85.44985886 79.40494321 85.4512653 81.42122458 85.44921875 83.4375 C85.46763824 84.38346542 85.48605774 85.32943085 85.5050354 86.30406189 C85.43950709 90.97317881 85.22918937 92.99678312 82.23339844 96.73535156 C77.82553513 99.1127777 74.74154477 99.27576401 69.82421875 99.1171875 C68.57177872 99.10657539 68.57177872 99.10657539 67.29403687 99.0957489 C64.64430652 99.0679055 61.99674066 99.00519031 59.34765625 98.94140625 C57.5443015 98.91631018 55.7409134 98.8934993 53.9375 98.87304688 C49.53172642 98.81811236 45.12755746 98.73191337 40.72265625 98.62890625 C40.74884033 99.75385498 40.77502441 100.87880371 40.80200195 102.0378418 C40.8926737 106.22155782 40.94996662 110.40518746 40.99731445 114.58959961 C41.02242015 116.39866757 41.0565122 118.20763447 41.09985352 120.01635742 C41.16068204 122.62053376 41.18890434 125.22336656 41.2109375 127.828125 C41.23674393 128.63352219 41.26255035 129.43891937 41.28913879 130.26872253 C41.29111088 134.23952691 40.98901206 136.20620147 38.8269043 139.63745117 C34.40135506 142.476555 30.72735845 142.34837098 25.56640625 142.29296875 C24.09657288 142.3001442 24.09657288 142.3001442 22.5970459 142.3074646 C20.52936189 142.31086066 18.46162397 142.30167888 16.39404297 142.28076172 C13.23282923 142.2539924 10.07516607 142.28051996 6.9140625 142.3125 C4.90233593 142.30919585 2.89061156 142.30278951 0.87890625 142.29296875 C-0.06392212 142.3030899 -1.00675049 142.31321106 -1.97814941 142.32363892 C-6.30941733 142.24645337 -8.67271053 142.01679403 -12.3815918 139.63745117 C-14.94910986 135.5628182 -14.91684803 132.54767029 -14.765625 127.828125 C-14.75855026 126.99175003 -14.75147552 126.15537506 -14.7441864 125.2936554 C-14.7162936 122.63364573 -14.65356856 119.97577486 -14.58984375 117.31640625 C-14.56475409 115.50849404 -14.54194208 113.70054868 -14.52148438 111.89257812 C-14.46648417 107.47053552 -14.38025018 103.05008294 -14.27734375 98.62890625 C-15.40229248 98.65509033 -16.52724121 98.68127441 -17.6862793 98.70825195 C-21.86999532 98.7989237 -26.05362496 98.85621662 -30.23803711 98.90356445 C-32.04710507 98.92867015 -33.85607197 98.9627622 -35.66479492 99.00610352 C-38.26897126 99.06693204 -40.87180406 99.09515434 -43.4765625 99.1171875 C-44.28195969 99.14299393 -45.08735687 99.16880035 -45.91716003 99.19538879 C-49.88765232 99.19736072 -51.85688931 98.89315101 -55.2902832 96.73535156 C-58.13221342 92.29245685 -57.96076542 88.61132954 -57.87109375 83.4375 C-57.87113403 82.45523941 -57.87117432 81.47297882 -57.87121582 80.46095276 C-57.86586479 78.38902369 -57.84829998 76.31709485 -57.81933594 74.24536133 C-57.77744077 71.07375118 -57.77827217 67.90426239 -57.78515625 64.73242188 C-57.7746648 62.71743316 -57.76172694 60.70245538 -57.74609375 58.6875 C-57.74589233 57.73951035 -57.74569092 56.79152069 -57.7454834 55.81480408 C-57.72957153 54.93031082 -57.71365967 54.04581757 -57.69726562 53.13452148 C-57.68884644 52.35906479 -57.68042725 51.58360809 -57.67175293 50.78465271 C-57.16351887 48.00676664 -56.25509942 46.63217593 -54.27734375 44.62890625 C-52.39802551 44.14788818 -52.39802551 44.14788818 -50.26489258 44.17480469 C-49.06398735 44.17525787 -49.06398735 44.17525787 -47.83882141 44.17572021 C-46.9793541 44.19636536 -46.11988678 44.2170105 -45.234375 44.23828125 C-43.90897957 44.24677094 -43.90897957 44.24677094 -42.55680847 44.25543213 C-39.73393632 44.27782758 -36.91233237 44.32802898 -34.08984375 44.37890625 C-32.17645062 44.39896719 -30.2630376 44.41721867 -28.34960938 44.43359375 C-23.65836533 44.47770268 -18.96806957 44.5467514 -14.27734375 44.62890625 C-14.29829102 43.47366455 -14.31923828 42.31842285 -14.34082031 41.12817383 C-14.41334773 36.83256477 -14.45918968 32.5370096 -14.49707031 28.2409668 C-14.5171568 26.38345227 -14.54443153 24.52600074 -14.57910156 22.66870117 C-14.62775112 19.99512162 -14.65034184 17.32237969 -14.66796875 14.6484375 C-14.68861389 13.82116653 -14.70925903 12.99389557 -14.73052979 12.14155579 C-14.73196344 8.43821655 -14.45152625 6.01007086 -12.89526367 2.60449219 C-8.82737416 -0.46529816 -4.96735396 -0.06790463 0 0 Z " fill="#53B146" transform="translate(433.27734375,579.37109375)"/>
<path d="M0 0 C1.34194472 1.13267459 2.6550119 2.30042022 3.9375 3.5 C4.52402344 4.04527344 5.11054688 4.59054687 5.71484375 5.15234375 C14.66692494 14.429217 19.89630377 27.1633961 22.9375 39.5 C23.12828125 40.25410156 23.3190625 41.00820313 23.515625 41.78515625 C25.90347779 57.15143114 24.29706066 74.1629043 16.28125 87.703125 C15.61609375 88.59257813 15.61609375 88.59257813 14.9375 89.5 C14.43863281 90.16902344 13.93976563 90.83804688 13.42578125 91.52734375 C9.59367986 94.56535191 5.28758227 95.50530969 0.625 96.8125 C-1.44544261 97.41622063 -3.51575118 98.02040112 -5.5859375 98.625 C-6.65166992 98.93179688 -7.71740234 99.23859375 -8.81542969 99.5546875 C-15.01485632 101.35951306 -21.1771321 103.28751451 -27.34692383 105.19067383 C-29.91459986 105.97551763 -32.48636406 106.74343477 -35.0625 107.5 C-35.75190674 107.70753906 -36.44131348 107.91507813 -37.15161133 108.12890625 C-48.79665494 111.38179286 -63.33323245 111.27729791 -74.0625 105.5 C-74.97 105.025625 -75.8775 104.55125 -76.8125 104.0625 C-88.86072036 97.10130601 -96.16751438 87.38241149 -101.0625 74.5 C-101.43632812 73.58992187 -101.81015625 72.67984375 -102.1953125 71.7421875 C-105.68129849 58.70899663 -103.6725481 43.40957483 -97.5546875 31.5859375 C-89.38189117 17.78721625 -78.26826547 9.36470857 -62.83203125 5.30078125 C-58.27494037 4.33269459 -53.72092807 3.71851218 -49.09521484 3.21777344 C-44.51831949 2.71767464 -40.07297815 1.95331872 -35.5625 1 C-6.19763726 -5.12156398 -6.19763726 -5.12156398 0 0 Z " fill="#52B045" transform="translate(309.0625,807.5)"/>
<path d="M0 0 C3.48301658 1.97111892 5.49648638 4.25061294 6.609375 8.1171875 C6.9140651 11.5039351 6.6596665 14.04043423 4.70471191 16.88415527 C4.14537964 17.49150513 3.58604736 18.09885498 3.00976562 18.72460938 C2.05674561 19.76307007 2.05674561 19.76307007 1.08447266 20.82250977 C-2.54583881 24.61482037 -6.23718782 28.33863901 -9.96875 32.03125 C-10.8078894 32.86660278 -11.64702881 33.70195557 -12.51159668 34.56262207 C-16.0685452 38.10336129 -19.6314612 41.63807324 -23.19384766 45.17333984 C-25.80840164 47.7697206 -28.41988184 50.36916566 -31.03125 52.96875 C-31.82623901 53.75544067 -32.62122803 54.54213135 -33.44030762 55.35266113 C-37.65087466 59.54487172 -41.6944007 63.81696861 -45.56356812 68.32717896 C-47.35198414 70.40990908 -49.20818006 72.41005906 -51.125 74.375 C-51.74632812 75.02210938 -52.36765625 75.66921875 -53.0078125 76.3359375 C-56.19080466 78.99467212 -59.26457124 79.87511587 -63.3125 80.5625 C-72.64329255 79.13915876 -81.0057076 67.14635216 -87.51147461 60.61889648 C-89.45377265 58.67118197 -91.4014314 56.7289407 -93.34960938 54.78710938 C-94.58625875 53.54980017 -95.82259842 52.31218132 -97.05859375 51.07421875 C-97.64080185 50.49403488 -98.22300995 49.91385101 -98.82286072 49.31608582 C-103.8767609 44.23239102 -103.8767609 44.23239102 -104.375 39.25 C-104.33925671 35.97353159 -103.80558697 34.18502549 -101.75 31.625 C-97.81105865 27.86510144 -96.6466535 26.97344107 -91.125 27.0625 C-84.50659367 28.10815899 -80.9081407 32.95723781 -77 38 C-73.42252752 41.77622095 -69.56437985 45.12285525 -65.57421875 48.44921875 C-64.79498047 49.21685547 -64.79498047 49.21685547 -64 50 C-64 50.66 -64 51.32 -64 52 C-57.99632454 46.93916135 -52.40742807 41.53177191 -46.88147354 35.95663834 C-45.41251736 34.47472816 -43.94029273 32.99613218 -42.46725464 31.51828003 C-39.35031314 28.39002235 -36.2373807 25.25779447 -33.125 22.125 C-29.49464189 18.47100584 -25.86264031 14.81867572 -22.22643661 11.17049789 C-20.77634941 9.71393222 -19.32930389 8.25439033 -17.88235474 6.79470825 C-17.00739349 5.91644379 -16.13243225 5.03817932 -15.23095703 4.13330078 C-14.46010773 3.35721466 -13.68925842 2.58112854 -12.89505005 1.78152466 C-8.93010643 -1.94589396 -5.03335581 -1.340542 0 0 Z " fill="#54B146" transform="translate(986,818)"/>
<path d="M0 0 C6.40977936 8.83252334 7.66144425 17.40963281 6 28 C4.87651499 31.8237911 3.32144185 34.77479072 1 38 C0.50371094 38.70382812 0.00742187 39.40765625 -0.50390625 40.1328125 C-9.04007668 50.9521514 -22.68755885 56.67595946 -36 59 C-53.19648124 60.32616363 -70.6812954 59.66286513 -85 49 C-82.20153839 45.99514778 -79.47134967 43.91583912 -75.90625 41.890625 C-74.89014648 41.30909668 -73.87404297 40.72756836 -72.82714844 40.12841797 C-71.72918945 39.50854004 -70.63123047 38.88866211 -69.5 38.25 C-68.34111696 37.58932567 -67.18259516 36.92801736 -66.02441406 36.26611328 C-62.9700984 34.52237727 -59.91168964 32.78595286 -56.85229492 31.05114746 C-52.06713543 28.33564671 -47.28925715 25.60733579 -42.51095581 22.87979126 C-41.3381159 22.21057555 -40.16504085 21.54177178 -38.99172974 20.87338257 C-29.82058323 15.6487777 -20.71097117 10.32812735 -11.66113281 4.89599609 C-10.40381348 4.14503662 -10.40381348 4.14503662 -9.12109375 3.37890625 C-8.02945923 2.72257202 -8.02945923 2.72257202 -6.91577148 2.05297852 C-4.60718039 0.78409189 -2.65611412 0 0 0 Z " fill="#EAF5E9" transform="translate(458,853)"/>
<path d="M0 0 C-17.09982077 10.16584604 -34.31060289 20.13138554 -51.55761719 30.04492188 C-53.93500764 31.4115135 -56.31195164 32.77887643 -58.68847656 34.14697266 C-60.91622039 35.42923896 -63.14469177 36.71024239 -65.37402344 37.98974609 C-70.46413197 40.91999776 -75.49261101 43.87981338 -80.37451172 47.14794922 C-82 48 -82 48 -85 48 C-90.10614933 39.06423867 -91.55452243 30.78535411 -89.5234375 20.61328125 C-86.10354119 10.12697269 -77.26530504 2.0587053 -67.73632812 -2.88061523 C-47.32239702 -13.10096873 -18.91740315 -14.50209374 0 0 Z " fill="#E9F5E9" transform="translate(446,843)"/>
<path d="M0 0 C5.31331025 2.14490414 8.38444474 4.89417257 11 10 C11.38095093 12.80076599 11.38095093 12.80076599 11.38818359 15.88842773 C11.39764008 17.04990829 11.40709656 18.21138885 11.4168396 19.4080658 C11.41076691 20.65399002 11.40469421 21.89991425 11.3984375 23.18359375 C11.40130768 24.47185562 11.40417786 25.76011749 11.40713501 27.0874176 C11.41154876 29.81009757 11.40515946 32.53248151 11.39111328 35.25512695 C11.37403846 38.73310442 11.38385694 42.21038641 11.40183067 45.68833828 C11.4153238 49.02014474 11.40585512 52.35176757 11.3984375 55.68359375 C11.40754654 57.54944374 11.40754654 57.54944374 11.4168396 59.45298767 C11.36160938 66.25497995 11.16071735 71.30677049 6.5625 76.6796875 C2.02548368 80.15050498 -1.82319218 80.64544904 -7.484375 80.3515625 C-12.24974498 79.68559465 -14.65387892 77.51721137 -17.75 74.0625 C-20.84839957 69.84523392 -21.12327848 66.85202111 -21.16113281 61.69995117 C-21.17074036 60.64172653 -21.1803479 59.58350189 -21.19024658 58.49320984 C-21.19449646 57.35463028 -21.19874634 56.21605072 -21.203125 55.04296875 C-21.20882507 53.86664383 -21.21452515 52.69031891 -21.22039795 51.47834778 C-21.22984246 48.98939919 -21.23637975 46.50043813 -21.24023438 44.01147461 C-21.24993614 40.21250488 -21.28096411 36.41407707 -21.3125 32.61523438 C-21.31903071 30.19531571 -21.32428091 27.77539318 -21.328125 25.35546875 C-21.3404718 24.22296188 -21.3528186 23.09045502 -21.36553955 21.92362976 C-21.34658109 15.1789045 -21.12118745 9.54211095 -16.46484375 4.2578125 C-10.77594636 0.03842569 -7.06874156 -0.91842044 0 0 Z " fill="#55B247" transform="translate(759,492)"/>
<path d="M0 0 C4.17856189 2.12514843 7.23579916 4.95123414 8.9453125 9.30078125 C9.5519626 13.78763193 9.52952756 18.24328895 9.51171875 22.765625 C9.52101662 24.72563194 9.52101662 24.72563194 9.53050232 26.72523499 C9.54088175 29.48489063 9.53638188 32.24402986 9.52172852 35.00366211 C9.50455033 38.52559611 9.52803314 42.04589705 9.56321812 45.56764889 C9.59056812 48.94623496 9.58045084 52.32443356 9.57421875 55.703125 C9.58747696 56.96060043 9.60073517 58.21807587 9.61439514 59.51365662 C9.53691471 66.81683331 8.99901845 70.90074207 3.9453125 76.30078125 C-0.01239641 79.90928055 -4.26192504 79.80722754 -9.3984375 79.6484375 C-13.20499113 79.1502268 -15.25418949 77.89636477 -18.0546875 75.30078125 C-21.65854959 70.52809902 -23.1687772 67.06405612 -23.23168945 61.13012695 C-23.24452469 60.07505447 -23.25735992 59.01998199 -23.27058411 57.93293762 C-23.27797104 56.79233383 -23.28535797 55.65173004 -23.29296875 54.4765625 C-23.3010405 53.30119431 -23.30911224 52.12582611 -23.31742859 50.9148407 C-23.33126875 48.42411778 -23.3419912 45.93337591 -23.34985352 43.44262695 C-23.36704108 39.64562685 -23.41092678 35.84950307 -23.45507812 32.05273438 C-23.4652074 29.63151681 -23.47372277 27.21029185 -23.48046875 24.7890625 C-23.49797684 23.65857986 -23.51548492 22.52809723 -23.53352356 21.36335754 C-23.5135099 14.03784326 -22.71822051 8.09529208 -17.47041321 2.65986633 C-12.45629975 -1.76311874 -6.20206403 -2.11058833 0 0 Z " fill="#55B248" transform="translate(923.0546875,492.69921875)"/>
<path d="M0 0 C1.49755431 -0.01652429 2.99503089 -0.0437684 4.4921875 -0.08203125 C6.65894179 -0.13708577 8.82384938 -0.15871624 10.99121094 -0.17333984 C12.28768555 -0.19315918 13.58416016 -0.21297852 14.91992188 -0.23339844 C19.54848083 0.51954574 21.43074318 1.82798747 24.50683594 5.35009766 C25.11161154 8.22040346 25.33076096 10.24176561 25.26855469 13.10009766 C25.27192337 13.83583008 25.27529205 14.5715625 25.27876282 15.32958984 C25.27846486 16.87946591 25.26329869 18.4294023 25.23413086 19.97900391 C25.1944362 22.34412399 25.21343134 24.70363474 25.23925781 27.06884766 C25.23169801 28.57928595 25.22074382 30.08971187 25.20605469 31.60009766 C25.21653084 32.65342285 25.21653084 32.65342285 25.22721863 33.72802734 C25.122941 37.3755046 24.55221866 39.28524368 22.44750977 42.29296875 C18.83321427 44.82132523 16.02186145 45.0756326 11.75683594 45.01416016 C10.6532373 45.0213356 10.6532373 45.0213356 9.52734375 45.02865601 C7.97751721 45.03204646 6.42761833 45.02290357 4.87792969 45.00195312 C2.51301807 44.97516768 0.15285092 45.00172183 -2.21191406 45.03369141 C-3.72234115 45.03038715 -5.23276529 45.02398056 -6.74316406 45.01416016 C-7.79648926 45.02934189 -7.79648926 45.02934189 -8.87109375 45.04483032 C-12.53343324 44.95792528 -14.42229186 44.39993087 -17.43823242 42.27929688 C-19.93361141 38.72226265 -20.20390408 36.01813496 -20.12207031 31.81884766 C-20.12448227 31.10531128 -20.12689423 30.3917749 -20.12937927 29.65661621 C-20.12840341 28.15383322 -20.11507172 26.65101312 -20.09008789 25.1484375 C-20.05575748 22.85633478 -20.06944169 20.56808793 -20.08886719 18.27587891 C-20.08196824 16.81101885 -20.07229539 15.34616869 -20.05957031 13.88134766 C-20.06453018 13.20100464 -20.06949005 12.52066162 -20.07460022 11.81970215 C-19.95830892 7.08936419 -18.82079271 4.68122539 -15.49316406 1.35009766 C-11.0179402 -0.88751427 -4.97416621 0.04020187 0 0 Z " fill="#55B247" transform="translate(713.4931640625,759.64990234375)"/>
<path d="M0 0 C0.73573242 -0.00478363 1.47146484 -0.00956726 2.22949219 -0.01449585 C3.77931873 -0.0178863 5.32921761 -0.00874342 6.87890625 0.01220703 C9.24381786 0.03899248 11.60398502 0.01243833 13.96875 -0.01953125 C15.47917708 -0.01622699 16.98960123 -0.0098204 18.5 0 C19.5533252 -0.01518173 19.5533252 -0.01518173 20.62792969 -0.03067017 C24.28978982 0.0562235 26.17806511 0.61344431 29.19287109 2.73486328 C31.68707014 6.28641801 31.97649474 8.99862341 31.9140625 13.1953125 C31.91884613 13.90884888 31.92362976 14.62238525 31.92855835 15.35754395 C31.9319481 16.86029272 31.92281008 18.36311616 31.90185547 19.86572266 C31.87506783 22.15825725 31.90162531 24.44589784 31.93359375 26.73828125 C31.93028948 28.20313574 31.92388286 29.6679872 31.9140625 31.1328125 C31.92418365 31.81315552 31.93430481 32.49349854 31.94473267 33.19445801 C31.84954376 37.08497765 31.33262199 38.56713586 28.77099609 41.57226562 C27.93906738 42.26255859 27.10713867 42.95285156 26.25 43.6640625 C25.92 43.9940625 25.59 44.3240625 25.25 44.6640625 C20.76335881 44.9313 16.27099342 44.93537791 11.77734375 44.95922852 C9.52281146 44.97638887 7.26976591 45.02024944 5.015625 45.06445312 C3.57813579 45.07458462 2.14063409 45.08309929 0.703125 45.08984375 C-0.60495117 45.10442627 -1.91302734 45.11900879 -3.26074219 45.1340332 C-7.31015203 44.58861521 -8.93005707 43.57036372 -11.75 40.6640625 C-13.52324695 35.34432165 -13.05494102 29.61188049 -13.10009766 24.04052734 C-13.11666136 22.54297347 -13.14395771 21.04549879 -13.18212891 19.54833984 C-13.23704638 17.38077122 -13.25878833 15.21504656 -13.2734375 13.046875 C-13.29325684 11.75152832 -13.31307617 10.45618164 -13.33349609 9.12158203 C-12.75 5.6640625 -12.75 5.6640625 -10.70166016 2.74414062 C-7.08158447 0.19302029 -4.2805384 -0.06169603 0 0 Z " fill="#55B248" transform="translate(785.75,680.3359375)"/>
<path d="M0 0 C0.73573242 -0.00478363 1.47146484 -0.00956726 2.22949219 -0.01449585 C3.77931873 -0.0178863 5.32921761 -0.00874342 6.87890625 0.01220703 C9.24381786 0.03899248 11.60398502 0.01243833 13.96875 -0.01953125 C15.47917708 -0.01622699 16.98960123 -0.0098204 18.5 0 C19.5533252 -0.01518173 19.5533252 -0.01518173 20.62792969 -0.03067017 C24.28978982 0.0562235 26.17806511 0.61344431 29.19287109 2.73486328 C31.68707014 6.28641801 31.97649474 8.99862341 31.9140625 13.1953125 C31.91884613 13.90884888 31.92362976 14.62238525 31.92855835 15.35754395 C31.9319481 16.86029272 31.92281008 18.36311616 31.90185547 19.86572266 C31.87506783 22.15825725 31.90162531 24.44589784 31.93359375 26.73828125 C31.93028948 28.20313574 31.92388286 29.6679872 31.9140625 31.1328125 C31.92418365 31.81315552 31.93430481 32.49349854 31.94473267 33.19445801 C31.84954376 37.08497765 31.33262199 38.56713586 28.77099609 41.57226562 C27.93906738 42.26255859 27.10713867 42.95285156 26.25 43.6640625 C25.92 43.9940625 25.59 44.3240625 25.25 44.6640625 C20.76335881 44.9313 16.27099342 44.93537791 11.77734375 44.95922852 C9.52281146 44.97638887 7.26976591 45.02024944 5.015625 45.06445312 C3.57813579 45.07458462 2.14063409 45.08309929 0.703125 45.08984375 C-0.60495117 45.10442627 -1.91302734 45.11900879 -3.26074219 45.1340332 C-7.29417334 44.59076739 -8.90468416 43.51169753 -11.75 40.6640625 C-13.99334174 36.17737902 -13.06119375 29.66999844 -13.10009766 24.6887207 C-13.11664362 23.13583373 -13.14391642 21.5830225 -13.18212891 20.03051758 C-13.23704414 17.78687209 -13.25879138 15.54500925 -13.2734375 13.30078125 C-13.29610687 12.61102707 -13.31877625 11.92127289 -13.34213257 11.21061707 C-13.3262376 7.56401421 -12.80237861 5.73913434 -10.70166016 2.72827148 C-7.08091439 0.19614531 -4.27217792 -0.06157553 0 0 Z " fill="#55B247" transform="translate(706.75,680.3359375)"/>
<path d="M0 0 C2.16227385 -0.0171609 4.32299711 -0.0610394 6.48486328 -0.10522461 C7.86896666 -0.11535674 9.253083 -0.12387122 10.63720703 -0.13061523 C11.89178711 -0.14519775 13.14636719 -0.15978027 14.43896484 -0.17480469 C18.56553172 0.38007386 20.71562067 1.70405742 23.93408203 4.29516602 C26.17742377 8.78184949 25.24527578 15.28923008 25.28417969 20.27050781 C25.30072565 21.82339479 25.32799845 23.37620602 25.36621094 24.92871094 C25.42112617 27.17235643 25.44287341 29.41421927 25.45751953 31.65844727 C25.4801889 32.34820145 25.50285828 33.03795563 25.5262146 33.74861145 C25.51032401 37.39420972 24.98542551 39.22144362 22.88793945 42.2331543 C19.25182551 44.77143171 16.43436418 45.00462366 12.14892578 44.92407227 C11.41082169 44.92648422 10.67271759 44.92889618 9.9122467 44.93138123 C8.35819097 44.93040527 6.80409938 44.91707144 5.25024414 44.89208984 C2.87477459 44.85771222 0.50301481 44.87145564 -1.87255859 44.89086914 C-3.38624626 44.88397177 -4.89992436 44.87430035 -6.41357422 44.86157227 C-7.1209523 44.86653214 -7.82833038 44.871492 -8.55714417 44.87660217 C-11.9785318 44.79503497 -13.76300242 44.53471267 -16.48168945 42.38476562 C-20.39241119 37.22651823 -19.32790961 30.96286397 -19.36108398 24.74707031 C-19.37827448 22.50141028 -19.42215797 20.25723168 -19.46630859 18.01196289 C-19.47643798 16.57903099 -19.48495332 15.14608659 -19.49169922 13.71313477 C-19.50628174 12.41142334 -19.52086426 11.10971191 -19.53588867 9.76855469 C-18.9915944 5.74586656 -17.90486 4.13476865 -15.06591797 1.29516602 C-10.69751346 -0.88903624 -4.85255401 0.02683087 0 0 Z " fill="#55B247" transform="translate(792.06591796875,759.704833984375)"/>
<path d="M0 0 C1.49755431 -0.01652429 2.99503089 -0.0437684 4.4921875 -0.08203125 C6.65894179 -0.13708577 8.82384938 -0.15871624 10.99121094 -0.17333984 C12.28768555 -0.19315918 13.58416016 -0.21297852 14.91992188 -0.23339844 C19.54140699 0.51839502 21.42988304 1.84032977 24.50683594 5.35009766 C25.1007557 8.15573569 25.30892948 10.0915309 25.23339844 12.88134766 C25.23439545 13.59488403 25.23539246 14.30842041 25.23641968 15.0435791 C25.23175592 16.54641914 25.21240143 18.04927735 25.17919922 19.55175781 C25.13196077 21.8440403 25.13808646 24.13166998 25.15136719 26.42431641 C25.14021263 27.88918771 25.12599218 29.35403954 25.10839844 30.81884766 C25.11113266 31.83936218 25.11113266 31.83936218 25.11392212 32.88049316 C24.97415165 37.60330258 23.82808392 40.02185757 20.50683594 43.35009766 C16.01022639 45.59840243 9.522228 44.70298103 4.53149414 44.75512695 C2.97853349 44.77670261 1.42569432 44.81080163 -0.12670898 44.85766602 C-2.37050406 44.92476258 -4.6117879 44.95213526 -6.85644531 44.97119141 C-7.54619949 44.99902206 -8.23595367 45.02685272 -8.9466095 45.05552673 C-12.9254972 45.03864302 -14.40918908 44.42371707 -17.43115234 41.77441406 C-19.82312379 37.80214417 -20.1246855 35.54703666 -20.12207031 30.93994141 C-20.12448227 30.25001602 -20.12689423 29.56009064 -20.12937927 28.84925842 C-20.12840516 27.39952816 -20.11511571 25.94975868 -20.09008789 24.50024414 C-20.05569209 22.28939902 -20.06946636 20.08253951 -20.08886719 17.87158203 C-20.08196968 16.4568516 -20.07229813 15.0421314 -20.05957031 13.62744141 C-20.04325562 11.71306274 -20.04325562 11.71306274 -20.02661133 9.76000977 C-19.40948016 5.81517176 -18.27613583 4.15713064 -15.49316406 1.35009766 C-11.0179402 -0.88751427 -4.97416621 0.04020187 0 0 Z " fill="#54B247" transform="translate(713.4931640625,839.64990234375)"/>
<path d="M0 0 C2.24566003 -0.0171905 4.48983863 -0.06107399 6.73510742 -0.10522461 C8.16803932 -0.11535399 9.60098372 -0.12386933 11.03393555 -0.13061523 C12.98650269 -0.15248901 12.98650269 -0.15248901 14.97851562 -0.17480469 C19.00120375 0.36948959 20.61230166 1.45622398 23.4519043 4.29516602 C25.69225554 8.7758685 24.72047779 14.86069214 24.74707031 19.84326172 C24.76426081 22.08892175 24.8081443 24.33310035 24.85229492 26.57836914 C24.8624243 28.01130104 24.87093964 29.44424544 24.87768555 30.87719727 C24.89226807 32.17890869 24.90685059 33.48062012 24.921875 34.82177734 C24.37758073 38.84446547 23.29084633 40.45556338 20.4519043 43.29516602 C15.95529475 45.54347079 9.46729636 44.64804939 4.4765625 44.70019531 C2.92360185 44.72177097 1.37076268 44.75586999 -0.18164062 44.80273438 C-2.4254357 44.86983094 -4.66671954 44.89720362 -6.91137695 44.91625977 C-7.60113113 44.94409042 -8.29088531 44.97192108 -9.00154114 45.00059509 C-12.98042884 44.98371138 -14.46412072 44.36878543 -17.48608398 41.71948242 C-19.87805543 37.74721253 -20.17961714 35.49210502 -20.17700195 30.88500977 C-20.17941391 30.19508438 -20.18182587 29.505159 -20.18431091 28.79432678 C-20.1833368 27.34459652 -20.17004735 25.89482704 -20.14501953 24.4453125 C-20.11062373 22.23446738 -20.124398 20.02760787 -20.14379883 17.81665039 C-20.13690132 16.40191996 -20.12722977 14.98719976 -20.11450195 13.57250977 C-20.09818726 11.6581311 -20.09818726 11.6581311 -20.08154297 9.70507812 C-19.4644118 5.76024012 -18.33106747 4.102199 -15.5480957 1.29516602 C-11.06739322 -0.94518523 -4.98256958 0.02659252 0 0 Z " fill="#54B247" transform="translate(792.548095703125,839.704833984375)"/>
<path d="M0 0 C0.75934341 -0.0071553 1.51868683 -0.01431061 2.30104065 -0.02168274 C3.90388822 -0.02945211 5.50684178 -0.02446341 7.10961914 -0.00756836 C9.55624164 0.01163895 11.99716504 -0.02769983 14.44335938 -0.07226562 C16.00390962 -0.07255605 17.56446505 -0.06941431 19.125 -0.0625 C19.85222763 -0.07778244 20.57945526 -0.09306488 21.32872009 -0.10881042 C25.38870764 -0.01617368 27.00793137 0.59289781 30.08764648 3.29956055 C32.41677044 7.1786481 32.77235385 9.36259799 32.79296875 13.85546875 C32.79775238 14.52082642 32.80253601 15.18618408 32.8074646 15.8717041 C32.81084768 17.27012515 32.80175673 18.66862701 32.78076172 20.06689453 C32.75396133 22.19484504 32.78055122 24.31752397 32.8125 26.4453125 C32.84012563 37.7511844 32.84012563 37.7511844 29.71484375 41.60546875 C24.40035005 45.9084425 18.55515095 44.95828624 12.00805664 44.99438477 C9.83480386 45.01157324 7.66308279 45.05545682 5.49023438 45.09960938 C4.10287575 45.10973901 2.71550421 45.11825427 1.328125 45.125 C0.06830811 45.13958252 -1.19150879 45.15416504 -2.48950195 45.16918945 C-6.44998835 44.61876448 -8.06429188 43.48720697 -10.87109375 40.69921875 C-12.35143194 37.73854237 -12.07488704 34.70959954 -12.109375 31.4609375 C-12.11744675 30.74315628 -12.12551849 30.02537506 -12.13383484 29.2858429 C-12.14767161 27.76521212 -12.1583956 26.24455034 -12.16625977 24.72387695 C-12.18345217 22.40580833 -12.22733556 20.08917406 -12.27148438 17.77148438 C-12.28161352 16.29297922 -12.29012894 14.81446196 -12.296875 13.3359375 C-12.31438309 12.64618332 -12.33189117 11.95642914 -12.34992981 11.24577332 C-12.33500133 7.90932278 -11.88880118 5.73306737 -10.33642578 2.765625 C-7.01226255 -0.02064135 -4.15675751 -0.03980958 0 0 Z " fill="#55B248" transform="translate(863.87109375,680.30078125)"/>
<path d="M0 0 C1.10359863 -0.01073296 1.10359863 -0.01073296 2.22949219 -0.02168274 C3.7792846 -0.02943951 5.32918681 -0.02449021 6.87890625 -0.00756836 C9.24429122 0.01167231 11.60380536 -0.02775076 13.96875 -0.07226562 C15.47917015 -0.072556 16.98959566 -0.06941566 18.5 -0.0625 C19.2022168 -0.07778244 19.90443359 -0.09306488 20.62792969 -0.10881042 C24.61416096 -0.01467294 26.16873652 0.62785197 29.19287109 3.28369141 C31.57731829 7.24267744 31.89378445 9.5163966 31.9140625 14.109375 C31.91884613 14.79930038 31.92362976 15.48922577 31.92855835 16.20005798 C31.93194201 17.64975279 31.92284701 19.0995255 31.90185547 20.54907227 C31.87501646 22.76036252 31.90166576 24.96659844 31.93359375 27.17773438 C31.93029017 28.59245904 31.92388497 30.00718058 31.9140625 31.421875 C31.90560303 33.33625366 31.90560303 33.33625366 31.89697266 35.28930664 C31.09035541 39.54063609 29.55577215 41.00230598 26.25 43.69921875 C21.86875169 45.88984291 15.99668656 44.96754677 11.12915039 44.99438477 C8.95589761 45.01157324 6.78417654 45.05545682 4.61132812 45.09960938 C3.2239695 45.10973901 1.83659796 45.11825427 0.44921875 45.125 C-0.81059814 45.13958252 -2.07041504 45.15416504 -3.3684082 45.16918945 C-7.3288946 44.61876448 -8.94319813 43.48720697 -11.75 40.69921875 C-13.99334174 36.21253527 -13.06119375 29.70515469 -13.10009766 24.72387695 C-13.11664362 23.17098998 -13.14391642 21.61817875 -13.18212891 20.06567383 C-13.23704414 17.82202834 -13.25879138 15.5801655 -13.2734375 13.3359375 C-13.29610687 12.64618332 -13.31877625 11.95642914 -13.34213257 11.24577332 C-13.32623977 7.59966709 -12.80315141 5.7753412 -10.70166016 2.765625 C-7.08620072 0.23450435 -4.26968839 -0.04246542 0 0 Z " fill="#56B349" transform="translate(942.75,680.30078125)"/>
<path d="M0 0 C2.75329021 1.79562405 4.52627461 3.05254922 6 6 C6.11624665 7.79075855 6.16963378 9.58574976 6.19287109 11.38012695 C6.21696548 13.06746696 6.21696548 13.06746696 6.24154663 14.78889465 C6.28591476 19.93566091 6.32750102 25.08233801 6.35009766 30.22924805 C6.36343211 32.94638779 6.39127382 35.6627756 6.43212891 38.37963867 C6.49094168 42.2908323 6.50875963 46.20166052 6.5234375 50.11328125 C6.54610687 51.32800613 6.56877625 52.54273102 6.59213257 53.79426575 C6.56856597 63.17406162 6.56856597 63.17406162 3.59228516 66.24291992 C-0.23182104 68.83494217 -2.33338864 69.5490131 -7 69 C-9.8125 66.5625 -9.8125 66.5625 -12 64 C-12.33 63.67 -12.66 63.34 -13 63 C-13.11462029 61.24721867 -13.1596295 59.48983756 -13.17700195 57.73339844 C-13.18983719 56.60842957 -13.20267242 55.48346069 -13.21589661 54.32440186 C-13.22328354 53.09844299 -13.23067047 51.87248413 -13.23828125 50.609375 C-13.246353 49.35747375 -13.25442474 48.10557251 -13.26274109 46.81573486 C-13.27660379 44.15918253 -13.28761323 41.50275523 -13.29516602 38.84619141 C-13.30621112 35.44865607 -13.34058136 32.05177924 -13.38033772 28.65447617 C-13.41283025 25.41034104 -13.41728614 22.16614806 -13.42578125 18.921875 C-13.45204338 17.09508209 -13.45204338 17.09508209 -13.47883606 15.23138428 C-13.47591049 14.09380676 -13.47298492 12.95622925 -13.4699707 11.78417969 C-13.47583694 10.78570007 -13.48170319 9.78722046 -13.48774719 8.75848389 C-12.86544158 5.23899665 -11.43905068 3.56167896 -9 1 C-5.89951072 -0.55024464 -3.42105782 -0.28992015 0 0 Z " fill="#E8F5E7" transform="translate(532,298)"/>
<path d="M0 0 C2.75329021 1.79562405 4.52627461 3.05254922 6 6 C6.11624665 7.79075855 6.16963378 9.58574976 6.19287109 11.38012695 C6.21696548 13.06746696 6.21696548 13.06746696 6.24154663 14.78889465 C6.28591476 19.93566091 6.32750102 25.08233801 6.35009766 30.22924805 C6.36343211 32.94638779 6.39127382 35.6627756 6.43212891 38.37963867 C6.49094168 42.2908323 6.50875963 46.20166052 6.5234375 50.11328125 C6.54610687 51.32800613 6.56877625 52.54273102 6.59213257 53.79426575 C6.56856597 63.17406162 6.56856597 63.17406162 3.59228516 66.24291992 C-0.23182104 68.83494217 -2.33338864 69.5490131 -7 69 C-9.57285724 66.827365 -11.48996919 65.02006162 -13 62 C-13.11104916 60.23973558 -13.15920049 58.47534389 -13.17700195 56.71166992 C-13.18983719 55.60679733 -13.20267242 54.50192474 -13.21589661 53.36357117 C-13.22328354 52.16464737 -13.23067047 50.96572357 -13.23828125 49.73046875 C-13.246353 48.5021785 -13.25442474 47.27388824 -13.26274109 46.00837708 C-13.27659134 43.4049318 -13.28730927 40.8014683 -13.29516602 38.19799805 C-13.30839491 34.21440279 -13.35626517 30.2314172 -13.40039062 26.24804688 C-13.41051672 23.72136028 -13.41903308 21.19466662 -13.42578125 18.66796875 C-13.44328934 17.47511765 -13.46079742 16.28226654 -13.47883606 15.05326843 C-13.45710549 6.77624012 -13.45710549 6.77624012 -11.09838867 2.77075195 C-7.39401257 -0.35523291 -4.82244886 -0.40868211 0 0 Z " fill="#E8F5E7" transform="translate(353,298)"/>
<path d="M0 0 C5.57894737 3.15789474 5.57894737 3.15789474 7 6 C7.11624665 7.79075855 7.16963378 9.58574976 7.19287109 11.38012695 C7.21696548 13.06746696 7.21696548 13.06746696 7.24154663 14.78889465 C7.28591476 19.93566091 7.32750102 25.08233801 7.35009766 30.22924805 C7.36343211 32.94638779 7.39127382 35.6627756 7.43212891 38.37963867 C7.49094168 42.2908323 7.50875963 46.20166052 7.5234375 50.11328125 C7.54610687 51.32800613 7.56877625 52.54273102 7.59213257 53.79426575 C7.56856597 63.17406162 7.56856597 63.17406162 4.59228516 66.24291992 C0.75250868 68.84556367 -1.32105049 69.45872054 -6 69 C-9.33761045 66.84909549 -10.73470933 65.79587201 -12 62 C-12.10789034 60.20164862 -12.15877728 58.39963721 -12.17700195 56.59814453 C-12.18983719 55.49334747 -12.20267242 54.38855042 -12.21589661 53.25027466 C-12.22328354 52.05651215 -12.23067047 50.86274963 -12.23828125 49.6328125 C-12.246353 48.40593719 -12.25442474 47.17906189 -12.26274109 45.91500854 C-12.27657926 43.3175396 -12.2873026 40.7200525 -12.29516602 38.12255859 C-12.3124013 34.14776308 -12.35629437 30.17379436 -12.40039062 26.19921875 C-12.41051552 23.67708946 -12.41903225 21.15495309 -12.42578125 18.6328125 C-12.44328934 17.44309845 -12.46079742 16.2533844 -12.47883606 15.02761841 C-12.45710852 6.7757171 -12.45710852 6.7757171 -10.09838867 2.77294922 C-6.6529105 -0.13816917 -4.49335853 -0.4320537 0 0 Z " fill="#E9F5E9" transform="translate(591,298)"/>
<path d="M0 0 C3.8946741 0.77893482 5.65071354 1.90071354 8.4375 4.6875 C9.73017002 7.27284004 9.58580288 9.17248528 9.61450195 12.06762695 C9.62733719 13.19252029 9.64017242 14.31741364 9.65339661 15.47639465 C9.66078354 16.69719223 9.66817047 17.91798981 9.67578125 19.17578125 C9.683853 20.42626755 9.69192474 21.67675385 9.70024109 22.96513367 C9.71409195 25.61570958 9.72510536 28.26616069 9.73266602 30.91674805 C9.74372212 34.30640749 9.7781122 37.69540892 9.81783772 41.08483601 C9.85032306 44.3234191 9.85478463 47.56206005 9.86328125 50.80078125 C9.88078934 52.01550613 9.89829742 53.23023102 9.91633606 54.48176575 C9.91341049 55.61611557 9.91048492 56.75046539 9.9074707 57.91918945 C9.91627007 59.41238457 9.91627007 59.41238457 9.92524719 60.93574524 C9.30225454 64.45052302 7.87285273 66.12855231 5.4375 68.6875 C2.29878812 70.25685594 -0.10105822 70.03951103 -3.5625 69.6875 C-6.4375 67.25 -6.4375 67.25 -8.5625 64.6875 C-8.8925 64.3575 -9.2225 64.0275 -9.5625 63.6875 C-9.68749055 61.97629182 -9.74320427 60.25997142 -9.77124023 58.54443359 C-9.79053085 57.44594086 -9.80982147 56.34744812 -9.82969666 55.21566772 C-9.88727207 50.16740984 -9.93674956 45.11929943 -9.9675293 40.07080078 C-9.98529219 37.40847603 -10.02315325 34.74865417 -10.07006836 32.08642578 C-10.13705649 28.25260679 -10.16453274 24.42025922 -10.18359375 20.5859375 C-10.21142441 19.40027191 -10.23925507 18.21460632 -10.26792908 16.99301147 C-10.25190196 10.53824136 -9.78665325 6.55634769 -5.20106506 1.83242798 C-3.5625 0.6875 -3.5625 0.6875 0 0 Z " fill="#E7F4E7" transform="translate(468.5625,297.3125)"/>
<path d="M0 0 C2.95342076 1.59012934 4.20989889 2.29164606 6 5 C6.89309576 9.32805657 6.79268529 13.59460983 6.7265625 18 C6.72755951 19.2684375 6.72855652 20.536875 6.72958374 21.84375 C6.72490415 24.5246782 6.70864521 27.20243608 6.67236328 29.8828125 C6.62698484 33.30959727 6.62590314 36.73461852 6.63939857 40.16162109 C6.6477076 43.4412126 6.62372062 46.72049381 6.6015625 50 C6.60429672 51.84078125 6.60429672 51.84078125 6.60708618 53.71875 C6.58802216 54.8634375 6.56895813 56.008125 6.54931641 57.1875 C6.54010162 58.19167969 6.53088684 59.19585937 6.52139282 60.23046875 C5.86102047 63.73823065 4.43527745 65.4382788 2 68 C-1.13871188 69.56935594 -3.53855822 69.35201103 -7 69 C-9.63016161 66.8272578 -11.47336894 65.05326212 -13 62 C-13.10585877 60.27022588 -13.14877551 58.536433 -13.16113281 56.8034668 C-13.17074036 55.71861496 -13.1803479 54.63376312 -13.19024658 53.51603699 C-13.1966214 51.75046196 -13.1966214 51.75046196 -13.203125 49.94921875 C-13.20882507 48.74312454 -13.21452515 47.53703033 -13.22039795 46.29438782 C-13.22985846 43.73801555 -13.23638609 41.18163102 -13.24023438 38.62524414 C-13.24993394 34.71413873 -13.28094591 30.80355997 -13.3125 26.89257812 C-13.31903044 24.41146146 -13.32428075 21.93034103 -13.328125 19.44921875 C-13.3404718 18.27824142 -13.3528186 17.1072641 -13.36553955 15.90080261 C-13.36253845 14.80649429 -13.35953735 13.71218597 -13.35644531 12.5847168 C-13.36009094 11.62478317 -13.36373657 10.66484955 -13.36749268 9.67582703 C-12.92536752 6.45657799 -11.9103745 4.61101903 -10 2 C-6.23124125 -0.51250583 -4.46849866 -0.53016086 0 0 Z " fill="#E8F4E7" transform="translate(412,298)"/>
<path d="M0 0 C0.69548035 1.7660675 0.69548035 1.7660675 1 4 C-0.2195282 5.84098816 -0.2195282 5.84098816 -2.12768555 7.74291992 C-2.83559738 8.46013718 -3.54350922 9.17735443 -4.27287292 9.91630554 C-5.05294205 10.6799794 -5.83301117 11.44365326 -6.63671875 12.23046875 C-7.42770462 13.0214949 -8.21869049 13.81252106 -9.03364563 14.6275177 C-10.71171946 16.30022272 -12.39592839 17.96679174 -14.08569336 19.62768555 C-16.67342184 22.17364906 -19.23926715 24.74018132 -21.80273438 27.31054688 C-23.43363736 28.93095511 -25.06575939 30.55013751 -26.69921875 32.16796875 C-27.46916672 32.9377153 -28.23911469 33.70746185 -29.03239441 34.50053406 C-29.75606705 35.20829483 -30.47973969 35.9160556 -31.2253418 36.64526367 C-31.85901169 37.27051437 -32.49268158 37.89576508 -33.14555359 38.53996277 C-35.12120002 40.09542284 -36.54139441 40.59536819 -39 41 C-34.70947319 35.86752722 -30.20737255 31.08557329 -25.44921875 26.38671875 C-24.74980667 25.69109329 -24.05039459 24.99546783 -23.32978821 24.27876282 C-21.11812074 22.07921365 -18.90322271 19.88296357 -16.6875 17.6875 C-13.75105827 14.77758953 -10.81790284 11.8644241 -7.88671875 8.94921875 C-6.87275276 7.94770027 -6.87275276 7.94770027 -5.83830261 6.9259491 C-5.21708023 6.30802994 -4.59585785 5.69011078 -3.95581055 5.0534668 C-3.40765182 4.51054489 -2.8594931 3.96762299 -2.29472351 3.4082489 C-0.89035201 2.01082021 -0.89035201 2.01082021 0 0 Z " fill="#DDF0DB" transform="translate(991,833)"/>
<path d="M0 0 C1.125 1.5625 1.125 1.5625 2 4 C1.56794753 5.62850545 1.1221377 7.25563507 0.58203125 8.8515625 C-0.57596334 13.12603919 -0.69734814 17.59561898 -1 22 C-1.33 22 -1.66 22 -2 22 C-2.05454409 19.64551325 -2.0939279 17.29232125 -2.125 14.9375 C-2.14820313 13.62652344 -2.17140625 12.31554687 -2.1953125 10.96484375 C-1.99417522 6.88175701 -1.27165462 3.85000947 0 0 Z " fill="#66B75C" transform="translate(638,572)"/>
<path d="M0 0 C1.485 0.99 1.485 0.99 3 2 C4.71444889 2.43738696 6.44667784 2.80848688 8.1875 3.125 C9.08855469 3.29257812 9.98960937 3.46015625 10.91796875 3.6328125 C11.60503906 3.75398437 12.29210937 3.87515625 13 4 C12.67 4.66 12.34 5.32 12 6 C7.83783725 6.32644414 5.63686538 6.40650982 2.0625 4.125 C0 2 0 2 0 0 Z " fill="#5AB54F" transform="translate(914,892)"/>
<path d="M0 0 C0 0.66 0 1.32 0 2 C-2.31 2 -4.62 2 -7 2 C-7.66 3.65 -8.32 5.3 -9 7 C-9.66 6.67 -10.32 6.34 -11 6 C-8.60159776 0.46522561 -5.82500047 -0.25888891 0 0 Z " fill="#DAF0DB" transform="translate(591,298)"/>
<path d="M0 0 C4.12146058 -0.32325181 6.3675734 -0.39022067 9.9375 1.8125 C12 4 12 4 12 7 C10 7 10 7 7.875 5.125 C6 3 6 3 6 1 C4.02 1 2.04 1 0 1 C0 0.67 0 0.34 0 0 Z " fill="#D8EDD7" transform="translate(346,298)"/>
<path d="M0 0 C0.33 1.32 0.66 2.64 1 4 C-1.31 5.98 -3.62 7.96 -6 10 C-6 6.41087588 -5.33563446 5.89142971 -3 3.3125 C-2.443125 2.68988281 -1.88625 2.06726563 -1.3125 1.42578125 C-0.879375 0.95527344 -0.44625 0.48476563 0 0 Z " fill="#62BA56" transform="translate(942,572)"/>
<path d="M0 0 C-0.4640625 0.99 -0.4640625 0.99 -0.9375 2 C-2.24960255 5.70476015 -2.60264135 9.09263991 -3 13 C-3.33 13 -3.66 13 -4 13 C-4.2493357 11.39884424 -4.47378648 9.79379841 -4.6875 8.1875 C-4.81511719 7.29417969 -4.94273437 6.40085937 -5.07421875 5.48046875 C-5 3 -5 3 -3.64453125 1.17578125 C-2 0 -2 0 0 0 Z " fill="#5BB54D" transform="translate(779,841)"/>
<path d="M0 0 C0.99 0.33 1.98 0.66 3 1 C1.02 2.98 -0.96 4.96 -3 7 C-3.99 6.67 -4.98 6.34 -6 6 C-4.02 4.02 -2.04 2.04 0 0 Z " fill="#D9EED7" transform="translate(882,796)"/>
<path d="M0 0 C0.66 0.99 1.32 1.98 2 3 C0.68 4.65 -0.64 6.3 -2 8 C-3.32 7.67 -4.64 7.34 -6 7 C-5.195625 6.21625 -4.39125 5.4325 -3.5625 4.625 C-1.01309583 2.28017144 -1.01309583 2.28017144 0 0 Z " fill="#5DBA52" transform="translate(330,435)"/>
<path d="M0 0 C2.97 0.33 5.94 0.66 9 1 C9 1.99 9 2.98 9 4 C4.545 3.01 4.545 3.01 0 2 C0 1.34 0 0.68 0 0 Z " fill="#61BC52" transform="translate(977,817)"/>
<path d="M0 0 C0.66 0.33 1.32 0.66 2 1 C0.1875 4 0.1875 4 -2 7 C-2.99 7 -3.98 7 -5 7 C-3.70700306 4.11562221 -2.34058637 2.12780579 0 0 Z " fill="#D5EDD6" transform="translate(309,540)"/>
<path d="M0 0 C0.66 0.33 1.32 0.66 2 1 C0.88200014 2.33920838 -0.24461897 3.67122556 -1.375 5 C-2.00148438 5.7425 -2.62796875 6.485 -3.2734375 7.25 C-4.12808594 8.11625 -4.12808594 8.11625 -5 9 C-5.66 9 -6.32 9 -7 9 C-5.44499019 5.18315774 -2.96404505 2.80804268 0 0 Z " fill="#D6EDD5" transform="translate(643,537)"/>
<path d="M0 0 C3.96 0 7.92 0 12 0 C12 0.33 12 0.66 12 1 C10.7625 1.12375 9.525 1.2475 8.25 1.375 C5.1237803 1.75746305 2.71120763 2.30549523 0 4 C0 2.68 0 1.36 0 0 Z " fill="#5BB44D" transform="translate(947,536)"/>
<path d="M0 0 C0.99 0.33 1.98 0.66 3 1 C1.35 2.65 -0.3 4.3 -2 6 C-2.99 5.67 -3.98 5.34 -5 5 C-3.35 3.35 -1.7 1.7 0 0 Z " fill="#60B854" transform="translate(778,575)"/>
<path d="M0 0 C0.91007813 0.00902344 1.82015625 0.01804687 2.7578125 0.02734375 C3.45648437 0.03894531 4.15515625 0.05054688 4.875 0.0625 C4.875 0.3925 4.875 0.7225 4.875 1.0625 C3.25328761 1.45147161 1.62745075 1.82328298 0 2.1875 C-0.90492188 2.39632813 -1.80984375 2.60515625 -2.7421875 2.8203125 C-3.52851562 2.90023438 -4.31484375 2.98015625 -5.125 3.0625 C-5.785 2.4025 -6.445 1.7425 -7.125 1.0625 C-4.60024538 -0.19987731 -2.81299534 -0.03606404 0 0 Z " fill="#6CBE62" transform="translate(754.125,491.9375)"/>
<path d="M0 0 C0.99 0 1.98 0 3 0 C3.33 1.98 3.66 3.96 4 6 C3.01 6.495 3.01 6.495 2 7 C0.5393715 4.35261084 0 3.10551666 0 0 Z " fill="#5BB34F" transform="translate(340,895)"/>
</svg>
